<?xml version="1.0" encoding="UTF-8" standalone="no"?>
<!DOCTYPE svg PUBLIC "-//W3C//DTD SVG 1.1//EN"
 "http://www.w3.org/Graphics/SVG/1.1/DTD/svg11.dtd">
<!-- Generated by graphviz version 2.43.0 (0)
 -->
<!-- Title: accumulator Pages: 1 -->
<svg width="735pt" height="245pt"
 viewBox="0.00 0.00 735.00 244.99" xmlns="http://www.w3.org/2000/svg" xmlns:xlink="http://www.w3.org/1999/xlink">
<g id="graph0" class="graph" transform="scale(1 1) rotate(0) translate(4 240.99)">
<title>accumulator</title>
<polygon fill="white" stroke="transparent" points="-4,4 -4,-240.99 731,-240.99 731,4 -4,4"/>
<text text-anchor="middle" x="363.5" y="-7.8" font-family="Times,serif" font-size="14.00">accumulator</text>
<!-- v725 -->
<g id="node1" class="node">
<title>v725</title>
<ellipse fill="black" stroke="black" cx="136" cy="-134.49" rx="9" ry="9"/>
<text text-anchor="middle" x="136" y="-130.79" font-family="Times,serif" font-size="14.00" fill="white">1</text>
</g>
<!-- e876 -->
<g id="node7" class="node">
<title>e876</title>
<polygon fill="white" stroke="transparent" points="426,-155.99 181,-155.99 181,-62.99 426,-62.99 426,-155.99"/>
<polygon fill="darkturquoise" stroke="transparent" points="189,-66.99 189,-151.99 418,-151.99 418,-66.99 189,-66.99"/>
<polygon fill="none" stroke="black" points="192.5,-69.49 192.5,-148.49 248.5,-148.49 248.5,-69.49 192.5,-69.49"/>
<polygon fill="none" stroke="black" points="198.5,-121.49 198.5,-142.49 242.5,-142.49 242.5,-121.49 198.5,-121.49"/>
<text text-anchor="start" x="201.5" y="-128.29" font-family="Times,serif" font-size="14.00">Cin:1</text>
<polygon fill="none" stroke="black" points="198.5,-98.49 198.5,-119.49 242.5,-119.49 242.5,-98.49 198.5,-98.49"/>
<text text-anchor="start" x="208.5" y="-105.29" font-family="Times,serif" font-size="14.00">A:4</text>
<polygon fill="none" stroke="black" points="198.5,-75.49 198.5,-96.49 242.5,-96.49 242.5,-75.49 198.5,-75.49"/>
<text text-anchor="start" x="208" y="-82.29" font-family="Times,serif" font-size="14.00">B:4</text>
<polygon fill="none" stroke="black" points="195.5,-72.49 195.5,-145.49 245.5,-145.49 245.5,-72.49 195.5,-72.49"/>
<polygon fill="none" stroke="black" points="250.5,-69.49 250.5,-148.49 347.5,-148.49 347.5,-69.49 250.5,-69.49"/>
<text text-anchor="start" x="253.5" y="-105.29" font-family="Times,serif" font-size="14.00">ripple_adder</text>
<polygon fill="none" stroke="black" points="349.5,-69.49 349.5,-148.49 415.5,-148.49 415.5,-69.49 349.5,-69.49"/>
<polygon fill="none" stroke="black" points="355.5,-109.49 355.5,-142.49 409.5,-142.49 409.5,-109.49 355.5,-109.49"/>
<text text-anchor="start" x="370.5" y="-122.29" font-family="Times,serif" font-size="14.00">S:4</text>
<polygon fill="none" stroke="black" points="355.5,-75.49 355.5,-107.49 409.5,-107.49 409.5,-75.49 355.5,-75.49"/>
<text text-anchor="start" x="358.5" y="-87.79" font-family="Times,serif" font-size="14.00">Cout:1</text>
<polygon fill="none" stroke="black" points="352.5,-72.49 352.5,-145.49 412.5,-145.49 412.5,-72.49 352.5,-72.49"/>
<polygon fill="none" stroke="black" points="189,-66.99 189,-151.99 418,-151.99 418,-66.99 189,-66.99"/>
</g>
<!-- v725&#45;&#45;e876 -->
<g id="edge2" class="edge">
<title>v725:e&#45;&#45;e876:w</title>
<path fill="none" stroke="black" d="M145,-134.49C168.35,-134.49 174.15,-132.49 197.5,-132.49"/>
</g>
<!-- v726 -->
<g id="node2" class="node">
<title>v726</title>
<ellipse fill="black" stroke="black" cx="136" cy="-81.49" rx="9" ry="9"/>
<text text-anchor="middle" x="136" y="-77.79" font-family="Times,serif" font-size="14.00" fill="white">4</text>
</g>
<!-- v726&#45;&#45;e876 -->
<g id="edge3" class="edge">
<title>v726:e&#45;&#45;e876:w</title>
<path fill="none" stroke="black" d="M145,-81.49C168.4,-81.49 174.1,-85.49 197.5,-85.49"/>
</g>
<!-- v727 -->
<g id="node3" class="node">
<title>v727</title>
<ellipse fill="black" stroke="black" cx="471" cy="-159.49" rx="9" ry="9"/>
<text text-anchor="middle" x="471" y="-155.79" font-family="Times,serif" font-size="14.00" fill="white">4</text>
</g>
<!-- e903 -->
<g id="node8" class="node">
<title>e903</title>
<polygon fill="white" stroke="transparent" points="627,-183.99 516,-183.99 516,-136.99 627,-136.99 627,-183.99"/>
<polygon fill="yellowgreen" stroke="transparent" points="524,-140.99 524,-179.99 619,-179.99 619,-140.99 524,-140.99"/>
<polygon fill="none" stroke="black" points="527.5,-143.49 527.5,-176.49 555.5,-176.49 555.5,-143.49 527.5,-143.49"/>
<polygon fill="none" stroke="black" points="533.5,-149.49 533.5,-170.49 549.5,-170.49 549.5,-149.49 533.5,-149.49"/>
<text text-anchor="start" x="536.5" y="-156.29" font-family="Times,serif" font-size="14.00">4</text>
<polygon fill="none" stroke="black" points="530.5,-146.49 530.5,-173.49 552.5,-173.49 552.5,-146.49 530.5,-146.49"/>
<polygon fill="none" stroke="black" points="557.5,-143.49 557.5,-176.49 586.5,-176.49 586.5,-143.49 557.5,-143.49"/>
<text text-anchor="start" x="560.5" y="-156.29" font-family="Times,serif" font-size="14.00">0 ::</text>
<polygon fill="none" stroke="black" points="588.5,-143.49 588.5,-176.49 616.5,-176.49 616.5,-143.49 588.5,-143.49"/>
<polygon fill="none" stroke="black" points="594.5,-149.49 594.5,-170.49 610.5,-170.49 610.5,-149.49 594.5,-149.49"/>
<text text-anchor="start" x="597.5" y="-156.29" font-family="Times,serif" font-size="14.00">4</text>
<polygon fill="none" stroke="black" points="591.5,-146.49 591.5,-173.49 613.5,-173.49 613.5,-146.49 591.5,-146.49"/>
<polygon fill="none" stroke="black" points="524,-140.99 524,-179.99 619,-179.99 619,-140.99 524,-140.99"/>
</g>
<!-- v727&#45;&#45;e903 -->
<g id="edge5" class="edge">
<title>v727:e&#45;&#45;e903:w</title>
<path fill="none" stroke="black" d="M480,-159.49C503.33,-159.49 509.17,-159.49 532.5,-159.49"/>
</g>
<!-- 904_outputs -->
<g id="node10" class="node">
<title>904_outputs</title>
<polygon fill="white" stroke="transparent" points="727,-236.99 663,-236.99 663,-189.99 727,-189.99 727,-236.99"/>
<polygon fill="gray" stroke="transparent" points="671,-193.99 671,-232.99 719,-232.99 719,-193.99 671,-193.99"/>
<polygon fill="none" stroke="black" points="674,-196.49 674,-229.49 716,-229.49 716,-196.49 674,-196.49"/>
<polygon fill="none" stroke="black" points="680,-202.49 680,-223.49 710,-223.49 710,-202.49 680,-202.49"/>
<text text-anchor="start" x="683" y="-209.29" font-family="Times,serif" font-size="14.00">S:4</text>
<polygon fill="none" stroke="black" points="677,-199.49 677,-226.49 713,-226.49 713,-199.49 677,-199.49"/>
<polygon fill="none" stroke="black" points="671,-193.99 671,-232.99 719,-232.99 719,-193.99 671,-193.99"/>
</g>
<!-- v727&#45;&#45;904_outputs -->
<g id="edge10" class="edge">
<title>v727:e&#45;&#45;904_outputs:w</title>
<path fill="none" stroke="black" d="M480,-159.49C502.01,-159.49 496.06,-184.19 516,-193.49 582.1,-224.32 606.07,-212.49 679,-212.49"/>
</g>
<!-- v728 -->
<g id="node4" class="node">
<title>v728</title>
<ellipse fill="black" stroke="black" cx="471" cy="-71.49" rx="9" ry="9"/>
<text text-anchor="middle" x="471" y="-67.79" font-family="Times,serif" font-size="14.00" fill="white">1</text>
</g>
<!-- v729 -->
<g id="node5" class="node">
<title>v729</title>
<ellipse fill="black" stroke="black" cx="695" cy="-134.49" rx="9" ry="9"/>
<text text-anchor="middle" x="695" y="-130.79" font-family="Times,serif" font-size="14.00" fill="white">4</text>
</g>
<!-- v729&#45;&#45;e876 -->
<g id="edge8" class="edge">
<title>v729:e&#45;&#45;e876:w</title>
<path fill="none" stroke="black" d="M705,-134.49C723.45,-134.49 725.62,-148.45 686,-143.49 659.15,-140.13 653.28,-134.94 627,-128.49 553.82,-110.54 530.39,-121.13 462,-89.49 443.97,-81.15 444.88,-69.19 426,-62.99 329.94,-31.45 270.78,7.71 198.5,-62.99 184.04,-77.14 177.27,-108.49 197.5,-108.49"/>
</g>
<!-- e756 -->
<g id="node6" class="node">
<title>e756</title>
<polygon fill="white" stroke="transparent" points="91,-161.99 0,-161.99 0,-114.99 91,-114.99 91,-161.99"/>
<polygon fill="lightseagreen" stroke="transparent" points="8,-118.99 8,-157.99 83,-157.99 83,-118.99 8,-118.99"/>
<polygon fill="none" stroke="black" points="11.5,-121.49 11.5,-154.49 50.5,-154.49 50.5,-121.49 11.5,-121.49"/>
<text text-anchor="start" x="14.5" y="-134.29" font-family="Times,serif" font-size="14.00">0^ω</text>
<polygon fill="none" stroke="black" points="52.5,-121.49 52.5,-154.49 80.5,-154.49 80.5,-121.49 52.5,-121.49"/>
<polygon fill="none" stroke="black" points="58.5,-127.49 58.5,-148.49 74.5,-148.49 74.5,-127.49 58.5,-127.49"/>
<text text-anchor="start" x="61.5" y="-134.29" font-family="Times,serif" font-size="14.00">1</text>
<polygon fill="none" stroke="black" points="55.5,-124.49 55.5,-151.49 77.5,-151.49 77.5,-124.49 55.5,-124.49"/>
<polygon fill="none" stroke="black" points="8,-118.99 8,-157.99 83,-157.99 83,-118.99 8,-118.99"/>
</g>
<!-- e756&#45;&#45;v725 -->
<g id="edge1" class="edge">
<title>e756:e&#45;&#45;v725:w</title>
<path fill="none" stroke="black" d="M75.5,-137.49C98.43,-137.49 104.07,-134.49 127,-134.49"/>
</g>
<!-- e876&#45;&#45;v727 -->
<g id="edge4" class="edge">
<title>e876:e&#45;&#45;v727:w</title>
<path fill="none" stroke="black" d="M410.5,-126.49C437.68,-126.49 434.82,-159.49 462,-159.49"/>
</g>
<!-- e876&#45;&#45;v728 -->
<g id="edge6" class="edge">
<title>e876:e&#45;&#45;v728:w</title>
<path fill="none" stroke="black" d="M410.5,-91.49C435.05,-91.49 437.45,-71.49 462,-71.49"/>
</g>
<!-- e903&#45;&#45;v729 -->
<g id="edge7" class="edge">
<title>e903:e&#45;&#45;v729:w</title>
<path fill="none" stroke="black" d="M611.5,-159.49C646,-159.49 650.5,-134.49 685,-134.49"/>
</g>
<!-- 904_inputs -->
<g id="node9" class="node">
<title>904_inputs</title>
<polygon fill="white" stroke="transparent" points="77.5,-96.99 13.5,-96.99 13.5,-49.99 77.5,-49.99 77.5,-96.99"/>
<polygon fill="gray" stroke="transparent" points="21.5,-53.99 21.5,-92.99 69.5,-92.99 69.5,-53.99 21.5,-53.99"/>
<polygon fill="none" stroke="black" points="24.5,-56.49 24.5,-89.49 66.5,-89.49 66.5,-56.49 24.5,-56.49"/>
<polygon fill="none" stroke="black" points="30.5,-62.49 30.5,-83.49 60.5,-83.49 60.5,-62.49 30.5,-62.49"/>
<text text-anchor="start" x="33.5" y="-69.29" font-family="Times,serif" font-size="14.00">A:4</text>
<polygon fill="none" stroke="black" points="27.5,-59.49 27.5,-86.49 63.5,-86.49 63.5,-59.49 27.5,-59.49"/>
<polygon fill="none" stroke="black" points="21.5,-53.99 21.5,-92.99 69.5,-92.99 69.5,-53.99 21.5,-53.99"/>
</g>
<!-- 904_inputs&#45;&#45;v726 -->
<g id="edge9" class="edge">
<title>904_inputs:e&#45;&#45;v726:w</title>
<path fill="none" stroke="black" d="M61.5,-72.49C90.88,-72.49 97.62,-81.49 127,-81.49"/>
</g>
</g>
</svg>
