<?xml version="1.0" encoding="UTF-8" standalone="no"?>
<!DOCTYPE svg PUBLIC "-//W3C//DTD SVG 1.1//EN"
 "http://www.w3.org/Graphics/SVG/1.1/DTD/svg11.dtd">
<!-- Generated by graphviz version 2.43.0 (0)
 -->
<!-- Title: accumulator Pages: 1 -->
<svg width="1455pt" height="822pt"
 viewBox="0.00 0.00 1455.00 822.34" xmlns="http://www.w3.org/2000/svg" xmlns:xlink="http://www.w3.org/1999/xlink">
<g id="graph0" class="graph" transform="scale(1 1) rotate(0) translate(4 818.34)">
<title>accumulator</title>
<polygon fill="white" stroke="transparent" points="-4,4 -4,-818.34 1451,-818.34 1451,4 -4,4"/>
<text text-anchor="middle" x="723.5" y="-7.8" font-family="Times,serif" font-size="14.00">accumulator</text>
<!-- v1297 -->
<g id="node1" class="node">
<title>v1297</title>
<ellipse fill="black" stroke="black" cx="1134" cy="-423.5" rx="9" ry="9"/>
<text text-anchor="middle" x="1134" y="-419.8" font-family="Times,serif" font-size="14.00" fill="white">4</text>
</g>
<!-- e1300 -->
<g id="node25" class="node">
<title>e1300</title>
<polygon fill="white" stroke="transparent" points="1293,-476.5 1179,-476.5 1179,-406.5 1293,-406.5 1293,-476.5"/>
<polygon fill="violet" stroke="transparent" points="1187,-410.5 1187,-472.5 1285,-472.5 1285,-410.5 1187,-410.5"/>
<polygon fill="none" stroke="black" points="1190,-413.5 1190,-469.5 1218,-469.5 1218,-413.5 1190,-413.5"/>
<polygon fill="none" stroke="black" points="1196,-442.5 1196,-463.5 1212,-463.5 1212,-442.5 1196,-442.5"/>
<text text-anchor="start" x="1199" y="-449.3" font-family="Times,serif" font-size="14.00">4</text>
<polygon fill="none" stroke="black" points="1196,-419.5 1196,-440.5 1212,-440.5 1212,-419.5 1196,-419.5"/>
<text text-anchor="start" x="1199" y="-426.3" font-family="Times,serif" font-size="14.00">4</text>
<polygon fill="none" stroke="black" points="1193,-416.5 1193,-466.5 1215,-466.5 1215,-416.5 1193,-416.5"/>
<polygon fill="none" stroke="black" points="1220,-413.5 1220,-469.5 1252,-469.5 1252,-413.5 1220,-413.5"/>
<text text-anchor="start" x="1223" y="-437.8" font-family="Times,serif" font-size="14.00">∇_4</text>
<polygon fill="none" stroke="black" points="1254,-413.5 1254,-469.5 1282,-469.5 1282,-413.5 1254,-413.5"/>
<polygon fill="none" stroke="black" points="1260,-419.5 1260,-463.5 1276,-463.5 1276,-419.5 1260,-419.5"/>
<text text-anchor="start" x="1263" y="-437.8" font-family="Times,serif" font-size="14.00">4</text>
<polygon fill="none" stroke="black" points="1257,-416.5 1257,-466.5 1279,-466.5 1279,-416.5 1257,-416.5"/>
<polygon fill="none" stroke="black" points="1187,-410.5 1187,-472.5 1285,-472.5 1285,-410.5 1187,-410.5"/>
</g>
<!-- v1297&#45;&#45;e1300 -->
<g id="edge2" class="edge">
<title>v1297:e&#45;&#45;e1300:w</title>
<path fill="none" stroke="black" d="M1143,-423.5C1166.26,-423.5 1171.74,-429.5 1195,-429.5"/>
</g>
<!-- v1296 -->
<g id="node2" class="node">
<title>v1296</title>
<ellipse fill="black" stroke="black" cx="901" cy="-409.5" rx="9" ry="9"/>
<text text-anchor="middle" x="901" y="-405.8" font-family="Times,serif" font-size="14.00" fill="white">4</text>
</g>
<!-- e1298 -->
<g id="node30" class="node">
<title>e1298</title>
<polygon fill="white" stroke="transparent" points="1089,-434 946,-434 946,-387 1089,-387 1089,-434"/>
<polygon fill="yellow" stroke="transparent" points="954,-391 954,-430 1081,-430 1081,-391 954,-391"/>
<polygon fill="none" stroke="black" points="957.5,-393.5 957.5,-426.5 985.5,-426.5 985.5,-393.5 957.5,-393.5"/>
<polygon fill="none" stroke="black" points="963.5,-399.5 963.5,-420.5 979.5,-420.5 979.5,-399.5 963.5,-399.5"/>
<text text-anchor="start" x="966.5" y="-406.3" font-family="Times,serif" font-size="14.00">4</text>
<polygon fill="none" stroke="black" points="960.5,-396.5 960.5,-423.5 982.5,-423.5 982.5,-396.5 960.5,-396.5"/>
<polygon fill="none" stroke="black" points="987.5,-393.5 987.5,-426.5 1048.5,-426.5 1048.5,-393.5 987.5,-393.5"/>
<text text-anchor="start" x="990.5" y="-406.3" font-family="Times,serif" font-size="14.00">delay_4</text>
<polygon fill="none" stroke="black" points="1050.5,-393.5 1050.5,-426.5 1078.5,-426.5 1078.5,-393.5 1050.5,-393.5"/>
<polygon fill="none" stroke="black" points="1056.5,-399.5 1056.5,-420.5 1072.5,-420.5 1072.5,-399.5 1056.5,-399.5"/>
<text text-anchor="start" x="1059.5" y="-406.3" font-family="Times,serif" font-size="14.00">4</text>
<polygon fill="none" stroke="black" points="1053.5,-396.5 1053.5,-423.5 1075.5,-423.5 1075.5,-396.5 1053.5,-396.5"/>
<polygon fill="none" stroke="black" points="954,-391 954,-430 1081,-430 1081,-391 954,-391"/>
</g>
<!-- v1296&#45;&#45;e1298 -->
<g id="edge4" class="edge">
<title>v1296:e&#45;&#45;e1298:w</title>
<path fill="none" stroke="black" d="M910,-409.5C933.33,-409.5 939.17,-409.5 962.5,-409.5"/>
</g>
<!-- v1672 -->
<g id="node3" class="node">
<title>v1672</title>
<ellipse fill="black" stroke="black" cx="697" cy="-437.5" rx="9" ry="9"/>
<text text-anchor="middle" x="697" y="-433.8" font-family="Times,serif" font-size="14.00" fill="white">4</text>
</g>
<!-- e1673 -->
<g id="node41" class="node">
<title>e1673</title>
<polygon fill="white" stroke="transparent" points="856,-444.5 742,-444.5 742,-374.5 856,-374.5 856,-444.5"/>
<polygon fill="violet" stroke="transparent" points="750,-378.5 750,-440.5 848,-440.5 848,-378.5 750,-378.5"/>
<polygon fill="none" stroke="black" points="753,-381.5 753,-437.5 781,-437.5 781,-381.5 753,-381.5"/>
<polygon fill="none" stroke="black" points="759,-410.5 759,-431.5 775,-431.5 775,-410.5 759,-410.5"/>
<text text-anchor="start" x="762" y="-417.3" font-family="Times,serif" font-size="14.00">4</text>
<polygon fill="none" stroke="black" points="759,-387.5 759,-408.5 775,-408.5 775,-387.5 759,-387.5"/>
<text text-anchor="start" x="762" y="-394.3" font-family="Times,serif" font-size="14.00">4</text>
<polygon fill="none" stroke="black" points="756,-384.5 756,-434.5 778,-434.5 778,-384.5 756,-384.5"/>
<polygon fill="none" stroke="black" points="783,-381.5 783,-437.5 815,-437.5 815,-381.5 783,-381.5"/>
<text text-anchor="start" x="786" y="-405.8" font-family="Times,serif" font-size="14.00">∇_4</text>
<polygon fill="none" stroke="black" points="817,-381.5 817,-437.5 845,-437.5 845,-381.5 817,-381.5"/>
<polygon fill="none" stroke="black" points="823,-387.5 823,-431.5 839,-431.5 839,-387.5 823,-387.5"/>
<text text-anchor="start" x="826" y="-405.8" font-family="Times,serif" font-size="14.00">4</text>
<polygon fill="none" stroke="black" points="820,-384.5 820,-434.5 842,-434.5 842,-384.5 820,-384.5"/>
<polygon fill="none" stroke="black" points="750,-378.5 750,-440.5 848,-440.5 848,-378.5 750,-378.5"/>
</g>
<!-- v1672&#45;&#45;e1673 -->
<g id="edge6" class="edge">
<title>v1672:e&#45;&#45;e1673:w</title>
<path fill="none" stroke="black" d="M706,-437.5C730.18,-437.5 733.82,-421.5 758,-421.5"/>
</g>
<!-- v1299 -->
<g id="node4" class="node">
<title>v1299</title>
<ellipse fill="black" stroke="black" cx="1134" cy="-466.5" rx="9" ry="9"/>
<text text-anchor="middle" x="1134" y="-462.8" font-family="Times,serif" font-size="14.00" fill="white">4</text>
</g>
<!-- v1299&#45;&#45;e1300 -->
<g id="edge8" class="edge">
<title>v1299:e&#45;&#45;e1300:w</title>
<path fill="none" stroke="black" d="M1143,-466.5C1166.82,-466.5 1171.18,-453.5 1195,-453.5"/>
</g>
<!-- v1091 -->
<g id="node5" class="node">
<title>v1091</title>
<ellipse fill="black" stroke="black" cx="697" cy="-697.5" rx="9" ry="9"/>
<text text-anchor="middle" x="697" y="-693.8" font-family="Times,serif" font-size="14.00" fill="white">4</text>
</g>
<!-- e1148 -->
<g id="node31" class="node">
<title>e1148</title>
<polygon fill="white" stroke="transparent" points="856,-770.5 742,-770.5 742,-700.5 856,-700.5 856,-770.5"/>
<polygon fill="violet" stroke="transparent" points="750,-704.5 750,-766.5 848,-766.5 848,-704.5 750,-704.5"/>
<polygon fill="none" stroke="black" points="753,-707.5 753,-763.5 781,-763.5 781,-707.5 753,-707.5"/>
<polygon fill="none" stroke="black" points="759,-736.5 759,-757.5 775,-757.5 775,-736.5 759,-736.5"/>
<text text-anchor="start" x="762" y="-743.3" font-family="Times,serif" font-size="14.00">4</text>
<polygon fill="none" stroke="black" points="759,-713.5 759,-734.5 775,-734.5 775,-713.5 759,-713.5"/>
<text text-anchor="start" x="762" y="-720.3" font-family="Times,serif" font-size="14.00">4</text>
<polygon fill="none" stroke="black" points="756,-710.5 756,-760.5 778,-760.5 778,-710.5 756,-710.5"/>
<polygon fill="none" stroke="black" points="783,-707.5 783,-763.5 815,-763.5 815,-707.5 783,-707.5"/>
<text text-anchor="start" x="786" y="-731.8" font-family="Times,serif" font-size="14.00">∇_4</text>
<polygon fill="none" stroke="black" points="817,-707.5 817,-763.5 845,-763.5 845,-707.5 817,-707.5"/>
<polygon fill="none" stroke="black" points="823,-713.5 823,-757.5 839,-757.5 839,-713.5 823,-713.5"/>
<text text-anchor="start" x="826" y="-731.8" font-family="Times,serif" font-size="14.00">4</text>
<polygon fill="none" stroke="black" points="820,-710.5 820,-760.5 842,-760.5 842,-710.5 820,-710.5"/>
<polygon fill="none" stroke="black" points="750,-704.5 750,-766.5 848,-766.5 848,-704.5 750,-704.5"/>
</g>
<!-- v1091&#45;&#45;e1148 -->
<g id="edge10" class="edge">
<title>v1091:e&#45;&#45;e1148:w</title>
<path fill="none" stroke="black" d="M706,-697.5C731.84,-697.5 732.16,-723.5 758,-723.5"/>
</g>
<!-- v1149 -->
<g id="node6" class="node">
<title>v1149</title>
<ellipse fill="black" stroke="black" cx="697" cy="-528.5" rx="9" ry="9"/>
<text text-anchor="middle" x="697" y="-524.8" font-family="Times,serif" font-size="14.00" fill="white">1</text>
</g>
<!-- e1155 -->
<g id="node32" class="node">
<title>e1155</title>
<polygon fill="white" stroke="transparent" points="856,-601.5 742,-601.5 742,-531.5 856,-531.5 856,-601.5"/>
<polygon fill="violet" stroke="transparent" points="750,-535.5 750,-597.5 848,-597.5 848,-535.5 750,-535.5"/>
<polygon fill="none" stroke="black" points="753,-538.5 753,-594.5 781,-594.5 781,-538.5 753,-538.5"/>
<polygon fill="none" stroke="black" points="759,-567.5 759,-588.5 775,-588.5 775,-567.5 759,-567.5"/>
<text text-anchor="start" x="762" y="-574.3" font-family="Times,serif" font-size="14.00">1</text>
<polygon fill="none" stroke="black" points="759,-544.5 759,-565.5 775,-565.5 775,-544.5 759,-544.5"/>
<text text-anchor="start" x="762" y="-551.3" font-family="Times,serif" font-size="14.00">1</text>
<polygon fill="none" stroke="black" points="756,-541.5 756,-591.5 778,-591.5 778,-541.5 756,-541.5"/>
<polygon fill="none" stroke="black" points="783,-538.5 783,-594.5 815,-594.5 815,-538.5 783,-538.5"/>
<text text-anchor="start" x="786" y="-562.8" font-family="Times,serif" font-size="14.00">∇_1</text>
<polygon fill="none" stroke="black" points="817,-538.5 817,-594.5 845,-594.5 845,-538.5 817,-538.5"/>
<polygon fill="none" stroke="black" points="823,-544.5 823,-588.5 839,-588.5 839,-544.5 823,-544.5"/>
<text text-anchor="start" x="826" y="-562.8" font-family="Times,serif" font-size="14.00">1</text>
<polygon fill="none" stroke="black" points="820,-541.5 820,-591.5 842,-591.5 842,-541.5 820,-541.5"/>
<polygon fill="none" stroke="black" points="750,-535.5 750,-597.5 848,-597.5 848,-535.5 750,-535.5"/>
</g>
<!-- v1149&#45;&#45;e1155 -->
<g id="edge12" class="edge">
<title>v1149:e&#45;&#45;e1155:w</title>
<path fill="none" stroke="black" d="M706,-528.5C731.84,-528.5 732.16,-554.5 758,-554.5"/>
</g>
<!-- v1152 -->
<g id="node7" class="node">
<title>v1152</title>
<ellipse fill="black" stroke="black" cx="697" cy="-578.5" rx="9" ry="9"/>
<text text-anchor="middle" x="697" y="-574.8" font-family="Times,serif" font-size="14.00" fill="white">1</text>
</g>
<!-- v1152&#45;&#45;e1155 -->
<g id="edge14" class="edge">
<title>v1152:e&#45;&#45;e1155:w</title>
<path fill="none" stroke="black" d="M706,-578.5C729.11,-578.5 734.89,-578.5 758,-578.5"/>
</g>
<!-- v1156 -->
<g id="node8" class="node">
<title>v1156</title>
<ellipse fill="black" stroke="black" cx="697" cy="-110.5" rx="9" ry="9"/>
<text text-anchor="middle" x="697" y="-106.8" font-family="Times,serif" font-size="14.00" fill="white">4</text>
</g>
<!-- e1215 -->
<g id="node35" class="node">
<title>e1215</title>
<polygon fill="white" stroke="transparent" points="856,-133.5 742,-133.5 742,-63.5 856,-63.5 856,-133.5"/>
<polygon fill="violet" stroke="transparent" points="750,-67.5 750,-129.5 848,-129.5 848,-67.5 750,-67.5"/>
<polygon fill="none" stroke="black" points="753,-70.5 753,-126.5 781,-126.5 781,-70.5 753,-70.5"/>
<polygon fill="none" stroke="black" points="759,-99.5 759,-120.5 775,-120.5 775,-99.5 759,-99.5"/>
<text text-anchor="start" x="762" y="-106.3" font-family="Times,serif" font-size="14.00">4</text>
<polygon fill="none" stroke="black" points="759,-76.5 759,-97.5 775,-97.5 775,-76.5 759,-76.5"/>
<text text-anchor="start" x="762" y="-83.3" font-family="Times,serif" font-size="14.00">4</text>
<polygon fill="none" stroke="black" points="756,-73.5 756,-123.5 778,-123.5 778,-73.5 756,-73.5"/>
<polygon fill="none" stroke="black" points="783,-70.5 783,-126.5 815,-126.5 815,-70.5 783,-70.5"/>
<text text-anchor="start" x="786" y="-94.8" font-family="Times,serif" font-size="14.00">∇_4</text>
<polygon fill="none" stroke="black" points="817,-70.5 817,-126.5 845,-126.5 845,-70.5 817,-70.5"/>
<polygon fill="none" stroke="black" points="823,-76.5 823,-120.5 839,-120.5 839,-76.5 823,-76.5"/>
<text text-anchor="start" x="826" y="-94.8" font-family="Times,serif" font-size="14.00">4</text>
<polygon fill="none" stroke="black" points="820,-73.5 820,-123.5 842,-123.5 842,-73.5 820,-73.5"/>
<polygon fill="none" stroke="black" points="750,-67.5 750,-129.5 848,-129.5 848,-67.5 750,-67.5"/>
</g>
<!-- v1156&#45;&#45;e1215 -->
<g id="edge16" class="edge">
<title>v1156:e&#45;&#45;e1215:w</title>
<path fill="none" stroke="black" d="M706,-110.5C729.11,-110.5 734.89,-110.5 758,-110.5"/>
</g>
<!-- v1213 -->
<g id="node9" class="node">
<title>v1213</title>
<ellipse fill="black" stroke="black" cx="697" cy="-60.5" rx="9" ry="9"/>
<text text-anchor="middle" x="697" y="-56.8" font-family="Times,serif" font-size="14.00" fill="white">4</text>
</g>
<!-- v1213&#45;&#45;e1215 -->
<g id="edge18" class="edge">
<title>v1213:e&#45;&#45;e1215:w</title>
<path fill="none" stroke="black" d="M706,-60.5C731.84,-60.5 732.16,-86.5 758,-86.5"/>
</g>
<!-- v1216 -->
<g id="node10" class="node">
<title>v1216</title>
<ellipse fill="black" stroke="black" cx="697" cy="-279.5" rx="9" ry="9"/>
<text text-anchor="middle" x="697" y="-275.8" font-family="Times,serif" font-size="14.00" fill="white">1</text>
</g>
<!-- e1224 -->
<g id="node38" class="node">
<title>e1224</title>
<polygon fill="white" stroke="transparent" points="856,-302.5 742,-302.5 742,-232.5 856,-232.5 856,-302.5"/>
<polygon fill="violet" stroke="transparent" points="750,-236.5 750,-298.5 848,-298.5 848,-236.5 750,-236.5"/>
<polygon fill="none" stroke="black" points="753,-239.5 753,-295.5 781,-295.5 781,-239.5 753,-239.5"/>
<polygon fill="none" stroke="black" points="759,-268.5 759,-289.5 775,-289.5 775,-268.5 759,-268.5"/>
<text text-anchor="start" x="762" y="-275.3" font-family="Times,serif" font-size="14.00">1</text>
<polygon fill="none" stroke="black" points="759,-245.5 759,-266.5 775,-266.5 775,-245.5 759,-245.5"/>
<text text-anchor="start" x="762" y="-252.3" font-family="Times,serif" font-size="14.00">1</text>
<polygon fill="none" stroke="black" points="756,-242.5 756,-292.5 778,-292.5 778,-242.5 756,-242.5"/>
<polygon fill="none" stroke="black" points="783,-239.5 783,-295.5 815,-295.5 815,-239.5 783,-239.5"/>
<text text-anchor="start" x="786" y="-263.8" font-family="Times,serif" font-size="14.00">∇_1</text>
<polygon fill="none" stroke="black" points="817,-239.5 817,-295.5 845,-295.5 845,-239.5 817,-239.5"/>
<polygon fill="none" stroke="black" points="823,-245.5 823,-289.5 839,-289.5 839,-245.5 823,-245.5"/>
<text text-anchor="start" x="826" y="-263.8" font-family="Times,serif" font-size="14.00">1</text>
<polygon fill="none" stroke="black" points="820,-242.5 820,-292.5 842,-292.5 842,-242.5 820,-242.5"/>
<polygon fill="none" stroke="black" points="750,-236.5 750,-298.5 848,-298.5 848,-236.5 750,-236.5"/>
</g>
<!-- v1216&#45;&#45;e1224 -->
<g id="edge20" class="edge">
<title>v1216:e&#45;&#45;e1224:w</title>
<path fill="none" stroke="black" d="M706,-279.5C729.11,-279.5 734.89,-279.5 758,-279.5"/>
</g>
<!-- v1222 -->
<g id="node11" class="node">
<title>v1222</title>
<ellipse fill="black" stroke="black" cx="697" cy="-228.5" rx="9" ry="9"/>
<text text-anchor="middle" x="697" y="-224.8" font-family="Times,serif" font-size="14.00" fill="white">1</text>
</g>
<!-- v1222&#45;&#45;e1224 -->
<g id="edge22" class="edge">
<title>v1222:e&#45;&#45;e1224:w</title>
<path fill="none" stroke="black" d="M706,-228.5C732.04,-228.5 731.96,-255.5 758,-255.5"/>
</g>
<!-- v2019 -->
<g id="node12" class="node">
<title>v2019</title>
<ellipse fill="black" stroke="black" cx="697" cy="-747.5" rx="9" ry="9"/>
<text text-anchor="middle" x="697" y="-743.8" font-family="Times,serif" font-size="14.00" fill="white">4</text>
</g>
<!-- v2019&#45;&#45;e1148 -->
<g id="edge24" class="edge">
<title>v2019:e&#45;&#45;e1148:w</title>
<path fill="none" stroke="black" d="M706,-747.5C729.11,-747.5 734.89,-747.5 758,-747.5"/>
</g>
<!-- v1226 -->
<g id="node13" class="node">
<title>v1226</title>
<ellipse fill="black" stroke="black" cx="901" cy="-767.5" rx="9" ry="9"/>
<text text-anchor="middle" x="901" y="-763.8" font-family="Times,serif" font-size="14.00" fill="white">4</text>
</g>
<!-- e1250 -->
<g id="node36" class="node">
<title>e1250</title>
<polygon fill="white" stroke="transparent" points="419,-500 154,-500 154,-361 419,-361 419,-500"/>
<polygon fill="darkturquoise" stroke="transparent" points="162,-365 162,-496 411,-496 411,-365 162,-365"/>
<polygon fill="none" stroke="black" points="165.5,-367.5 165.5,-492.5 193.5,-492.5 193.5,-367.5 165.5,-367.5"/>
<polygon fill="none" stroke="black" points="171.5,-465.5 171.5,-486.5 187.5,-486.5 187.5,-465.5 171.5,-465.5"/>
<text text-anchor="start" x="174.5" y="-472.3" font-family="Times,serif" font-size="14.00">4</text>
<polygon fill="none" stroke="black" points="171.5,-442.5 171.5,-463.5 187.5,-463.5 187.5,-442.5 171.5,-442.5"/>
<text text-anchor="start" x="174.5" y="-449.3" font-family="Times,serif" font-size="14.00">1</text>
<polygon fill="none" stroke="black" points="171.5,-419.5 171.5,-440.5 187.5,-440.5 187.5,-419.5 171.5,-419.5"/>
<text text-anchor="start" x="174.5" y="-426.3" font-family="Times,serif" font-size="14.00">4</text>
<polygon fill="none" stroke="black" points="171.5,-396.5 171.5,-417.5 187.5,-417.5 187.5,-396.5 171.5,-396.5"/>
<text text-anchor="start" x="174.5" y="-403.3" font-family="Times,serif" font-size="14.00">1</text>
<polygon fill="none" stroke="black" points="171.5,-373.5 171.5,-394.5 187.5,-394.5 187.5,-373.5 171.5,-373.5"/>
<text text-anchor="start" x="174.5" y="-380.3" font-family="Times,serif" font-size="14.00">4</text>
<polygon fill="none" stroke="black" points="168.5,-370.5 168.5,-489.5 190.5,-489.5 190.5,-370.5 168.5,-370.5"/>
<polygon fill="none" stroke="black" points="195.5,-367.5 195.5,-492.5 378.5,-492.5 378.5,-367.5 195.5,-367.5"/>
<text text-anchor="start" x="198.5" y="-426.3" font-family="Times,serif" font-size="14.00">MealyCore(accumulator)</text>
<polygon fill="none" stroke="black" points="380.5,-367.5 380.5,-492.5 408.5,-492.5 408.5,-367.5 380.5,-367.5"/>
<polygon fill="none" stroke="black" points="386.5,-465.5 386.5,-486.5 402.5,-486.5 402.5,-465.5 386.5,-465.5"/>
<text text-anchor="start" x="389.5" y="-472.3" font-family="Times,serif" font-size="14.00">4</text>
<polygon fill="none" stroke="black" points="386.5,-442.5 386.5,-463.5 402.5,-463.5 402.5,-442.5 386.5,-442.5"/>
<text text-anchor="start" x="389.5" y="-449.3" font-family="Times,serif" font-size="14.00">1</text>
<polygon fill="none" stroke="black" points="386.5,-419.5 386.5,-440.5 402.5,-440.5 402.5,-419.5 386.5,-419.5"/>
<text text-anchor="start" x="389.5" y="-426.3" font-family="Times,serif" font-size="14.00">4</text>
<polygon fill="none" stroke="black" points="386.5,-396.5 386.5,-417.5 402.5,-417.5 402.5,-396.5 386.5,-396.5"/>
<text text-anchor="start" x="389.5" y="-403.3" font-family="Times,serif" font-size="14.00">1</text>
<polygon fill="none" stroke="black" points="386.5,-373.5 386.5,-394.5 402.5,-394.5 402.5,-373.5 386.5,-373.5"/>
<text text-anchor="start" x="389.5" y="-380.3" font-family="Times,serif" font-size="14.00">4</text>
<polygon fill="none" stroke="black" points="383.5,-370.5 383.5,-489.5 405.5,-489.5 405.5,-370.5 383.5,-370.5"/>
<polygon fill="none" stroke="black" points="162,-365 162,-496 411,-496 411,-365 162,-365"/>
</g>
<!-- v1226&#45;&#45;e1250 -->
<g id="edge26" class="edge">
<title>v1226:e&#45;&#45;e1250:w</title>
<path fill="none" stroke="black" d="M911,-767.5C915.02,-767.5 912.84,-773.65 910,-776.5 843.02,-843.62 792.82,-800.5 698,-800.5 579.5,-800.5 579.5,-800.5 579.5,-800.5 547.05,-800.5 537.8,-796.46 509,-781.5 419.15,-734.81 69.25,-476.5 170.5,-476.5"/>
</g>
<!-- v1227 -->
<g id="node14" class="node">
<title>v1227</title>
<ellipse fill="black" stroke="black" cx="901" cy="-598.5" rx="9" ry="9"/>
<text text-anchor="middle" x="901" y="-594.8" font-family="Times,serif" font-size="14.00" fill="white">1</text>
</g>
<!-- v1227&#45;&#45;e1250 -->
<g id="edge28" class="edge">
<title>v1227:e&#45;&#45;e1250:w</title>
<path fill="none" stroke="black" d="M911,-598.5C915.02,-598.5 912.84,-604.65 910,-607.5 843.02,-674.62 792.82,-631.5 698,-631.5 579.5,-631.5 579.5,-631.5 579.5,-631.5 388.98,-631.5 284.55,-653.35 171.5,-500 159.23,-483.36 149.83,-453.5 170.5,-453.5"/>
</g>
<!-- v1228 -->
<g id="node15" class="node">
<title>v1228</title>
<ellipse fill="black" stroke="black" cx="901" cy="-131.5" rx="9" ry="9"/>
<text text-anchor="middle" x="901" y="-127.8" font-family="Times,serif" font-size="14.00" fill="white">4</text>
</g>
<!-- v1228&#45;&#45;e1250 -->
<g id="edge30" class="edge">
<title>v1228:e&#45;&#45;e1250:w</title>
<path fill="none" stroke="black" d="M911,-131.5C915.02,-131.5 912.85,-137.66 910,-140.5 842.9,-207.43 792.78,-163.5 698,-163.5 579.5,-163.5 579.5,-163.5 579.5,-163.5 378.04,-163.5 276.71,-189.19 171.5,-361 155.6,-386.97 140.05,-429.5 170.5,-429.5"/>
</g>
<!-- v1229 -->
<g id="node16" class="node">
<title>v1229</title>
<ellipse fill="black" stroke="black" cx="901" cy="-300.5" rx="9" ry="9"/>
<text text-anchor="middle" x="901" y="-296.8" font-family="Times,serif" font-size="14.00" fill="white">1</text>
</g>
<!-- v1229&#45;&#45;e1250 -->
<g id="edge32" class="edge">
<title>v1229:e&#45;&#45;e1250:w</title>
<path fill="none" stroke="black" d="M911,-300.5C915.02,-300.5 912.85,-306.66 910,-309.5 842.9,-376.43 792.78,-332.5 698,-332.5 579.5,-332.5 579.5,-332.5 579.5,-332.5 397.72,-332.5 296.93,-229.43 171.5,-361 157.54,-375.64 150.27,-406.5 170.5,-406.5"/>
</g>
<!-- v1230 -->
<g id="node17" class="node">
<title>v1230</title>
<ellipse fill="black" stroke="black" cx="109" cy="-383.5" rx="9" ry="9"/>
<text text-anchor="middle" x="109" y="-379.8" font-family="Times,serif" font-size="14.00" fill="white">4</text>
</g>
<!-- v1230&#45;&#45;e1250 -->
<g id="edge33" class="edge">
<title>v1230:e&#45;&#45;e1250:w</title>
<path fill="none" stroke="black" d="M118,-383.5C141.33,-383.5 147.17,-383.5 170.5,-383.5"/>
</g>
<!-- v1232 -->
<g id="node18" class="node">
<title>v1232</title>
<ellipse fill="black" stroke="black" cx="464" cy="-675.5" rx="9" ry="9"/>
<text text-anchor="middle" x="464" y="-671.8" font-family="Times,serif" font-size="14.00" fill="white">4</text>
</g>
<!-- e1082 -->
<g id="node27" class="node">
<title>e1082</title>
<polygon fill="white" stroke="transparent" points="652,-707 509,-707 509,-660 652,-660 652,-707"/>
<polygon fill="yellow" stroke="transparent" points="517,-664 517,-703 644,-703 644,-664 517,-664"/>
<polygon fill="none" stroke="black" points="520.5,-666.5 520.5,-699.5 548.5,-699.5 548.5,-666.5 520.5,-666.5"/>
<polygon fill="none" stroke="black" points="526.5,-672.5 526.5,-693.5 542.5,-693.5 542.5,-672.5 526.5,-672.5"/>
<text text-anchor="start" x="529.5" y="-679.3" font-family="Times,serif" font-size="14.00">4</text>
<polygon fill="none" stroke="black" points="523.5,-669.5 523.5,-696.5 545.5,-696.5 545.5,-669.5 523.5,-669.5"/>
<polygon fill="none" stroke="black" points="550.5,-666.5 550.5,-699.5 611.5,-699.5 611.5,-666.5 550.5,-666.5"/>
<text text-anchor="start" x="553.5" y="-679.3" font-family="Times,serif" font-size="14.00">delay_4</text>
<polygon fill="none" stroke="black" points="613.5,-666.5 613.5,-699.5 641.5,-699.5 641.5,-666.5 613.5,-666.5"/>
<polygon fill="none" stroke="black" points="619.5,-672.5 619.5,-693.5 635.5,-693.5 635.5,-672.5 619.5,-672.5"/>
<text text-anchor="start" x="622.5" y="-679.3" font-family="Times,serif" font-size="14.00">4</text>
<polygon fill="none" stroke="black" points="616.5,-669.5 616.5,-696.5 638.5,-696.5 638.5,-669.5 616.5,-669.5"/>
<polygon fill="none" stroke="black" points="517,-664 517,-703 644,-703 644,-664 517,-664"/>
</g>
<!-- v1232&#45;&#45;e1082 -->
<g id="edge35" class="edge">
<title>v1232:e&#45;&#45;e1082:w</title>
<path fill="none" stroke="black" d="M473,-675.5C496.54,-675.5 501.96,-682.5 525.5,-682.5"/>
</g>
<!-- v1233 -->
<g id="node19" class="node">
<title>v1233</title>
<ellipse fill="black" stroke="black" cx="464" cy="-483.5" rx="9" ry="9"/>
<text text-anchor="middle" x="464" y="-479.8" font-family="Times,serif" font-size="14.00" fill="white">1</text>
</g>
<!-- e928 -->
<g id="node29" class="node">
<title>e928</title>
<polygon fill="white" stroke="transparent" points="652,-538 509,-538 509,-491 652,-491 652,-538"/>
<polygon fill="yellow" stroke="transparent" points="517,-495 517,-534 644,-534 644,-495 517,-495"/>
<polygon fill="none" stroke="black" points="520.5,-497.5 520.5,-530.5 548.5,-530.5 548.5,-497.5 520.5,-497.5"/>
<polygon fill="none" stroke="black" points="526.5,-503.5 526.5,-524.5 542.5,-524.5 542.5,-503.5 526.5,-503.5"/>
<text text-anchor="start" x="529.5" y="-510.3" font-family="Times,serif" font-size="14.00">1</text>
<polygon fill="none" stroke="black" points="523.5,-500.5 523.5,-527.5 545.5,-527.5 545.5,-500.5 523.5,-500.5"/>
<polygon fill="none" stroke="black" points="550.5,-497.5 550.5,-530.5 611.5,-530.5 611.5,-497.5 550.5,-497.5"/>
<text text-anchor="start" x="553.5" y="-510.3" font-family="Times,serif" font-size="14.00">delay_1</text>
<polygon fill="none" stroke="black" points="613.5,-497.5 613.5,-530.5 641.5,-530.5 641.5,-497.5 613.5,-497.5"/>
<polygon fill="none" stroke="black" points="619.5,-503.5 619.5,-524.5 635.5,-524.5 635.5,-503.5 619.5,-503.5"/>
<text text-anchor="start" x="622.5" y="-510.3" font-family="Times,serif" font-size="14.00">1</text>
<polygon fill="none" stroke="black" points="616.5,-500.5 616.5,-527.5 638.5,-527.5 638.5,-500.5 616.5,-500.5"/>
<polygon fill="none" stroke="black" points="517,-495 517,-534 644,-534 644,-495 517,-495"/>
</g>
<!-- v1233&#45;&#45;e928 -->
<g id="edge37" class="edge">
<title>v1233:e&#45;&#45;e928:w</title>
<path fill="none" stroke="black" d="M473,-483.5C499.87,-483.5 498.63,-513.5 525.5,-513.5"/>
</g>
<!-- v1234 -->
<g id="node20" class="node">
<title>v1234</title>
<ellipse fill="black" stroke="black" cx="464" cy="-86.5" rx="9" ry="9"/>
<text text-anchor="middle" x="464" y="-82.8" font-family="Times,serif" font-size="14.00" fill="white">4</text>
</g>
<!-- e1214 -->
<g id="node34" class="node">
<title>e1214</title>
<polygon fill="white" stroke="transparent" points="652,-70 509,-70 509,-23 652,-23 652,-70"/>
<polygon fill="yellow" stroke="transparent" points="517,-27 517,-66 644,-66 644,-27 517,-27"/>
<polygon fill="none" stroke="black" points="520.5,-29.5 520.5,-62.5 548.5,-62.5 548.5,-29.5 520.5,-29.5"/>
<polygon fill="none" stroke="black" points="526.5,-35.5 526.5,-56.5 542.5,-56.5 542.5,-35.5 526.5,-35.5"/>
<text text-anchor="start" x="529.5" y="-42.3" font-family="Times,serif" font-size="14.00">4</text>
<polygon fill="none" stroke="black" points="523.5,-32.5 523.5,-59.5 545.5,-59.5 545.5,-32.5 523.5,-32.5"/>
<polygon fill="none" stroke="black" points="550.5,-29.5 550.5,-62.5 611.5,-62.5 611.5,-29.5 550.5,-29.5"/>
<text text-anchor="start" x="553.5" y="-42.3" font-family="Times,serif" font-size="14.00">delay_4</text>
<polygon fill="none" stroke="black" points="613.5,-29.5 613.5,-62.5 641.5,-62.5 641.5,-29.5 613.5,-29.5"/>
<polygon fill="none" stroke="black" points="619.5,-35.5 619.5,-56.5 635.5,-56.5 635.5,-35.5 619.5,-35.5"/>
<text text-anchor="start" x="622.5" y="-42.3" font-family="Times,serif" font-size="14.00">4</text>
<polygon fill="none" stroke="black" points="616.5,-32.5 616.5,-59.5 638.5,-59.5 638.5,-32.5 616.5,-32.5"/>
<polygon fill="none" stroke="black" points="517,-27 517,-66 644,-66 644,-27 517,-27"/>
</g>
<!-- v1234&#45;&#45;e1214 -->
<g id="edge39" class="edge">
<title>v1234:e&#45;&#45;e1214:w</title>
<path fill="none" stroke="black" d="M473,-86.5C502.61,-86.5 495.89,-45.5 525.5,-45.5"/>
</g>
<!-- v1235 -->
<g id="node21" class="node">
<title>v1235</title>
<ellipse fill="black" stroke="black" cx="464" cy="-255.5" rx="9" ry="9"/>
<text text-anchor="middle" x="464" y="-251.8" font-family="Times,serif" font-size="14.00" fill="white">1</text>
</g>
<!-- e1223 -->
<g id="node37" class="node">
<title>e1223</title>
<polygon fill="white" stroke="transparent" points="652,-239 509,-239 509,-192 652,-192 652,-239"/>
<polygon fill="yellow" stroke="transparent" points="517,-196 517,-235 644,-235 644,-196 517,-196"/>
<polygon fill="none" stroke="black" points="520.5,-198.5 520.5,-231.5 548.5,-231.5 548.5,-198.5 520.5,-198.5"/>
<polygon fill="none" stroke="black" points="526.5,-204.5 526.5,-225.5 542.5,-225.5 542.5,-204.5 526.5,-204.5"/>
<text text-anchor="start" x="529.5" y="-211.3" font-family="Times,serif" font-size="14.00">1</text>
<polygon fill="none" stroke="black" points="523.5,-201.5 523.5,-228.5 545.5,-228.5 545.5,-201.5 523.5,-201.5"/>
<polygon fill="none" stroke="black" points="550.5,-198.5 550.5,-231.5 611.5,-231.5 611.5,-198.5 550.5,-198.5"/>
<text text-anchor="start" x="553.5" y="-211.3" font-family="Times,serif" font-size="14.00">delay_1</text>
<polygon fill="none" stroke="black" points="613.5,-198.5 613.5,-231.5 641.5,-231.5 641.5,-198.5 613.5,-198.5"/>
<polygon fill="none" stroke="black" points="619.5,-204.5 619.5,-225.5 635.5,-225.5 635.5,-204.5 619.5,-204.5"/>
<text text-anchor="start" x="622.5" y="-211.3" font-family="Times,serif" font-size="14.00">1</text>
<polygon fill="none" stroke="black" points="616.5,-201.5 616.5,-228.5 638.5,-228.5 638.5,-201.5 616.5,-201.5"/>
<polygon fill="none" stroke="black" points="517,-196 517,-235 644,-235 644,-196 517,-196"/>
</g>
<!-- v1235&#45;&#45;e1223 -->
<g id="edge41" class="edge">
<title>v1235:e&#45;&#45;e1223:w</title>
<path fill="none" stroke="black" d="M473,-255.5C502.61,-255.5 495.89,-214.5 525.5,-214.5"/>
</g>
<!-- v1236 -->
<g id="node22" class="node">
<title>v1236</title>
<ellipse fill="black" stroke="black" cx="1338" cy="-441.5" rx="9" ry="9"/>
<text text-anchor="middle" x="1338" y="-437.8" font-family="Times,serif" font-size="14.00" fill="white">4</text>
</g>
<!-- 1088_outputs -->
<g id="node45" class="node">
<title>1088_outputs</title>
<polygon fill="white" stroke="transparent" points="1447,-466 1383,-466 1383,-419 1447,-419 1447,-466"/>
<polygon fill="gray" stroke="transparent" points="1391,-423 1391,-462 1439,-462 1439,-423 1391,-423"/>
<polygon fill="none" stroke="black" points="1394,-425.5 1394,-458.5 1436,-458.5 1436,-425.5 1394,-425.5"/>
<polygon fill="none" stroke="black" points="1400,-431.5 1400,-452.5 1430,-452.5 1430,-431.5 1400,-431.5"/>
<text text-anchor="start" x="1403" y="-438.3" font-family="Times,serif" font-size="14.00">S:4</text>
<polygon fill="none" stroke="black" points="1397,-428.5 1397,-455.5 1433,-455.5 1433,-428.5 1397,-428.5"/>
<polygon fill="none" stroke="black" points="1391,-423 1391,-462 1439,-462 1439,-423 1391,-423"/>
</g>
<!-- v1236&#45;&#45;1088_outputs -->
<g id="edge48" class="edge">
<title>v1236:e&#45;&#45;1088_outputs:w</title>
<path fill="none" stroke="black" d="M1347,-441.5C1370.11,-441.5 1375.89,-441.5 1399,-441.5"/>
</g>
<!-- v1669 -->
<g id="node23" class="node">
<title>v1669</title>
<ellipse fill="black" stroke="black" cx="464" cy="-383.5" rx="9" ry="9"/>
<text text-anchor="middle" x="464" y="-379.8" font-family="Times,serif" font-size="14.00" fill="white">4</text>
</g>
<!-- e1671 -->
<g id="node33" class="node">
<title>e1671</title>
<polygon fill="white" stroke="transparent" points="652,-408 509,-408 509,-361 652,-361 652,-408"/>
<polygon fill="yellow" stroke="transparent" points="517,-365 517,-404 644,-404 644,-365 517,-365"/>
<polygon fill="none" stroke="black" points="520.5,-367.5 520.5,-400.5 548.5,-400.5 548.5,-367.5 520.5,-367.5"/>
<polygon fill="none" stroke="black" points="526.5,-373.5 526.5,-394.5 542.5,-394.5 542.5,-373.5 526.5,-373.5"/>
<text text-anchor="start" x="529.5" y="-380.3" font-family="Times,serif" font-size="14.00">4</text>
<polygon fill="none" stroke="black" points="523.5,-370.5 523.5,-397.5 545.5,-397.5 545.5,-370.5 523.5,-370.5"/>
<polygon fill="none" stroke="black" points="550.5,-367.5 550.5,-400.5 611.5,-400.5 611.5,-367.5 550.5,-367.5"/>
<text text-anchor="start" x="553.5" y="-380.3" font-family="Times,serif" font-size="14.00">delay_4</text>
<polygon fill="none" stroke="black" points="613.5,-367.5 613.5,-400.5 641.5,-400.5 641.5,-367.5 613.5,-367.5"/>
<polygon fill="none" stroke="black" points="619.5,-373.5 619.5,-394.5 635.5,-394.5 635.5,-373.5 619.5,-373.5"/>
<text text-anchor="start" x="622.5" y="-380.3" font-family="Times,serif" font-size="14.00">4</text>
<polygon fill="none" stroke="black" points="616.5,-370.5 616.5,-397.5 638.5,-397.5 638.5,-370.5 616.5,-370.5"/>
<polygon fill="none" stroke="black" points="517,-365 517,-404 644,-404 644,-365 517,-365"/>
</g>
<!-- v1669&#45;&#45;e1671 -->
<g id="edge44" class="edge">
<title>v1669:e&#45;&#45;e1671:w</title>
<path fill="none" stroke="black" d="M473,-383.5C496.33,-383.5 502.17,-383.5 525.5,-383.5"/>
</g>
<!-- v1670 -->
<g id="node24" class="node">
<title>v1670</title>
<ellipse fill="black" stroke="black" cx="697" cy="-390.5" rx="9" ry="9"/>
<text text-anchor="middle" x="697" y="-386.8" font-family="Times,serif" font-size="14.00" fill="white">4</text>
</g>
<!-- v1670&#45;&#45;e1673 -->
<g id="edge46" class="edge">
<title>v1670:e&#45;&#45;e1673:w</title>
<path fill="none" stroke="black" d="M706,-390.5C729.32,-390.5 734.68,-397.5 758,-397.5"/>
</g>
<!-- e1300&#45;&#45;v1236 -->
<g id="edge42" class="edge">
<title>e1300:e&#45;&#45;v1236:w</title>
<path fill="none" stroke="black" d="M1277,-441.5C1300.11,-441.5 1305.89,-441.5 1329,-441.5"/>
</g>
<!-- e1824 -->
<g id="node26" class="node">
<title>e1824</title>
<polygon fill="white" stroke="transparent" points="616.5,-304 544.5,-304 544.5,-257 616.5,-257 616.5,-304"/>
<polygon fill="aquamarine" stroke="transparent" points="552.5,-261 552.5,-300 608.5,-300 608.5,-261 552.5,-261"/>
<polygon fill="none" stroke="black" points="555.5,-263.5 555.5,-296.5 575.5,-296.5 575.5,-263.5 555.5,-263.5"/>
<text text-anchor="start" x="558.5" y="-276.3" font-family="Times,serif" font-size="14.00">⊥</text>
<polygon fill="none" stroke="black" points="577.5,-263.5 577.5,-296.5 605.5,-296.5 605.5,-263.5 577.5,-263.5"/>
<polygon fill="none" stroke="black" points="583.5,-269.5 583.5,-290.5 599.5,-290.5 599.5,-269.5 583.5,-269.5"/>
<text text-anchor="start" x="586.5" y="-276.3" font-family="Times,serif" font-size="14.00">1</text>
<polygon fill="none" stroke="black" points="580.5,-266.5 580.5,-293.5 602.5,-293.5 602.5,-266.5 580.5,-266.5"/>
<polygon fill="none" stroke="black" points="552.5,-261 552.5,-300 608.5,-300 608.5,-261 552.5,-261"/>
</g>
<!-- e1824&#45;&#45;v1216 -->
<g id="edge19" class="edge">
<title>e1824:e&#45;&#45;v1216:w</title>
<path fill="none" stroke="black" d="M600.5,-279.5C639.39,-279.5 649.11,-279.5 688,-279.5"/>
</g>
<!-- e1082&#45;&#45;v1091 -->
<g id="edge9" class="edge">
<title>e1082:e&#45;&#45;v1091:w</title>
<path fill="none" stroke="black" d="M636.5,-682.5C660.34,-682.5 664.16,-697.5 688,-697.5"/>
</g>
<!-- e1823 -->
<g id="node28" class="node">
<title>e1823</title>
<polygon fill="white" stroke="transparent" points="637,-135 524,-135 524,-88 637,-88 637,-135"/>
<polygon fill="aquamarine" stroke="transparent" points="532,-92 532,-131 629,-131 629,-92 532,-92"/>
<polygon fill="none" stroke="black" points="535.5,-94.5 535.5,-127.5 596.5,-127.5 596.5,-94.5 535.5,-94.5"/>
<text text-anchor="start" x="538.5" y="-107.3" font-family="Times,serif" font-size="14.00">⊥⊥⊥⊥</text>
<polygon fill="none" stroke="black" points="598.5,-94.5 598.5,-127.5 626.5,-127.5 626.5,-94.5 598.5,-94.5"/>
<polygon fill="none" stroke="black" points="604.5,-100.5 604.5,-121.5 620.5,-121.5 620.5,-100.5 604.5,-100.5"/>
<text text-anchor="start" x="607.5" y="-107.3" font-family="Times,serif" font-size="14.00">4</text>
<polygon fill="none" stroke="black" points="601.5,-97.5 601.5,-124.5 623.5,-124.5 623.5,-97.5 601.5,-97.5"/>
<polygon fill="none" stroke="black" points="532,-92 532,-131 629,-131 629,-92 532,-92"/>
</g>
<!-- e1823&#45;&#45;v1156 -->
<g id="edge15" class="edge">
<title>e1823:e&#45;&#45;v1156:w</title>
<path fill="none" stroke="black" d="M621.5,-110.5C651.06,-110.5 658.44,-110.5 688,-110.5"/>
</g>
<!-- e928&#45;&#45;v1149 -->
<g id="edge11" class="edge">
<title>e928:e&#45;&#45;v1149:w</title>
<path fill="none" stroke="black" d="M636.5,-513.5C660.34,-513.5 664.16,-528.5 688,-528.5"/>
</g>
<!-- e1298&#45;&#45;v1297 -->
<g id="edge1" class="edge">
<title>e1298:e&#45;&#45;v1297:w</title>
<path fill="none" stroke="black" d="M1073.5,-409.5C1097.22,-409.5 1101.28,-423.5 1125,-423.5"/>
</g>
<!-- e1148&#45;&#45;v1226 -->
<g id="edge25" class="edge">
<title>e1148:e&#45;&#45;v1226:w</title>
<path fill="none" stroke="black" d="M840,-735.5C867.14,-735.5 864.86,-767.5 892,-767.5"/>
</g>
<!-- e1155&#45;&#45;v1227 -->
<g id="edge27" class="edge">
<title>e1155:e&#45;&#45;v1227:w</title>
<path fill="none" stroke="black" d="M840,-566.5C867.14,-566.5 864.86,-598.5 892,-598.5"/>
</g>
<!-- e1671&#45;&#45;v1670 -->
<g id="edge45" class="edge">
<title>e1671:e&#45;&#45;v1670:w</title>
<path fill="none" stroke="black" d="M636.5,-383.5C659.6,-383.5 664.9,-390.5 688,-390.5"/>
</g>
<!-- e1214&#45;&#45;v1213 -->
<g id="edge17" class="edge">
<title>e1214:e&#45;&#45;v1213:w</title>
<path fill="none" stroke="black" d="M636.5,-45.5C660.34,-45.5 664.16,-60.5 688,-60.5"/>
</g>
<!-- e1215&#45;&#45;v1228 -->
<g id="edge29" class="edge">
<title>e1215:e&#45;&#45;v1228:w</title>
<path fill="none" stroke="black" d="M840,-98.5C867.37,-98.5 864.63,-131.5 892,-131.5"/>
</g>
<!-- e1250&#45;&#45;v1232 -->
<g id="edge34" class="edge">
<title>e1250:e&#45;&#45;v1232:w</title>
<path fill="none" stroke="black" d="M403.5,-476.5C494.86,-476.5 363.64,-675.5 455,-675.5"/>
</g>
<!-- e1250&#45;&#45;v1233 -->
<g id="edge36" class="edge">
<title>e1250:e&#45;&#45;v1233:w</title>
<path fill="none" stroke="black" d="M403.5,-453.5C429.99,-453.5 428.51,-483.5 455,-483.5"/>
</g>
<!-- e1250&#45;&#45;v1234 -->
<g id="edge38" class="edge">
<title>e1250:e&#45;&#45;v1234:w</title>
<path fill="none" stroke="black" d="M403.5,-429.5C557.65,-429.5 300.85,-86.5 455,-86.5"/>
</g>
<!-- e1250&#45;&#45;v1235 -->
<g id="edge40" class="edge">
<title>e1250:e&#45;&#45;v1235:w</title>
<path fill="none" stroke="black" d="M403.5,-406.5C474.41,-406.5 384.09,-255.5 455,-255.5"/>
</g>
<!-- e1250&#45;&#45;v1669 -->
<g id="edge43" class="edge">
<title>e1250:e&#45;&#45;v1669:w</title>
<path fill="none" stroke="black" d="M403.5,-383.5C426.39,-383.5 432.11,-383.5 455,-383.5"/>
</g>
<!-- e1223&#45;&#45;v1222 -->
<g id="edge21" class="edge">
<title>e1223:e&#45;&#45;v1222:w</title>
<path fill="none" stroke="black" d="M636.5,-214.5C660.22,-214.5 664.28,-228.5 688,-228.5"/>
</g>
<!-- e1224&#45;&#45;v1229 -->
<g id="edge31" class="edge">
<title>e1224:e&#45;&#45;v1229:w</title>
<path fill="none" stroke="black" d="M840,-267.5C867.37,-267.5 864.63,-300.5 892,-300.5"/>
</g>
<!-- e2034 -->
<g id="node39" class="node">
<title>e2034</title>
<polygon fill="white" stroke="transparent" points="614.5,-772 546.5,-772 546.5,-725 614.5,-725 614.5,-772"/>
<polygon fill="green" stroke="transparent" points="554.5,-729 554.5,-768 606.5,-768 606.5,-729 554.5,-729"/>
<polygon fill="none" stroke="black" points="557.5,-731.5 557.5,-764.5 573.5,-764.5 573.5,-731.5 557.5,-731.5"/>
<text text-anchor="start" x="560.5" y="-744.3" font-family="Times,serif" font-size="14.00">3</text>
<polygon fill="none" stroke="black" points="575.5,-731.5 575.5,-764.5 603.5,-764.5 603.5,-731.5 575.5,-731.5"/>
<polygon fill="none" stroke="black" points="581.5,-737.5 581.5,-758.5 597.5,-758.5 597.5,-737.5 581.5,-737.5"/>
<text text-anchor="start" x="584.5" y="-744.3" font-family="Times,serif" font-size="14.00">4</text>
<polygon fill="none" stroke="black" points="578.5,-734.5 578.5,-761.5 600.5,-761.5 600.5,-734.5 578.5,-734.5"/>
<polygon fill="none" stroke="black" points="554.5,-729 554.5,-768 606.5,-768 606.5,-729 554.5,-729"/>
</g>
<!-- e2034&#45;&#45;v2019 -->
<g id="edge23" class="edge">
<title>e2034:e&#45;&#45;v2019:w</title>
<path fill="none" stroke="black" d="M598.5,-747.5C638.28,-747.5 648.22,-747.5 688,-747.5"/>
</g>
<!-- e1607 -->
<g id="node40" class="node">
<title>e1607</title>
<polygon fill="white" stroke="transparent" points="1051.5,-499 983.5,-499 983.5,-452 1051.5,-452 1051.5,-499"/>
<polygon fill="green" stroke="transparent" points="991.5,-456 991.5,-495 1043.5,-495 1043.5,-456 991.5,-456"/>
<polygon fill="none" stroke="black" points="994.5,-458.5 994.5,-491.5 1010.5,-491.5 1010.5,-458.5 994.5,-458.5"/>
<text text-anchor="start" x="997.5" y="-471.3" font-family="Times,serif" font-size="14.00">1</text>
<polygon fill="none" stroke="black" points="1012.5,-458.5 1012.5,-491.5 1040.5,-491.5 1040.5,-458.5 1012.5,-458.5"/>
<polygon fill="none" stroke="black" points="1018.5,-464.5 1018.5,-485.5 1034.5,-485.5 1034.5,-464.5 1018.5,-464.5"/>
<text text-anchor="start" x="1021.5" y="-471.3" font-family="Times,serif" font-size="14.00">4</text>
<polygon fill="none" stroke="black" points="1015.5,-461.5 1015.5,-488.5 1037.5,-488.5 1037.5,-461.5 1015.5,-461.5"/>
<polygon fill="none" stroke="black" points="991.5,-456 991.5,-495 1043.5,-495 1043.5,-456 991.5,-456"/>
</g>
<!-- e1607&#45;&#45;v1299 -->
<g id="edge7" class="edge">
<title>e1607:e&#45;&#45;v1299:w</title>
<path fill="none" stroke="black" d="M1035.5,-474.5C1075.44,-474.5 1085.06,-466.5 1125,-466.5"/>
</g>
<!-- e1673&#45;&#45;v1296 -->
<g id="edge3" class="edge">
<title>e1673:e&#45;&#45;v1296:w</title>
<path fill="none" stroke="black" d="M840,-409.5C863.11,-409.5 868.89,-409.5 892,-409.5"/>
</g>
<!-- e2018 -->
<g id="node42" class="node">
<title>e2018</title>
<polygon fill="white" stroke="transparent" points="614.5,-473 546.5,-473 546.5,-426 614.5,-426 614.5,-473"/>
<polygon fill="green" stroke="transparent" points="554.5,-430 554.5,-469 606.5,-469 606.5,-430 554.5,-430"/>
<polygon fill="none" stroke="black" points="557.5,-432.5 557.5,-465.5 573.5,-465.5 573.5,-432.5 557.5,-432.5"/>
<text text-anchor="start" x="560.5" y="-445.3" font-family="Times,serif" font-size="14.00">3</text>
<polygon fill="none" stroke="black" points="575.5,-432.5 575.5,-465.5 603.5,-465.5 603.5,-432.5 575.5,-432.5"/>
<polygon fill="none" stroke="black" points="581.5,-438.5 581.5,-459.5 597.5,-459.5 597.5,-438.5 581.5,-438.5"/>
<text text-anchor="start" x="584.5" y="-445.3" font-family="Times,serif" font-size="14.00">4</text>
<polygon fill="none" stroke="black" points="578.5,-435.5 578.5,-462.5 600.5,-462.5 600.5,-435.5 578.5,-435.5"/>
<polygon fill="none" stroke="black" points="554.5,-430 554.5,-469 606.5,-469 606.5,-430 554.5,-430"/>
</g>
<!-- e2018&#45;&#45;v1672 -->
<g id="edge5" class="edge">
<title>e2018:e&#45;&#45;v1672:w</title>
<path fill="none" stroke="black" d="M598.5,-448.5C638.58,-448.5 647.92,-437.5 688,-437.5"/>
</g>
<!-- e1848 -->
<g id="node43" class="node">
<title>e1848</title>
<polygon fill="white" stroke="transparent" points="614.5,-603 546.5,-603 546.5,-556 614.5,-556 614.5,-603"/>
<polygon fill="#caff70" stroke="transparent" points="554.5,-560 554.5,-599 606.5,-599 606.5,-560 554.5,-560"/>
<polygon fill="none" stroke="black" points="557.5,-562.5 557.5,-595.5 573.5,-595.5 573.5,-562.5 557.5,-562.5"/>
<text text-anchor="start" x="560.5" y="-575.3" font-family="Times,serif" font-size="14.00">0</text>
<polygon fill="none" stroke="black" points="575.5,-562.5 575.5,-595.5 603.5,-595.5 603.5,-562.5 575.5,-562.5"/>
<polygon fill="none" stroke="black" points="581.5,-568.5 581.5,-589.5 597.5,-589.5 597.5,-568.5 581.5,-568.5"/>
<text text-anchor="start" x="584.5" y="-575.3" font-family="Times,serif" font-size="14.00">1</text>
<polygon fill="none" stroke="black" points="578.5,-565.5 578.5,-592.5 600.5,-592.5 600.5,-565.5 578.5,-565.5"/>
<polygon fill="none" stroke="black" points="554.5,-560 554.5,-599 606.5,-599 606.5,-560 554.5,-560"/>
</g>
<!-- e1848&#45;&#45;v1152 -->
<g id="edge13" class="edge">
<title>e1848:e&#45;&#45;v1152:w</title>
<path fill="none" stroke="black" d="M598.5,-578.5C638.28,-578.5 648.22,-578.5 688,-578.5"/>
</g>
<!-- 1088_inputs -->
<g id="node44" class="node">
<title>1088_inputs</title>
<polygon fill="white" stroke="transparent" points="64,-408 0,-408 0,-361 64,-361 64,-408"/>
<polygon fill="gray" stroke="transparent" points="8,-365 8,-404 56,-404 56,-365 8,-365"/>
<polygon fill="none" stroke="black" points="11,-367.5 11,-400.5 53,-400.5 53,-367.5 11,-367.5"/>
<polygon fill="none" stroke="black" points="17,-373.5 17,-394.5 47,-394.5 47,-373.5 17,-373.5"/>
<text text-anchor="start" x="20" y="-380.3" font-family="Times,serif" font-size="14.00">A:4</text>
<polygon fill="none" stroke="black" points="14,-370.5 14,-397.5 50,-397.5 50,-370.5 14,-370.5"/>
<polygon fill="none" stroke="black" points="8,-365 8,-404 56,-404 56,-365 8,-365"/>
</g>
<!-- 1088_inputs&#45;&#45;v1230 -->
<g id="edge47" class="edge">
<title>1088_inputs:e&#45;&#45;v1230:w</title>
<path fill="none" stroke="black" d="M48,-383.5C71.11,-383.5 76.89,-383.5 100,-383.5"/>
</g>
</g>
</svg>
