<?xml version="1.0" encoding="UTF-8" standalone="no"?>
<!-- Created with Inkscape (http://www.inkscape.org/) -->

<svg
   width="29.20672mm"
   height="27.659908mm"
   viewBox="0 0 29.20672 27.659908"
   version="1.1"
   id="svg5"
   sodipodi:docname="par.svg"
   inkscape:version="1.2.2 (b0a8486541, 2022-12-01)"
   xmlns:inkscape="http://www.inkscape.org/namespaces/inkscape"
   xmlns:sodipodi="http://sodipodi.sourceforge.net/DTD/sodipodi-0.dtd"
   xmlns="http://www.w3.org/2000/svg"
   xmlns:svg="http://www.w3.org/2000/svg">
  <sodipodi:namedview
     id="namedview7"
     pagecolor="#ffffff"
     bordercolor="#666666"
     borderopacity="1.0"
     inkscape:showpageshadow="2"
     inkscape:pageopacity="0.0"
     inkscape:pagecheckerboard="0"
     inkscape:deskcolor="#d1d1d1"
     inkscape:document-units="mm"
     showgrid="false"
     inkscape:zoom="6.5554616"
     inkscape:cx="57.051665"
     inkscape:cy="30.661456"
     inkscape:window-width="2560"
     inkscape:window-height="1372"
     inkscape:window-x="0"
     inkscape:window-y="32"
     inkscape:window-maximized="1"
     inkscape:current-layer="layer1"
     showguides="true" />
  <defs
     id="defs2" />
  <g
     inkscape:label="Layer 1"
     inkscape:groupmode="layer"
     id="layer1"
     transform="translate(-141.25548,-51.258992)">
    <path
       style="fill:#6ae4a3;fill-opacity:1;stroke:#000000;stroke-width:1;stroke-dasharray:none;stroke-opacity:1"
       d="m 148.55403,51.789135 c -0.0634,-0.0041 -0.12687,-0.0031 -0.19032,-0.0031 -0.007,0 -0.0204,-0.0068 -0.0204,0 0,0.0069 0.0153,-0.0015 0.0204,0.0031 0.003,0.0025 -0.006,0.0054 -0.007,0.0092 -0.002,0.01313 -0.002,0.0267 0,0.03976 0.002,0.01381 0.01,0.02633 0.0136,0.03976 0.005,0.01718 0.009,0.03473 0.0136,0.052 0.045,0.161954 0.10443,0.319492 0.14274,0.483259 0.007,0.02954 0.016,0.05868 0.0204,0.0887 0.008,0.0524 0.0248,0.216777 0.0272,0.290567 0.001,0.03566 -7.7e-4,0.07137 0,0.107051 0.002,0.06935 0.005,0.138636 0.007,0.207985 0.003,0.126863 -0.003,0.252252 0.007,0.379266 0.002,0.03084 0.0102,0.06103 0.0136,0.09176 0.0106,0.09549 0.0137,0.191666 0.0204,0.287507 0.009,0.126221 0.0204,0.252611 0.0204,0.379267 0,0.0327 -0.004,0.06525 -0.007,0.09787 -0.0153,0.216627 0.004,-0.0531 -0.0272,0.293625 -0.003,0.03358 -0.003,0.06738 -0.007,0.100934 -0.0109,0.10912 -0.0291,0.184237 -0.0476,0.299742 -0.005,0.03352 -0.009,0.06729 -0.0136,0.100934 -0.007,0.03466 -0.0144,0.06917 -0.0204,0.103993 -0.0122,0.07123 -0.0218,0.142874 -0.034,0.214102 -0.006,0.03482 -0.0145,0.06916 -0.0204,0.103992 -0.005,0.03248 -0.008,0.0654 -0.0136,0.09787 -0.0104,0.06134 -0.0235,0.122194 -0.034,0.183517 -0.0209,0.122332 -0.0383,0.249878 -0.0476,0.373149 -0.004,0.05591 0,0.112148 0,0.168223 0,0.08258 -0.004,0.165243 0,0.247747 0.007,0.164207 0.0136,-0.02323 0.0136,0.226335 0,0.02559 -0.006,0.0509 -0.007,0.07646 -0.003,0.07639 0,0.15293 0,0.229395 0,0.10167 -0.003,0.204354 0,0.305861 0.002,0.05804 0.0103,0.09255 0.0204,0.149871 0.009,0.05199 0.0182,0.103981 0.0272,0.155987 0.005,0.0265 0.0113,0.05273 0.0136,0.07952 0.002,0.02743 0,0.05505 0,0.08258 0,0.05811 -0.001,0.116246 0,0.17434 7.7e-4,0.02964 0.006,0.05907 0.007,0.0887 0.007,0.174741 -0.0139,0.0024 0.007,0.256922 0.002,0.02781 0.009,0.05505 0.0136,0.08258 0.0176,0.107017 0.04,0.213676 0.0544,0.321153 0.0366,0.274498 -0.0436,-0.242192 0.0204,0.211044 0.007,0.05301 0.0366,0.141699 0.0544,0.189632 0.004,0.0096 0.01,0.018 0.0136,0.02753 0.008,0.02075 0.016,0.05142 0.0204,0.07341 8.2e-4,0.004 0,0.0082 0,0.01223 0.002,0.01122 0.004,0.02257 0.007,0.03364 0.008,0.03027 0.0214,0.05725 0.0272,0.0887 0.003,0.01704 0.001,0.0347 0,0.05199 -0.002,0.0345 -0.007,0.09368 -0.0136,0.13152 -0.004,0.02054 -0.009,0.04078 -0.0136,0.06117 -0.009,0.0418 -0.0196,0.0833 -0.0272,0.125403 -0.004,0.02119 -0.004,0.04295 -0.007,0.06423 -0.004,0.02261 -0.0122,0.04445 -0.0136,0.06729 -0.008,0.130669 0.004,0.133565 0,0.241628 -0.001,0.0276 -0.006,0.05497 -0.007,0.08258 -0.002,0.08357 0,0.167203 0,0.250805 0,0.09597 -0.001,0.167541 0.007,0.269156 0.002,0.02781 0.009,0.05505 0.0136,0.08258 0.01,0.0597 0.0365,0.220638 0.0408,0.253863 0.0155,0.120053 -0.004,0.06294 0.0204,0.180457 0.012,0.05745 0.0283,0.113924 0.0408,0.171282 0.006,0.02628 0.008,0.05327 0.0136,0.07952 0.005,0.02479 0.017,0.04824 0.0204,0.07341 0.008,0.0618 0.006,0.124715 0.0136,0.186575 0.004,0.0331 0.0172,0.119879 0.0204,0.140696 0,3e-6 0.0136,0.08564 0.0136,0.08564 0,0.03067 -0.003,0.06129 -0.007,0.09176 -0.002,0.02021 -0.0225,0.07315 -0.0272,0.08258 -0.005,0.01024 -0.0146,0.01767 -0.0204,0.02753 -0.006,0.0096 -0.009,0.02045 -0.0136,0.03059 -0.0136,0.02957 -0.027,0.05922 -0.0408,0.0887 -0.0196,0.04184 -0.0404,0.08434 -0.0544,0.128461 -0.0111,0.03509 -0.0163,0.07189 -0.0272,0.107051 -0.006,0.01869 -0.0139,0.03659 -0.0204,0.05505 -0.007,0.02028 -0.0126,0.04113 -0.0204,0.06117 -0.004,0.0098 -0.0618,0.14471 -0.0748,0.186575 -0.0129,0.04183 -0.0281,0.129682 -0.034,0.162106 -0.005,0.02646 -0.0116,0.0527 -0.0136,0.07952 -0.002,0.02949 -0.003,0.05927 0,0.0887 10e-4,0.01239 0.005,0.02447 0.007,0.0367 0.002,0.02039 0.005,0.04073 0.007,0.06117 0.005,0.06069 -0.006,0.120246 0.007,0.180457 0.007,0.0336 0.0172,0.06676 0.0204,0.100934 0.001,0.01218 -0.001,0.02452 0,0.0367 0.001,0.01239 0.005,0.02433 0.007,0.0367 0.003,0.02948 0.004,0.05922 0.007,0.0887 0.009,0.08325 0.007,-0.0097 0.007,0.07341 0,0.0038 -0.002,0.08254 0,0.08564 0.003,0.0046 0.008,0.0073 0.0136,0.0092 0.0149,0.0054 0.0812,-4.5e-4 0.0952,0 0.0748,0.0024 0.14952,0.0064 0.2243,0.0092 0.0898,0.0034 0.19327,0.0074 0.27869,0.0092 0.1721,0.0035 0.34461,-0.0012 0.51658,-0.0061 0.10649,-0.0031 0.21295,-0.0071 0.31946,-0.0092 0.005,-1.03e-4 0.20129,9.6e-5 0.21072,0 0.0657,-6.62e-4 0.1314,-0.0024 0.19711,-0.0031 0.2334,-0.0023 0.46674,0.002 0.70011,-0.0061 0.0987,-0.0034 0.36901,-0.01837 0.42143,-0.02141 0.0453,-0.0026 0.0906,-0.0072 0.13594,-0.0092 0.19011,-0.0083 0.38072,-0.0049 0.57096,-0.0061 0.10117,-6.61e-4 0.35728,-0.0025 0.48939,-0.0061 0.22667,-0.0062 0.4532,-0.01789 0.67972,-0.02753 0.25596,-0.0109 0.51204,-0.01624 0.76808,-0.02447 0.179,-0.0058 0.35789,-0.01485 0.53697,-0.01835 0.10639,-0.0021 0.21308,0 0.31947,0 0.1314,0 0.26285,-0.0012 0.39423,0 0.16375,0.0015 0.16981,0.0043 0.30587,0.0031 0.16067,-0.0014 0.32197,-0.003 0.4826,-0.0092 0.15179,-0.0059 0.30345,-0.01698 0.45541,-0.01835 0.11781,-0.0011 0.23564,0.0014 0.35345,0 0.23795,-0.0028 0.47579,-0.01389 0.7137,-0.01835 0.23562,-0.0044 0.47126,-0.0031 0.70691,-0.0031 0.11342,0 0.22664,0.0022 0.33986,0.0092 0.0462,-0.0056 0.0905,0.0093 0.13594,0.01224 0.0656,0.0042 0.13161,0.003 0.19712,0.0092 0.0522,0.0049 0.12175,0.01512 0.17672,0.01835 0.0883,0.0052 0.17669,0.0092 0.26509,0.01223 0.0859,0.003 0.17232,0.002 0.25829,0.0031 0.0907,0.0011 0.18124,0.0052 0.27189,0.0061 0.3081,0.0031 0.61632,-0.0036 0.92441,0 0.29689,0.0035 0.59375,0.01991 0.89043,0.03059 0.11322,0.0041 0.22658,0.0074 0.33986,0.0092 0.0317,5.02e-4 0.0634,-10e-4 0.0952,0 0.0181,10e-4 0.0362,0.002 0.0544,0.0031 0.009,0.001 0.0181,0.0025 0.0272,0.0031 0.0181,10e-4 0.0363,-10e-4 0.0544,0 0.009,5.03e-4 0.0181,0.002 0.0272,0.0031 0.0136,0.001 0.0272,0.0025 0.0408,0.0031 0.18106,0.0074 0.36263,0.01406 0.54377,0.01835 0.0249,5.82e-4 0.0498,0 0.0748,0 0.043,10e-4 0.0861,0.0016 0.12915,0.0031 0.14955,0.005 0.29967,0.0076 0.44861,-0.0092 0.0892,-0.01004 0.19388,-0.01624 0.25829,-0.0887 0.0101,-0.01138 0.0179,-0.02463 0.0272,-0.0367 0.0111,-0.01444 0.0268,-0.02606 0.034,-0.04282 0.043,-0.100708 0.0506,-0.218075 0.068,-0.324211 0.004,-0.02258 0.0102,-0.04467 0.0136,-0.06729 0.0181,-0.119385 0.0165,-0.240697 0.0204,-0.360914 0.008,-0.242605 0.007,-0.0469 0.007,-0.201868 0,-0.119577 6.6e-4,-0.132062 -0.007,-0.299742 -0.001,-0.02455 -0.002,-0.04927 -0.007,-0.07341 -0.0261,-0.136828 -0.0727,-0.273899 -0.12234,-0.403736 -0.0163,-0.04256 -0.0396,-0.08229 -0.0544,-0.125402 -0.0155,-0.04528 -0.0304,-0.09093 -0.0408,-0.137637 -0.006,-0.02498 -0.004,-0.05108 -0.007,-0.07646 -0.011,-0.08601 -0.0297,-0.170924 -0.0408,-0.256922 -0.004,-0.02941 -0.003,-0.05924 -0.007,-0.0887 -0.002,-0.01458 -0.0247,-0.158385 -0.0272,-0.17434 -0.009,-0.05709 -0.0164,-0.114487 -0.0272,-0.171282 -0.005,-0.02689 -0.0152,-0.05266 -0.0204,-0.07952 -0.0106,-0.05477 -0.0181,-0.11011 -0.0272,-0.165164 -0.003,-0.01852 -0.025,-0.150957 -0.0272,-0.168224 -0.007,-0.0587 -0.0245,-0.202595 -0.0272,-0.278332 -0.001,-0.03158 8e-4,-0.06322 0,-0.09482 -0.001,-0.05814 -0.005,-0.116203 -0.007,-0.174341 -7.4e-4,-0.02752 0.001,-0.05508 0,-0.08258 -0.004,-0.08763 -0.0195,-0.156778 -0.034,-0.247747 -0.0548,-0.344959 0.025,0.166113 -0.0204,-0.177398 -0.007,-0.05631 -0.0196,-0.111936 -0.0272,-0.168223 -0.004,-0.02737 -0.003,-0.05516 -0.007,-0.08258 -0.0316,-0.260614 0.007,0.179937 -0.0272,-0.25998 -2.9e-4,-0.0037 -0.0129,-0.174917 -0.0136,-0.180458 -0.0138,-0.105178 -0.0312,-0.216702 -0.0544,-0.321153 -0.0105,-0.0471 -0.0248,-0.09332 -0.034,-0.140695 -0.004,-0.02313 -0.003,-0.04703 -0.007,-0.07035 -0.003,-0.02363 -0.01,-0.04674 -0.0136,-0.07035 -0.008,-0.04983 -0.0129,-0.100013 -0.0204,-0.149871 -0.0162,-0.10786 -0.0409,-0.214075 -0.0612,-0.321153 -0.0218,-0.115143 -0.0362,-0.233076 -0.0544,-0.348679 -0.0183,-0.116455 -0.0357,-0.231074 -0.0476,-0.348681 -0.0119,-0.117786 -0.016,-0.234175 -0.034,-0.351739 -0.0423,-0.276145 -6.7e-4,0.0954 -0.034,-0.186575 -0.008,-0.06414 -0.0143,-0.128395 -0.0204,-0.192691 -5.6e-4,-0.0057 -0.0126,-0.172994 -0.0136,-0.180457 -0.007,-0.05732 -0.0195,-0.113984 -0.0272,-0.171282 -0.004,-0.02738 -0.003,-0.05517 -0.007,-0.08258 -0.003,-0.02769 -0.01,-0.05496 -0.0136,-0.08258 -0.007,-0.05192 -0.0126,-0.104132 -0.0204,-0.155989 -0.006,-0.03714 -0.0207,-0.10028 -0.0272,-0.137636 -0.007,-0.04282 -0.0136,-0.08564 -0.0204,-0.128462 -0.005,-0.01937 -0.0101,-0.03853 -0.0136,-0.05811 -0.003,-0.0182 -0.004,-0.03685 -0.007,-0.05506 -0.0153,-0.08626 -0.0368,-0.172844 -0.0476,-0.25998 -10e-4,-0.01113 0,-0.02243 0,-0.03365 0,-0.04334 0.004,-0.08828 0,-0.131518 -10e-4,-0.01742 -0.005,-0.03457 -0.007,-0.052 -0.002,-0.02236 0,-0.04486 0,-0.06729 0,-0.0367 -0.003,-0.07355 0,-0.110109 10e-4,-0.01239 0.005,-0.02434 0.007,-0.0367 0.002,-0.02651 0.005,-0.05302 0.007,-0.07952 0,-0.01427 -0.001,-0.0286 0,-0.04282 0.001,-0.0134 0.005,-0.0264 0.007,-0.03976 0.0151,-0.04018 0.003,-0.08165 0.007,-0.122344 0.001,-0.0134 0.005,-0.02647 0.007,-0.03976 0.01,-0.06411 0.0221,-0.130793 0.0272,-0.19575 0.003,-0.0397 0.004,-0.07957 0.007,-0.119285 0.005,-0.07083 0.0201,-0.140489 0.0272,-0.211043 0.003,-0.02637 -0.002,-0.05307 0,-0.07952 0.001,-0.02351 0.005,-0.04684 0.007,-0.07035 6.8e-4,-0.01017 -0.001,-0.02046 0,-0.03059 0.001,-0.0094 0.005,-0.01818 0.007,-0.02753 0.003,-0.02028 0.004,-0.04086 0.007,-0.06117 0.003,-0.02166 0.0108,-0.04253 0.0136,-0.06423 0.006,-0.04859 0.009,-0.09328 0.0204,-0.140695 0.0123,-0.05169 0.0311,-0.10376 0.0408,-0.15599 0.001,-0.007 -0.001,-0.01436 0,-0.02141 0.001,-0.0074 0.005,-0.01404 0.007,-0.02141 0.007,-0.04076 0.007,-0.07842 0.007,-0.119286 0,-0.05607 0,-0.112148 0,-0.168222 0,-0.04384 0.004,-0.08784 0,-0.13152 -0.001,-0.0124 -0.005,-0.02437 -0.007,-0.0367 -0.003,-0.02235 -0.002,-0.04519 -0.007,-0.06729 -0.008,-0.0381 -0.0499,-0.107762 -0.068,-0.134578 -0.008,-0.01196 -0.0189,-0.02187 -0.0272,-0.03364 -0.008,-0.01071 -0.0113,-0.0242 -0.0204,-0.03364 -0.0325,-0.03371 -0.10177,-0.08856 -0.14274,-0.11928 -0.0524,-0.03932 -0.10111,-0.08101 -0.16313,-0.103993 -0.10231,-0.03791 -0.0417,-0.01549 -0.10876,-0.03059 -0.0902,-0.0203 -0.17976,-0.037 -0.27188,-0.04588 -0.043,-0.0042 -0.0862,-0.0076 -0.12915,-0.01223 -0.0227,-0.0025 -0.0452,-0.0071 -0.068,-0.0092 -0.0226,-0.002 -0.0453,-0.0015 -0.068,-0.0031 -0.16346,-0.01149 -0.32567,-0.03078 -0.4894,-0.03976 -0.14884,-0.0082 -0.29992,-0.008 -0.44861,-0.0092 -0.24915,-0.002 -0.49855,-0.0022 -0.74769,0 -0.28102,0.0024 -0.56192,0.01408 -0.84284,0.02141 -0.23108,0.006 -0.46227,0.008 -0.69331,0.01529 -0.0748,0.0024 -0.14951,0.0087 -0.22431,0.01223 -0.0747,0.0036 -0.14962,0.0045 -0.2243,0.0092 -0.0853,0.0054 -0.52298,0.03789 -0.67972,0.052 -0.0726,0.0065 -0.14494,0.01502 -0.21751,0.02141 -0.13588,0.01196 -0.27191,0.02209 -0.40783,0.03364 -0.068,0.0058 -0.13583,0.01368 -0.20391,0.01835 -0.0656,0.0045 -0.13145,0.0054 -0.19712,0.0092 -0.98082,0.0558 -0.0183,0.0073 -0.57776,0.03059 -0.17676,0.0074 -0.35347,0.01587 -0.53018,0.02447 -0.0521,0.0025 -0.10417,0.007 -0.15633,0.0092 -0.18111,0.0074 -0.36257,0.0069 -0.54377,0.0092 -0.11332,0.0014 -0.22655,0.0071 -0.33986,0.0092 -0.14478,0.0027 -0.29029,0 -0.43502,0 -0.27873,0 -0.55747,-0.0046 -0.83605,-0.01223 -0.1065,-0.0029 -0.21294,-0.0098 -0.31946,-0.01223 -0.12693,-0.0029 -0.25377,-0.0043 -0.38064,-0.0092 -0.10904,7.73e-4 -0.21748,-0.01084 -0.32627,-0.01529 -0.11549,-0.0047 -0.23112,-0.0053 -0.34665,-0.0092 -0.14216,-0.0048 -0.29293,-0.01168 -0.43502,-0.02141 -0.13177,-0.009 -0.26337,-0.026 -0.39423,-0.04282 -4e-5,-4e-6 -0.1767,-0.02446 -0.17673,-0.02447 -0.13114,-0.01349 -0.26303,-0.02081 -0.39423,-0.03364 -0.0318,-0.0031 -0.0634,-0.0088 -0.0952,-0.01223 -0.0882,-0.0094 -0.17664,-0.01267 -0.26509,-0.01835 -0.018,-0.0012 -0.0465,-0.0096 -0.0612,-0.01223 -0.0367,-0.0066 -0.0718,-0.0036 -0.10875,-0.0061 -0.0115,-7.93e-4 -0.0226,-0.0046 -0.034,-0.0061 -0.0384,-0.0052 -0.077,-0.01034 -0.11555,-0.01529 -0.0547,-0.007 -0.11633,-0.01413 -0.16993,-0.02447 -0.007,-0.0013 -0.0134,-0.0049 -0.0204,-0.0061 -0.0361,-0.0065 -0.0727,-0.0064 -0.10875,-0.01223 -0.055,-0.0088 -0.10824,-0.02235 -0.16313,-0.03059 -0.0972,-0.01458 -0.19652,-0.02127 -0.29228,-0.04282 -0.0577,-0.01298 -0.11825,-0.0065 -0.17673,-0.0092 -0.0479,-0.0022 -0.095,-0.01261 -0.14274,-0.01529 -0.0307,-0.0017 -0.0653,-2.29e-4 -0.0952,-0.0092 -0.007,-0.0021 -0.0132,-0.007 -0.0204,-0.0092 -0.007,-0.002 -0.0159,0.0021 -0.0204,-0.0031 -0.0217,-0.02483 -0.0256,-0.06642 -0.0544,-0.08258 -0.0401,-0.02257 -0.0906,-0.01631 -0.13594,-0.02447"
       id="path19551" />
    <text
       xml:space="preserve"
       style="font-style:normal;font-weight:normal;font-size:10.5833px;line-height:1.25;font-family:sans-serif;fill:#000000;fill-opacity:1;stroke:none;stroke-width:0.264583"
       x="153.03838"
       y="58.488964"
       id="text19657"><tspan
         sodipodi:role="line"
         id="tspan19655"
         style="stroke-width:0.264583"
         x="153.03838"
         y="58.488964" /></text>
    <path
       style="fill:none;fill-opacity:1;stroke:#000000;stroke-width:1;stroke-linecap:round;stroke-linejoin:round;stroke-dasharray:none;stroke-opacity:1"
       d="m 153.74772,61.234424 c -0.0208,0.01226 -0.0426,0.02304 -0.0625,0.03677 -0.008,0.0057 -0.0319,0.0433 -0.0336,0.05407 -0.003,0.01637 0,0.03316 0,0.04974 0,0.02019 0,0.04037 0,0.06056 0,0.0022 0.002,0.007 0,0.0065 -0.0131,-0.0029 -0.009,-0.0079 -0.01,-0.01514 -0.003,-0.02239 -0.007,-0.0446 -0.01,-0.06705 -0.002,-0.02179 -0.009,-0.130448 -0.01,-0.147068 -0.003,-0.05911 -0.007,-0.118182 -0.01,-0.177346 -0.002,-0.06093 0.004,-0.120892 -0.005,-0.181671 -0.0292,-0.205667 -0.0317,-0.150801 -0.0865,-0.350366 -0.0612,-0.222845 -0.0315,-0.134043 -0.0721,-0.304949 -0.009,-0.03765 -0.0203,-0.07472 -0.0288,-0.112463 -0.0451,-0.199336 -0.0399,-0.181864 -0.0673,-0.337389 -0.0227,-0.129072 -0.0424,-0.259641 -0.0817,-0.384972 -0.009,-0.0277 -0.0196,-0.05465 -0.0288,-0.08218 -0.018,-0.05393 -0.0337,-0.108652 -0.0529,-0.162207 -0.01,-0.02725 -0.0237,-0.05285 -0.0336,-0.08002 -0.0109,-0.02983 -0.0188,-0.06071 -0.0288,-0.09083 -0.0729,-0.217822 -0.0668,-0.175359 -0.11054,-0.352529 -0.0327,-0.132507 -0.0405,-0.184192 -0.0673,-0.333064 -0.005,-0.02877 -0.009,-0.05787 -0.0144,-0.08651 -0.0228,-0.11146 -0.0295,-0.09097 -0.0721,-0.231415 -0.008,-0.0276 -0.0124,-0.05633 -0.0192,-0.08435 -0.0364,-0.149238 -0.0343,-0.106801 -0.0721,-0.320088 0,-5e-6 -0.0288,-0.250875 -0.0288,-0.25088 -0.004,-0.09507 0,-0.190323 0,-0.285484 0,-0.02235 0.001,-0.04473 0,-0.06705 -0.003,-0.06139 -0.008,-0.122709 -0.0144,-0.183834 -0.003,-0.02458 -0.007,-0.04893 -0.01,-0.07353 -0.006,-0.05688 -0.009,-0.113946 -0.0144,-0.170857 -0.003,-0.0296 -0.008,-0.05899 -0.01,-0.08867 -0.002,-0.02735 6.1e-4,-0.0548 0,-0.08218 -0.003,-0.120997 -0.008,-0.242244 -0.005,-0.363343 5.3e-4,-0.01809 0.003,-0.03605 0.005,-0.05407 0.002,-0.01802 0.002,-0.03614 0.005,-0.05407 0.004,-0.02896 0.0109,-0.05749 0.0144,-0.08651 0.001,-0.01073 -9.5e-4,-0.02167 0,-0.03244 0.001,-0.01471 0.005,-0.02928 0.01,-0.04326 8.7e-4,-0.0025 0.004,-0.004 0.005,-0.0065 0.004,-0.01123 -0.003,-0.01935 0.005,-0.03677 0.01,-0.02018 0.0192,-0.04037 0.0288,-0.06056 0.005,-0.0137 0.009,-0.02775 0.0144,-0.04109 0.0119,-0.0278 0.0284,-0.05364 0.0385,-0.08218 0.005,-0.01301 0.002,-0.0276 0.005,-0.04109 0.004,-0.01689 0.01,-0.03311 0.0144,-0.04974 0.0162,-0.05834 0.0327,-0.1166 0.0481,-0.175183 0.005,-0.02075 0.012,-0.0414 0.0144,-0.06272 0.002,-0.02149 -5.3e-4,-0.04326 0,-0.06488 0.005,-0.218422 0.005,-0.0598 0.005,-0.177346 0,-0.02018 0.003,-0.04056 0,-0.06056 -4.5e-4,-0.0033 -0.004,-0.0055 -0.005,-0.0087 -6.6e-4,-0.0021 0.002,-0.0065 0,-0.0065 -0.003,0 -0.007,0.0061 -0.005,0.0065 0.035,0.0045 0.0705,0.005 0.10574,0.0065 0.0296,0.0012 0.23779,0.0044 0.24512,0.0043 0.12391,-0.002 0.44005,-0.01192 0.59599,-0.01947 0.0769,-0.0037 0.15377,-0.0092 0.2307,-0.01298 0.50593,-0.02495 1.01244,-0.04259 1.5188,-0.05623 0.0922,-0.0025 0.40212,-0.0065 0.49985,-0.0065 0.34107,0 0.68288,0.0016 1.02375,0.01514 0.0369,0.0015 0.0737,0.0045 0.11054,0.0065 0.0669,0.0037 0.19053,0.0088 0.24512,0.01298 0.0226,0.0017 0.0448,0.0063 0.0673,0.0087 0.0256,0.0027 0.0513,0.004 0.0769,0.0065 0.0561,0.0054 0.11204,0.01279 0.16822,0.0173 0.0336,0.0027 0.0673,0.0025 0.10094,0.0043 0.11056,0.0061 0.22106,0.01345 0.33163,0.01947 0.0673,0.0037 0.13457,0.0061 0.20187,0.0086 0.0433,0.0017 0.0865,0.0032 0.12977,0.0043 0.0112,2.91e-4 0.0224,0 0.0336,0 0.0186,0 0.0367,3.97e-4 0.0433,-0.02163 0.002,-0.0055 0,-0.01154 0,-0.0173"
       id="path20494" />
    <path
       style="fill:#6ae4a3;fill-opacity:1;stroke:#000000;stroke-width:1;stroke-linecap:round;stroke-linejoin:round;stroke-dasharray:none;stroke-opacity:1"
       d="m 153.17577,58.310379 c 0.45331,0.01556 0.90904,-0.02447 1.36019,-0.05623 0.48873,-0.0344 0.78941,-0.05873 1.25445,-0.110301 0.16839,-0.01867 0.33636,-0.04103 0.50466,-0.06056 0.0368,-0.0043 0.0737,-0.007 0.11055,-0.01081 0.007,-7.67e-4 0.0221,-0.0058 0.0288,0.0022 0.0137,0.01598 0.01,0.03778 0.01,0.05623"
       id="path20496" />
    <path
       style="fill:#6ae4a3;fill-opacity:1;stroke:#000000;stroke-width:1;stroke-linecap:round;stroke-linejoin:round;stroke-dasharray:none;stroke-opacity:1"
       d="m 148.46415,58.278708 c -0.0449,0.0043 -0.0896,0.01034 -0.13458,0.01298 -0.0704,0.0041 -0.14098,0 -0.21147,0 -0.0833,0 -0.16662,0 -0.24993,0 -0.24032,0 -0.48063,0 -0.72095,0 -0.18915,0 -0.37808,0.0052 -0.56714,0.0086 -0.1986,0.0036 -0.39737,-0.0019 -0.59599,0 -0.50874,0.005 -0.12374,0.0043 -0.43257,0.0043 -0.14752,0 -0.2948,-0.0059 -0.44218,-0.0087 -0.10559,-0.002 -0.21157,0 -0.31721,0 -0.1343,0 -0.26934,-0.0021 -0.40373,0 -0.11904,0.0019 -0.23687,0.0093 -0.35567,0.01298 -0.2179,0.0068 -0.43581,0.0124 -0.65366,0.0173 -0.14739,0.0033 -0.29468,0.0043 -0.44218,0.0043 -0.13137,0 -0.26281,-0.0041 -0.39412,0 -0.0481,0.0015 -0.0961,0.0063 -0.14419,0.0086 -0.0416,0.002 -0.0834,0.0015 -0.12496,0.0043 -0.11219,0.0076 -0.22436,0.02083 -0.33644,0.03028 -0.0515,0.0043 -0.10261,0.01072 -0.1538,0.0173 -0.01,0.0012 -0.0378,6.09e-4 -0.0288,0.0043 0.0464,0.01913 0.0961,0.02884 0.14419,0.04326"
       id="path21961" />
    <path
       style="fill:#6ae4a3;fill-opacity:1;stroke:#000000;stroke-width:1;stroke-linecap:round;stroke-linejoin:round;stroke-dasharray:none;stroke-opacity:1"
       d="m 163.75784,58.32629 c 0.15082,0.01159 0.30181,-0.0021 0.45179,-0.0173 0.42262,-0.04294 0.84585,-0.07801 1.26887,-0.11679 0.0545,-0.005 0.10882,-0.01284 0.16341,-0.0173 0.0512,-0.0042 0.10263,-0.0045 0.1538,-0.0086 0.13475,-0.01103 0.26887,-0.02935 0.40374,-0.03893 0.0768,-0.0055 0.15384,-0.0079 0.2307,-0.01298 0.16909,-0.01119 0.0231,-0.0075 0.19225,-0.01298 0.29795,-0.0096 0.59586,-0.0087 0.89397,-0.0087 0.23698,0 0.4744,-0.0036 0.71134,0 0.10275,-0.0046 0.20505,0.0066 0.3076,0.0087 0.33616,0.0066 0.67306,0 1.00933,0"
       id="path21963" />
    <path
       style="fill:#6ae4a3;fill-opacity:1;stroke:#000000;stroke-width:1;stroke-dasharray:none;stroke-opacity:1"
       d="m 148.97159,66.192399 c -0.0634,-0.0041 -0.12687,-0.0031 -0.19032,-0.0031 -0.007,0 -0.0204,-0.0068 -0.0204,0 0,0.0069 0.0153,-0.0015 0.0204,0.0031 0.003,0.0025 -0.006,0.0054 -0.007,0.0092 -0.002,0.01313 -0.002,0.0267 0,0.03976 0.002,0.01381 0.01,0.02633 0.0136,0.03976 0.005,0.01718 0.009,0.03473 0.0136,0.052 0.045,0.161954 0.10443,0.319492 0.14274,0.483259 0.007,0.02954 0.016,0.05868 0.0204,0.0887 0.008,0.0524 0.0248,0.216777 0.0272,0.290567 0.001,0.03566 -7.7e-4,0.07137 0,0.107051 0.002,0.06935 0.005,0.138636 0.007,0.207985 0.003,0.126863 -0.003,0.252252 0.007,0.379266 0.002,0.03084 0.0102,0.06103 0.0136,0.09176 0.0106,0.09549 0.0137,0.191666 0.0204,0.287507 0.009,0.126221 0.0204,0.252611 0.0204,0.379267 0,0.0327 -0.004,0.06525 -0.007,0.09787 -0.0153,0.216627 0.004,-0.0531 -0.0272,0.293625 -0.003,0.03358 -0.003,0.06738 -0.007,0.100934 -0.0109,0.10912 -0.0291,0.184237 -0.0476,0.299742 -0.005,0.03352 -0.009,0.06729 -0.0136,0.100934 -0.007,0.03466 -0.0144,0.06917 -0.0204,0.103993 -0.0122,0.07123 -0.0218,0.142874 -0.034,0.214102 -0.006,0.03482 -0.0145,0.06916 -0.0204,0.103992 -0.005,0.03248 -0.008,0.0654 -0.0136,0.09787 -0.0104,0.06134 -0.0235,0.122194 -0.034,0.183517 -0.0209,0.122332 -0.0383,0.249878 -0.0476,0.373149 -0.004,0.05591 0,0.112148 0,0.168223 0,0.08258 -0.004,0.165243 0,0.247747 0.007,0.164207 0.0136,-0.02323 0.0136,0.226335 0,0.02559 -0.006,0.0509 -0.007,0.07646 -0.003,0.07639 0,0.15293 0,0.229395 0,0.10167 -0.003,0.204354 0,0.305861 0.002,0.05804 0.0103,0.09255 0.0204,0.149871 0.009,0.05199 0.0182,0.103981 0.0272,0.155987 0.005,0.0265 0.0113,0.05273 0.0136,0.07952 0.002,0.02743 0,0.05505 0,0.08258 0,0.05811 -0.001,0.116246 0,0.17434 7.7e-4,0.02964 0.006,0.05907 0.007,0.0887 0.007,0.174741 -0.0139,0.0024 0.007,0.256922 0.002,0.02781 0.009,0.05505 0.0136,0.08258 0.0176,0.107017 0.04,0.213676 0.0544,0.321153 0.0366,0.274498 -0.0436,-0.242192 0.0204,0.211044 0.007,0.05301 0.0366,0.141699 0.0544,0.189632 0.004,0.0096 0.01,0.018 0.0136,0.02753 0.008,0.02075 0.016,0.05142 0.0204,0.07341 8.2e-4,0.004 0,0.0082 0,0.01223 0.002,0.01122 0.004,0.02257 0.007,0.03364 0.008,0.03027 0.0214,0.05725 0.0272,0.0887 0.003,0.01704 0.001,0.0347 0,0.05199 -0.002,0.0345 -0.007,0.09368 -0.0136,0.13152 -0.004,0.02054 -0.009,0.04078 -0.0136,0.06117 -0.009,0.0418 -0.0196,0.0833 -0.0272,0.125403 -0.004,0.02119 -0.004,0.04295 -0.007,0.06423 -0.004,0.02261 -0.0122,0.04445 -0.0136,0.06729 -0.008,0.130669 0.004,0.133565 0,0.241628 -10e-4,0.0276 -0.006,0.05497 -0.007,0.08258 -0.002,0.08357 0,0.167203 0,0.250805 0,0.09597 -0.001,0.167541 0.007,0.269156 0.002,0.02781 0.009,0.05505 0.0136,0.08258 0.01,0.0597 0.0365,0.220638 0.0408,0.253863 0.0155,0.120053 -0.004,0.06294 0.0204,0.180457 0.012,0.05745 0.0283,0.113924 0.0408,0.171282 0.006,0.02628 0.008,0.05327 0.0136,0.07952 0.005,0.02479 0.017,0.04824 0.0204,0.07341 0.008,0.0618 0.006,0.124715 0.0136,0.186575 0.004,0.0331 0.0172,0.119879 0.0204,0.140696 0,3e-6 0.0136,0.08564 0.0136,0.08564 0,0.03067 -0.003,0.06129 -0.007,0.09176 -0.002,0.02021 -0.0225,0.07315 -0.0272,0.08258 -0.005,0.01024 -0.0146,0.01767 -0.0204,0.02753 -0.006,0.0096 -0.009,0.02045 -0.0136,0.03059 -0.0136,0.02957 -0.027,0.05922 -0.0408,0.0887 -0.0196,0.04184 -0.0404,0.08434 -0.0544,0.128461 -0.0111,0.03509 -0.0163,0.07189 -0.0272,0.107051 -0.006,0.01869 -0.0139,0.03659 -0.0204,0.05505 -0.007,0.02028 -0.0126,0.04113 -0.0204,0.06117 -0.004,0.0098 -0.0618,0.14471 -0.0748,0.186575 -0.0129,0.04183 -0.0281,0.129682 -0.034,0.162106 -0.005,0.02646 -0.0116,0.0527 -0.0136,0.07952 -0.002,0.02949 -0.003,0.05927 0,0.0887 0.001,0.01239 0.005,0.02447 0.007,0.0367 0.002,0.02039 0.005,0.04073 0.007,0.06117 0.005,0.06069 -0.006,0.120246 0.007,0.180457 0.007,0.0336 0.0172,0.06676 0.0204,0.100934 0.001,0.01218 -0.001,0.02452 0,0.0367 0.001,0.01239 0.005,0.02433 0.007,0.0367 0.003,0.02948 0.004,0.05922 0.007,0.0887 0.009,0.08325 0.007,-0.0097 0.007,0.07341 0,0.0038 -0.002,0.08254 0,0.08564 0.003,0.0046 0.008,0.0073 0.0136,0.0092 0.0149,0.0054 0.0812,-4.5e-4 0.0952,0 0.0748,0.0024 0.14952,0.0064 0.2243,0.0092 0.0898,0.0034 0.19327,0.0074 0.27869,0.0092 0.1721,0.0035 0.34461,-0.0012 0.51658,-0.0061 0.10649,-0.0031 0.21295,-0.0071 0.31946,-0.0092 0.005,-1.03e-4 0.20129,9.6e-5 0.21072,0 0.0657,-6.62e-4 0.1314,-0.0024 0.19711,-0.0031 0.2334,-0.0023 0.46674,0.002 0.70011,-0.0061 0.0987,-0.0034 0.36901,-0.01837 0.42143,-0.02141 0.0453,-0.0026 0.0906,-0.0072 0.13594,-0.0092 0.19011,-0.0083 0.38072,-0.0049 0.57096,-0.0061 0.10117,-6.61e-4 0.35728,-0.0025 0.48939,-0.0061 0.22667,-0.0062 0.4532,-0.01789 0.67972,-0.02753 0.25596,-0.0109 0.51204,-0.01624 0.76808,-0.02447 0.179,-0.0058 0.35789,-0.01485 0.53697,-0.01835 0.10639,-0.0021 0.21308,0 0.31947,0 0.1314,0 0.26285,-0.0012 0.39423,0 0.16375,0.0015 0.16981,0.0043 0.30587,0.0031 0.16067,-0.0014 0.32197,-0.003 0.4826,-0.0092 0.15179,-0.0059 0.30345,-0.01698 0.45541,-0.01835 0.11781,-0.0011 0.23564,0.0014 0.35345,0 0.23795,-0.0028 0.47579,-0.01389 0.7137,-0.01835 0.23562,-0.0044 0.47126,-0.0031 0.70691,-0.0031 0.11342,0 0.22664,0.0022 0.33986,0.0092 0.0462,-0.0056 0.0905,0.0093 0.13594,0.01224 0.0656,0.0042 0.13161,0.003 0.19712,0.0092 0.0522,0.0049 0.12175,0.01512 0.17672,0.01835 0.0883,0.0052 0.17669,0.0092 0.26509,0.01223 0.0859,0.003 0.17232,0.002 0.25829,0.0031 0.0907,0.0011 0.18124,0.0052 0.27189,0.0061 0.3081,0.0031 0.61632,-0.0036 0.92441,0 0.29689,0.0035 0.59375,0.01991 0.89043,0.03059 0.11322,0.0041 0.22658,0.0074 0.33986,0.0092 0.0317,5.02e-4 0.0634,-0.001 0.0952,0 0.0181,0.001 0.0362,0.002 0.0544,0.0031 0.009,10e-4 0.0181,0.0025 0.0272,0.0031 0.0181,0.001 0.0363,-10e-4 0.0544,0 0.009,5.03e-4 0.0181,0.002 0.0272,0.0031 0.0136,0.001 0.0272,0.0025 0.0408,0.0031 0.18106,0.0074 0.36263,0.01406 0.54377,0.01835 0.0249,5.82e-4 0.0498,0 0.0748,0 0.043,0.001 0.0861,0.0016 0.12915,0.0031 0.14955,0.005 0.29967,0.0076 0.44861,-0.0092 0.0892,-0.01004 0.19388,-0.01624 0.25829,-0.0887 0.0101,-0.01138 0.0179,-0.02463 0.0272,-0.0367 0.0111,-0.01444 0.0268,-0.02606 0.034,-0.04282 0.043,-0.100708 0.0506,-0.218075 0.068,-0.324211 0.004,-0.02258 0.0102,-0.04467 0.0136,-0.06729 0.0181,-0.119385 0.0165,-0.240697 0.0204,-0.360914 0.008,-0.242605 0.007,-0.0469 0.007,-0.201868 0,-0.119577 6.6e-4,-0.132062 -0.007,-0.299742 -0.001,-0.02455 -0.002,-0.04927 -0.007,-0.07341 -0.0261,-0.136828 -0.0727,-0.273899 -0.12234,-0.403736 -0.0163,-0.04256 -0.0396,-0.08229 -0.0544,-0.125402 -0.0155,-0.04528 -0.0304,-0.09093 -0.0408,-0.137637 -0.006,-0.02498 -0.004,-0.05108 -0.007,-0.07646 -0.011,-0.08601 -0.0297,-0.170924 -0.0408,-0.256922 -0.004,-0.02941 -0.003,-0.05924 -0.007,-0.0887 -0.002,-0.01458 -0.0247,-0.158385 -0.0272,-0.17434 -0.009,-0.05709 -0.0164,-0.114487 -0.0272,-0.171282 -0.005,-0.02689 -0.0152,-0.05266 -0.0204,-0.07952 -0.0106,-0.05477 -0.0181,-0.11011 -0.0272,-0.165164 -0.003,-0.01852 -0.025,-0.150957 -0.0272,-0.168224 -0.007,-0.0587 -0.0245,-0.202595 -0.0272,-0.278332 -0.001,-0.03158 8e-4,-0.06322 0,-0.09482 -0.001,-0.05814 -0.005,-0.116203 -0.007,-0.174341 -7.4e-4,-0.02752 0.001,-0.05508 0,-0.08258 -0.004,-0.08763 -0.0195,-0.156778 -0.034,-0.247747 -0.0548,-0.344959 0.025,0.166113 -0.0204,-0.177398 -0.007,-0.05631 -0.0196,-0.111936 -0.0272,-0.168223 -0.004,-0.02737 -0.003,-0.05516 -0.007,-0.08258 -0.0316,-0.260614 0.007,0.179937 -0.0272,-0.25998 -2.9e-4,-0.0037 -0.0129,-0.174917 -0.0136,-0.180458 -0.0138,-0.105178 -0.0312,-0.216702 -0.0544,-0.321153 -0.0105,-0.0471 -0.0248,-0.09332 -0.034,-0.140695 -0.004,-0.02313 -0.003,-0.04703 -0.007,-0.07035 -0.003,-0.02363 -0.01,-0.04674 -0.0136,-0.07035 -0.008,-0.04983 -0.0129,-0.100013 -0.0204,-0.149871 -0.0162,-0.10786 -0.0409,-0.214075 -0.0612,-0.321153 -0.0218,-0.115143 -0.0362,-0.233076 -0.0544,-0.348679 -0.0183,-0.116455 -0.0357,-0.231074 -0.0476,-0.348681 -0.0119,-0.117786 -0.016,-0.234175 -0.034,-0.351739 -0.0423,-0.276145 -6.7e-4,0.0954 -0.034,-0.186575 -0.008,-0.06414 -0.0143,-0.128395 -0.0204,-0.192691 -5.6e-4,-0.0057 -0.0126,-0.172994 -0.0136,-0.180457 -0.007,-0.05732 -0.0195,-0.113984 -0.0272,-0.171282 -0.004,-0.02738 -0.003,-0.05517 -0.007,-0.08258 -0.003,-0.02769 -0.01,-0.05496 -0.0136,-0.08258 -0.007,-0.05192 -0.0126,-0.104132 -0.0204,-0.155989 -0.006,-0.03714 -0.0207,-0.10028 -0.0272,-0.137636 -0.007,-0.04282 -0.0136,-0.08564 -0.0204,-0.128462 -0.005,-0.01937 -0.0101,-0.03853 -0.0136,-0.05811 -0.003,-0.0182 -0.004,-0.03685 -0.007,-0.05506 -0.0153,-0.08626 -0.0368,-0.172844 -0.0476,-0.25998 -0.001,-0.01113 0,-0.02243 0,-0.03365 0,-0.04334 0.004,-0.08828 0,-0.131518 -0.001,-0.01742 -0.005,-0.03457 -0.007,-0.052 -0.002,-0.02236 0,-0.04486 0,-0.06729 0,-0.0367 -0.003,-0.07355 0,-0.110109 0.001,-0.01239 0.005,-0.02434 0.007,-0.0367 0.002,-0.02651 0.005,-0.05302 0.007,-0.07952 0,-0.01427 -0.001,-0.0286 0,-0.04282 0.001,-0.0134 0.005,-0.0264 0.007,-0.03976 0.0151,-0.04018 0.003,-0.08165 0.007,-0.122344 10e-4,-0.0134 0.005,-0.02647 0.007,-0.03976 0.01,-0.06411 0.0221,-0.130793 0.0272,-0.19575 0.003,-0.0397 0.004,-0.07957 0.007,-0.119285 0.005,-0.07083 0.0201,-0.140489 0.0272,-0.211043 0.003,-0.02637 -0.002,-0.05307 0,-0.07952 0.001,-0.02351 0.005,-0.04684 0.007,-0.07035 6.8e-4,-0.01017 -0.001,-0.02046 0,-0.03059 10e-4,-0.0094 0.005,-0.01818 0.007,-0.02753 0.003,-0.02028 0.004,-0.04086 0.007,-0.06117 0.003,-0.02166 0.0108,-0.04253 0.0136,-0.06423 0.006,-0.04859 0.009,-0.09328 0.0204,-0.140695 0.0123,-0.05169 0.0311,-0.10376 0.0408,-0.15599 0.001,-0.007 -0.001,-0.01436 0,-0.02141 0.001,-0.0074 0.005,-0.01404 0.007,-0.02141 0.007,-0.04076 0.007,-0.07842 0.007,-0.119286 0,-0.05607 0,-0.112148 0,-0.168222 0,-0.04384 0.004,-0.08784 0,-0.13152 -10e-4,-0.0124 -0.005,-0.02437 -0.007,-0.0367 -0.003,-0.02235 -0.002,-0.04519 -0.007,-0.06729 -0.008,-0.0381 -0.0499,-0.107762 -0.068,-0.134578 -0.008,-0.01196 -0.0189,-0.02187 -0.0272,-0.03364 -0.008,-0.01071 -0.0113,-0.0242 -0.0204,-0.03364 -0.0325,-0.03371 -0.10177,-0.08856 -0.14274,-0.11928 -0.0524,-0.03932 -0.10111,-0.08101 -0.16313,-0.103993 -0.10231,-0.03791 -0.0417,-0.01549 -0.10876,-0.03059 -0.0902,-0.0203 -0.17976,-0.037 -0.27188,-0.04588 -0.043,-0.0042 -0.0862,-0.0076 -0.12915,-0.01223 -0.0227,-0.0025 -0.0452,-0.0071 -0.068,-0.0092 -0.0226,-0.002 -0.0453,-0.0015 -0.068,-0.0031 -0.16346,-0.01149 -0.32567,-0.03078 -0.4894,-0.03976 -0.14884,-0.0082 -0.29992,-0.008 -0.44861,-0.0092 -0.24915,-0.002 -0.49855,-0.0022 -0.74769,0 -0.28102,0.0024 -0.56192,0.01408 -0.84284,0.02141 -0.23108,0.006 -0.46227,0.008 -0.69331,0.01529 -0.0748,0.0024 -0.14951,0.0087 -0.22431,0.01223 -0.0747,0.0036 -0.14962,0.0045 -0.2243,0.0092 -0.0853,0.0054 -0.52298,0.03789 -0.67972,0.052 -0.0726,0.0065 -0.14494,0.01502 -0.21751,0.02141 -0.13588,0.01196 -0.27191,0.02209 -0.40783,0.03364 -0.068,0.0058 -0.13583,0.01368 -0.20391,0.01835 -0.0656,0.0045 -0.13145,0.0054 -0.19712,0.0092 -0.98082,0.0558 -0.0183,0.0073 -0.57776,0.03059 -0.17676,0.0074 -0.35347,0.01587 -0.53018,0.02447 -0.0521,0.0025 -0.10417,0.007 -0.15633,0.0092 -0.18111,0.0074 -0.36257,0.0069 -0.54377,0.0092 -0.11332,0.0014 -0.22655,0.0071 -0.33986,0.0092 -0.14478,0.0027 -0.29029,0 -0.43502,0 -0.27873,0 -0.55747,-0.0046 -0.83605,-0.01223 -0.1065,-0.0029 -0.21294,-0.0098 -0.31946,-0.01223 -0.12693,-0.0029 -0.25377,-0.0043 -0.38064,-0.0092 -0.10904,7.73e-4 -0.21748,-0.01084 -0.32627,-0.01529 -0.11549,-0.0047 -0.23112,-0.0053 -0.34665,-0.0092 -0.14216,-0.0048 -0.29293,-0.01168 -0.43502,-0.02141 -0.13177,-0.009 -0.26337,-0.026 -0.39423,-0.04282 -4e-5,-4e-6 -0.1767,-0.02446 -0.17673,-0.02447 -0.13114,-0.01349 -0.26303,-0.02081 -0.39423,-0.03364 -0.0318,-0.0031 -0.0634,-0.0088 -0.0952,-0.01223 -0.0882,-0.0094 -0.17664,-0.01267 -0.26509,-0.01835 -0.018,-0.0012 -0.0465,-0.0096 -0.0612,-0.01223 -0.0367,-0.0066 -0.0718,-0.0036 -0.10875,-0.0061 -0.0115,-7.93e-4 -0.0226,-0.0046 -0.034,-0.0061 -0.0384,-0.0052 -0.077,-0.01034 -0.11555,-0.01529 -0.0547,-0.007 -0.11633,-0.01413 -0.16993,-0.02447 -0.007,-0.0013 -0.0134,-0.0049 -0.0204,-0.0061 -0.0361,-0.0065 -0.0727,-0.0064 -0.10875,-0.01223 -0.055,-0.0088 -0.10824,-0.02235 -0.16313,-0.03059 -0.0972,-0.01458 -0.19652,-0.02127 -0.29228,-0.04282 -0.0577,-0.01298 -0.11825,-0.0065 -0.17673,-0.0092 -0.0479,-0.0022 -0.095,-0.01261 -0.14274,-0.01529 -0.0307,-0.0017 -0.0653,-2.29e-4 -0.0952,-0.0092 -0.007,-0.0021 -0.0132,-0.007 -0.0204,-0.0092 -0.007,-0.002 -0.0159,0.0021 -0.0204,-0.0031 -0.0217,-0.02483 -0.0256,-0.06642 -0.0544,-0.08258 -0.0401,-0.02257 -0.0906,-0.01631 -0.13594,-0.02447"
       id="path19551-6" />
    <path
       style="fill:#6ae4a3;fill-opacity:1;stroke:#000000;stroke-width:1;stroke-linecap:round;stroke-linejoin:round;stroke-dasharray:none;stroke-opacity:1"
       d="m 148.88171,72.681972 c -0.0449,0.0043 -0.0896,0.01034 -0.13458,0.01298 -0.0704,0.0041 -0.14098,0 -0.21147,0 -0.0833,0 -0.16662,0 -0.24993,0 -0.24032,0 -0.48063,0 -0.72095,0 -0.18915,0 -0.37808,0.0052 -0.56714,0.0086 -0.1986,0.0036 -0.39737,-0.0019 -0.59599,0 -0.50874,0.005 -0.12374,0.0043 -0.43257,0.0043 -0.14752,0 -0.2948,-0.0059 -0.44218,-0.0087 -0.10559,-0.002 -0.21157,0 -0.31721,0 -0.1343,0 -0.26934,-0.0021 -0.40373,0 -0.11904,0.0019 -0.23687,0.0093 -0.35567,0.01298 -0.2179,0.0068 -0.43581,0.0124 -0.65366,0.0173 -0.14739,0.0033 -0.29468,0.0043 -0.44218,0.0043 -0.13137,0 -0.26281,-0.0041 -0.39412,0 -0.0481,0.0015 -0.0961,0.0063 -0.14419,0.0086 -0.0416,0.002 -0.0834,0.0015 -0.12496,0.0043 -0.11219,0.0076 -0.22436,0.02083 -0.33644,0.03028 -0.0515,0.0043 -0.10261,0.01072 -0.1538,0.0173 -0.01,0.0012 -0.0378,6.09e-4 -0.0288,0.0043 0.0464,0.01913 0.0961,0.02884 0.14419,0.04326"
       id="path21961-3" />
    <path
       style="fill:#6ae4a3;fill-opacity:1;stroke:#000000;stroke-width:1;stroke-linecap:round;stroke-linejoin:round;stroke-dasharray:none;stroke-opacity:1"
       d="m 164.1754,72.729554 c 0.15082,0.01159 0.30181,-0.0021 0.45179,-0.0173 0.42262,-0.04294 0.84585,-0.07801 1.26887,-0.11679 0.0545,-0.005 0.10882,-0.01284 0.16341,-0.0173 0.0512,-0.0042 0.10263,-0.0045 0.1538,-0.0086 0.13475,-0.01103 0.26887,-0.02935 0.40374,-0.03893 0.0768,-0.0055 0.15384,-0.0079 0.2307,-0.01298 0.16909,-0.01119 0.0231,-0.0075 0.19225,-0.01298 0.29795,-0.0096 0.59586,-0.0087 0.89397,-0.0087 0.23698,0 0.4744,-0.0036 0.71134,0 0.10275,-0.0046 0.20505,0.0066 0.3076,0.0087 0.33616,0.0066 0.67306,0 1.00933,0"
       id="path21963-5" />
    <g
       id="g25069"
       transform="translate(0.39165168,14.545339)">
      <path
         style="fill:none;fill-opacity:1;stroke:#000000;stroke-width:1;stroke-linecap:round;stroke-linejoin:round;stroke-dasharray:none;stroke-opacity:1"
         d="m 157.00046,54.78865 c -0.31517,-0.117554 -0.65472,-0.157954 -0.9901,-0.151392 -0.35008,0.0069 -0.69363,0.02663 -1.03817,0.09083 -0.45542,0.08487 -0.9354,0.180344 -1.3746,0.337389 -0.36832,0.131702 -0.98689,0.33006 -1.28809,0.644501 -0.32285,0.337045 -0.44831,0.507232 -0.64405,0.87808 -0.062,0.117486 -0.13049,0.233166 -0.17302,0.359017 -0.0861,0.254774 -0.15415,0.515839 -0.21148,0.778591 -0.0509,0.233325 -0.0673,0.580497 -0.0288,0.817523 0.0835,0.514609 0.0967,0.735956 0.36528,1.111655 0.25787,0.360717 0.49921,0.486121 0.93242,0.709384 0.13891,0.07159 0.29304,0.109092 0.44218,0.155719 0.54143,0.169261 0.79191,0.197885 1.43228,0.276832 0.12114,0.01493 0.74879,0.04202 0.87475,0.0346 0.47238,-0.0278 0.77607,-0.04377 1.19197,-0.181672 0.12126,-0.04021 0.24273,-0.08304 0.35567,-0.142742 0.35744,-0.18895 0.62404,-0.3419 0.90358,-0.605572 0.0819,-0.07723 0.16448,-0.15555 0.23071,-0.246554 0.11399,-0.156638 0.21438,-0.323281 0.3076,-0.493109 0.11706,-0.213267 0.13056,-0.455924 0.14419,-0.692081 0.001,-0.02159 0,-0.04326 0,-0.06488 0,-0.01009 0.01,-0.02738 0,-0.03028 -0.0115,-0.0035 -0.0191,0.01454 -0.0288,0.02163 -0.0159,0.01165 -0.0315,0.0239 -0.0481,0.0346 -0.0571,0.03689 -0.11535,0.07209 -0.17303,0.108137"
         id="path24185" />
      <path
         style="fill:none;fill-opacity:1;stroke:#000000;stroke-width:1;stroke-linecap:round;stroke-linejoin:round;stroke-dasharray:none;stroke-opacity:1"
         d="m 155.53934,58.538867 c 1.35511,-0.06989 2.71101,-0.124958 4.06614,-0.194648 0.11862,-0.0061 0.23713,-0.01416 0.35567,-0.02163 0.1297,-0.0082 0.10019,0.02479 0.13458,-0.02163"
         id="path24187" />
    </g>
  </g>
</svg>
