<?xml version="1.0" encoding="UTF-8" standalone="no"?>
<!-- Created with Inkscape (http://www.inkscape.org/) -->

<svg
   width="69.344528mm"
   height="29.140144mm"
   viewBox="0 0 69.344528 29.140144"
   version="1.1"
   id="svg5"
   sodipodi:docname="rewrite-l.svg"
   inkscape:version="1.2.2 (b0a8486541, 2022-12-01)"
   xmlns:inkscape="http://www.inkscape.org/namespaces/inkscape"
   xmlns:sodipodi="http://sodipodi.sourceforge.net/DTD/sodipodi-0.dtd"
   xmlns="http://www.w3.org/2000/svg"
   xmlns:svg="http://www.w3.org/2000/svg">
  <sodipodi:namedview
     id="namedview7"
     pagecolor="#ffffff"
     bordercolor="#666666"
     borderopacity="1.0"
     inkscape:showpageshadow="2"
     inkscape:pageopacity="0.0"
     inkscape:pagecheckerboard="0"
     inkscape:deskcolor="#d1d1d1"
     inkscape:document-units="mm"
     showgrid="false"
     inkscape:zoom="6.5554616"
     inkscape:cx="140.49354"
     inkscape:cy="48.814259"
     inkscape:window-width="2560"
     inkscape:window-height="1372"
     inkscape:window-x="0"
     inkscape:window-y="32"
     inkscape:window-maximized="1"
     inkscape:current-layer="layer1"
     showguides="true" />
  <defs
     id="defs2" />
  <g
     inkscape:label="Layer 1"
     inkscape:groupmode="layer"
     id="layer1"
     transform="translate(-111.81022,-46.478877)">
    <path
       style="fill:#6ae4a3;fill-opacity:1;stroke:#000000;stroke-width:1;stroke-dasharray:none;stroke-opacity:1"
       d="m 148.55403,51.789135 c -0.0634,-0.0041 -0.12687,-0.0031 -0.19032,-0.0031 -0.007,0 -0.0204,-0.0068 -0.0204,0 0,0.0069 0.0153,-0.0015 0.0204,0.0031 0.003,0.0025 -0.006,0.0054 -0.007,0.0092 -0.002,0.01313 -0.002,0.0267 0,0.03976 0.002,0.01381 0.01,0.02633 0.0136,0.03976 0.005,0.01718 0.009,0.03473 0.0136,0.052 0.045,0.161954 0.10443,0.319492 0.14274,0.483259 0.007,0.02954 0.016,0.05868 0.0204,0.0887 0.008,0.0524 0.0248,0.216777 0.0272,0.290567 0.001,0.03566 -7.7e-4,0.07137 0,0.107051 0.002,0.06935 0.005,0.138636 0.007,0.207985 0.003,0.126863 -0.003,0.252252 0.007,0.379266 0.002,0.03084 0.0102,0.06103 0.0136,0.09176 0.0106,0.09549 0.0137,0.191666 0.0204,0.287507 0.009,0.126221 0.0204,0.252611 0.0204,0.379267 0,0.0327 -0.004,0.06525 -0.007,0.09787 -0.0153,0.216627 0.004,-0.0531 -0.0272,0.293625 -0.003,0.03358 -0.003,0.06738 -0.007,0.100934 -0.0109,0.10912 -0.0291,0.184237 -0.0476,0.299742 -0.005,0.03352 -0.009,0.06729 -0.0136,0.100934 -0.007,0.03466 -0.0144,0.06917 -0.0204,0.103993 -0.0122,0.07123 -0.0218,0.142874 -0.034,0.214102 -0.006,0.03482 -0.0145,0.06916 -0.0204,0.103992 -0.005,0.03248 -0.008,0.0654 -0.0136,0.09787 -0.0104,0.06134 -0.0235,0.122194 -0.034,0.183517 -0.0209,0.122332 -0.0383,0.249878 -0.0476,0.373149 -0.004,0.05591 0,0.112148 0,0.168223 0,0.08258 -0.004,0.165243 0,0.247747 0.007,0.164207 0.0136,-0.02323 0.0136,0.226335 0,0.02559 -0.006,0.0509 -0.007,0.07646 -0.003,0.07639 0,0.15293 0,0.229395 0,0.10167 -0.003,0.204354 0,0.305861 0.002,0.05804 0.0103,0.09255 0.0204,0.149871 0.009,0.05199 0.0182,0.103981 0.0272,0.155987 0.005,0.0265 0.0113,0.05273 0.0136,0.07952 0.002,0.02743 0,0.05505 0,0.08258 0,0.05811 -0.001,0.116246 0,0.17434 7.7e-4,0.02964 0.006,0.05907 0.007,0.0887 0.007,0.174741 -0.0139,0.0024 0.007,0.256922 0.002,0.02781 0.009,0.05505 0.0136,0.08258 0.0176,0.107017 0.04,0.213676 0.0544,0.321153 0.0366,0.274498 -0.0436,-0.242192 0.0204,0.211044 0.007,0.05301 0.0366,0.141699 0.0544,0.189632 0.004,0.0096 0.01,0.018 0.0136,0.02753 0.008,0.02075 0.016,0.05142 0.0204,0.07341 8.2e-4,0.004 0,0.0082 0,0.01223 0.002,0.01122 0.004,0.02257 0.007,0.03364 0.008,0.03027 0.0214,0.05725 0.0272,0.0887 0.003,0.01704 0.001,0.0347 0,0.05199 -0.002,0.0345 -0.007,0.09368 -0.0136,0.13152 -0.004,0.02054 -0.009,0.04078 -0.0136,0.06117 -0.009,0.0418 -0.0196,0.0833 -0.0272,0.125403 -0.004,0.02119 -0.004,0.04295 -0.007,0.06423 -0.004,0.02261 -0.0122,0.04445 -0.0136,0.06729 -0.008,0.130669 0.004,0.133565 0,0.241628 -0.001,0.0276 -0.006,0.05497 -0.007,0.08258 -0.002,0.08357 0,0.167203 0,0.250805 0,0.09597 -0.001,0.167541 0.007,0.269156 0.002,0.02781 0.009,0.05505 0.0136,0.08258 0.01,0.0597 0.0365,0.220638 0.0408,0.253863 0.0155,0.120053 -0.004,0.06294 0.0204,0.180457 0.012,0.05745 0.0283,0.113924 0.0408,0.171282 0.006,0.02628 0.008,0.05327 0.0136,0.07952 0.005,0.02479 0.017,0.04824 0.0204,0.07341 0.008,0.0618 0.006,0.124715 0.0136,0.186575 0.004,0.0331 0.0172,0.119879 0.0204,0.140696 0,3e-6 0.0136,0.08564 0.0136,0.08564 0,0.03067 -0.003,0.06129 -0.007,0.09176 -0.002,0.02021 -0.0225,0.07315 -0.0272,0.08258 -0.005,0.01024 -0.0146,0.01767 -0.0204,0.02753 -0.006,0.0096 -0.009,0.02045 -0.0136,0.03059 -0.0136,0.02957 -0.027,0.05922 -0.0408,0.0887 -0.0196,0.04184 -0.0404,0.08434 -0.0544,0.128461 -0.0111,0.03509 -0.0163,0.07189 -0.0272,0.107051 -0.006,0.01869 -0.0139,0.03659 -0.0204,0.05505 -0.007,0.02028 -0.0126,0.04113 -0.0204,0.06117 -0.004,0.0098 -0.0618,0.14471 -0.0748,0.186575 -0.0129,0.04183 -0.0281,0.129682 -0.034,0.162106 -0.005,0.02646 -0.0116,0.0527 -0.0136,0.07952 -0.002,0.02949 -0.003,0.05927 0,0.0887 10e-4,0.01239 0.005,0.02447 0.007,0.0367 0.002,0.02039 0.005,0.04073 0.007,0.06117 0.005,0.06069 -0.006,0.120246 0.007,0.180457 0.007,0.0336 0.0172,0.06676 0.0204,0.100934 0.001,0.01218 -0.001,0.02452 0,0.0367 0.001,0.01239 0.005,0.02433 0.007,0.0367 0.003,0.02948 0.004,0.05922 0.007,0.0887 0.009,0.08325 0.007,-0.0097 0.007,0.07341 0,0.0038 -0.002,0.08254 0,0.08564 0.003,0.0046 0.008,0.0073 0.0136,0.0092 0.0149,0.0054 0.0812,-4.5e-4 0.0952,0 0.0748,0.0024 0.14952,0.0064 0.2243,0.0092 0.0898,0.0034 0.19327,0.0074 0.27869,0.0092 0.1721,0.0035 0.34461,-0.0012 0.51658,-0.0061 0.10649,-0.0031 0.21295,-0.0071 0.31946,-0.0092 0.005,-1.03e-4 0.20129,9.6e-5 0.21072,0 0.0657,-6.62e-4 0.1314,-0.0024 0.19711,-0.0031 0.2334,-0.0023 0.46674,0.002 0.70011,-0.0061 0.0987,-0.0034 0.36901,-0.01837 0.42143,-0.02141 0.0453,-0.0026 0.0906,-0.0072 0.13594,-0.0092 0.19011,-0.0083 0.38072,-0.0049 0.57096,-0.0061 0.10117,-6.61e-4 0.35728,-0.0025 0.48939,-0.0061 0.22667,-0.0062 0.4532,-0.01789 0.67972,-0.02753 0.25596,-0.0109 0.51204,-0.01624 0.76808,-0.02447 0.179,-0.0058 0.35789,-0.01485 0.53697,-0.01835 0.10639,-0.0021 0.21308,0 0.31947,0 0.1314,0 0.26285,-0.0012 0.39423,0 0.16375,0.0015 0.16981,0.0043 0.30587,0.0031 0.16067,-0.0014 0.32197,-0.003 0.4826,-0.0092 0.15179,-0.0059 0.30345,-0.01698 0.45541,-0.01835 0.11781,-0.0011 0.23564,0.0014 0.35345,0 0.23795,-0.0028 0.47579,-0.01389 0.7137,-0.01835 0.23562,-0.0044 0.47126,-0.0031 0.70691,-0.0031 0.11342,0 0.22664,0.0022 0.33986,0.0092 0.0462,-0.0056 0.0905,0.0093 0.13594,0.01224 0.0656,0.0042 0.13161,0.003 0.19712,0.0092 0.0522,0.0049 0.12175,0.01512 0.17672,0.01835 0.0883,0.0052 0.17669,0.0092 0.26509,0.01223 0.0859,0.003 0.17232,0.002 0.25829,0.0031 0.0907,0.0011 0.18124,0.0052 0.27189,0.0061 0.3081,0.0031 0.61632,-0.0036 0.92441,0 0.29689,0.0035 0.59375,0.01991 0.89043,0.03059 0.11322,0.0041 0.22658,0.0074 0.33986,0.0092 0.0317,5.02e-4 0.0634,-10e-4 0.0952,0 0.0181,10e-4 0.0362,0.002 0.0544,0.0031 0.009,0.001 0.0181,0.0025 0.0272,0.0031 0.0181,10e-4 0.0363,-10e-4 0.0544,0 0.009,5.03e-4 0.0181,0.002 0.0272,0.0031 0.0136,0.001 0.0272,0.0025 0.0408,0.0031 0.18106,0.0074 0.36263,0.01406 0.54377,0.01835 0.0249,5.82e-4 0.0498,0 0.0748,0 0.043,10e-4 0.0861,0.0016 0.12915,0.0031 0.14955,0.005 0.29967,0.0076 0.44861,-0.0092 0.0892,-0.01004 0.19388,-0.01624 0.25829,-0.0887 0.0101,-0.01138 0.0179,-0.02463 0.0272,-0.0367 0.0111,-0.01444 0.0268,-0.02606 0.034,-0.04282 0.043,-0.100708 0.0506,-0.218075 0.068,-0.324211 0.004,-0.02258 0.0102,-0.04467 0.0136,-0.06729 0.0181,-0.119385 0.0165,-0.240697 0.0204,-0.360914 0.008,-0.242605 0.007,-0.0469 0.007,-0.201868 0,-0.119577 6.6e-4,-0.132062 -0.007,-0.299742 -0.001,-0.02455 -0.002,-0.04927 -0.007,-0.07341 -0.0261,-0.136828 -0.0727,-0.273899 -0.12234,-0.403736 -0.0163,-0.04256 -0.0396,-0.08229 -0.0544,-0.125402 -0.0155,-0.04528 -0.0304,-0.09093 -0.0408,-0.137637 -0.006,-0.02498 -0.004,-0.05108 -0.007,-0.07646 -0.011,-0.08601 -0.0297,-0.170924 -0.0408,-0.256922 -0.004,-0.02941 -0.003,-0.05924 -0.007,-0.0887 -0.002,-0.01458 -0.0247,-0.158385 -0.0272,-0.17434 -0.009,-0.05709 -0.0164,-0.114487 -0.0272,-0.171282 -0.005,-0.02689 -0.0152,-0.05266 -0.0204,-0.07952 -0.0106,-0.05477 -0.0181,-0.11011 -0.0272,-0.165164 -0.003,-0.01852 -0.025,-0.150957 -0.0272,-0.168224 -0.007,-0.0587 -0.0245,-0.202595 -0.0272,-0.278332 -0.001,-0.03158 8e-4,-0.06322 0,-0.09482 -0.001,-0.05814 -0.005,-0.116203 -0.007,-0.174341 -7.4e-4,-0.02752 0.001,-0.05508 0,-0.08258 -0.004,-0.08763 -0.0195,-0.156778 -0.034,-0.247747 -0.0548,-0.344959 0.025,0.166113 -0.0204,-0.177398 -0.007,-0.05631 -0.0196,-0.111936 -0.0272,-0.168223 -0.004,-0.02737 -0.003,-0.05516 -0.007,-0.08258 -0.0316,-0.260614 0.007,0.179937 -0.0272,-0.25998 -2.9e-4,-0.0037 -0.0129,-0.174917 -0.0136,-0.180458 -0.0138,-0.105178 -0.0312,-0.216702 -0.0544,-0.321153 -0.0105,-0.0471 -0.0248,-0.09332 -0.034,-0.140695 -0.004,-0.02313 -0.003,-0.04703 -0.007,-0.07035 -0.003,-0.02363 -0.01,-0.04674 -0.0136,-0.07035 -0.008,-0.04983 -0.0129,-0.100013 -0.0204,-0.149871 -0.0162,-0.10786 -0.0409,-0.214075 -0.0612,-0.321153 -0.0218,-0.115143 -0.0362,-0.233076 -0.0544,-0.348679 -0.0183,-0.116455 -0.0357,-0.231074 -0.0476,-0.348681 -0.0119,-0.117786 -0.016,-0.234175 -0.034,-0.351739 -0.0423,-0.276145 -6.7e-4,0.0954 -0.034,-0.186575 -0.008,-0.06414 -0.0143,-0.128395 -0.0204,-0.192691 -5.6e-4,-0.0057 -0.0126,-0.172994 -0.0136,-0.180457 -0.007,-0.05732 -0.0195,-0.113984 -0.0272,-0.171282 -0.004,-0.02738 -0.003,-0.05517 -0.007,-0.08258 -0.003,-0.02769 -0.01,-0.05496 -0.0136,-0.08258 -0.007,-0.05192 -0.0126,-0.104132 -0.0204,-0.155989 -0.006,-0.03714 -0.0207,-0.10028 -0.0272,-0.137636 -0.007,-0.04282 -0.0136,-0.08564 -0.0204,-0.128462 -0.005,-0.01937 -0.0101,-0.03853 -0.0136,-0.05811 -0.003,-0.0182 -0.004,-0.03685 -0.007,-0.05506 -0.0153,-0.08626 -0.0368,-0.172844 -0.0476,-0.25998 -10e-4,-0.01113 0,-0.02243 0,-0.03365 0,-0.04334 0.004,-0.08828 0,-0.131518 -10e-4,-0.01742 -0.005,-0.03457 -0.007,-0.052 -0.002,-0.02236 0,-0.04486 0,-0.06729 0,-0.0367 -0.003,-0.07355 0,-0.110109 10e-4,-0.01239 0.005,-0.02434 0.007,-0.0367 0.002,-0.02651 0.005,-0.05302 0.007,-0.07952 0,-0.01427 -0.001,-0.0286 0,-0.04282 0.001,-0.0134 0.005,-0.0264 0.007,-0.03976 0.0151,-0.04018 0.003,-0.08165 0.007,-0.122344 0.001,-0.0134 0.005,-0.02647 0.007,-0.03976 0.01,-0.06411 0.0221,-0.130793 0.0272,-0.19575 0.003,-0.0397 0.004,-0.07957 0.007,-0.119285 0.005,-0.07083 0.0201,-0.140489 0.0272,-0.211043 0.003,-0.02637 -0.002,-0.05307 0,-0.07952 0.001,-0.02351 0.005,-0.04684 0.007,-0.07035 6.8e-4,-0.01017 -0.001,-0.02046 0,-0.03059 0.001,-0.0094 0.005,-0.01818 0.007,-0.02753 0.003,-0.02028 0.004,-0.04086 0.007,-0.06117 0.003,-0.02166 0.0108,-0.04253 0.0136,-0.06423 0.006,-0.04859 0.009,-0.09328 0.0204,-0.140695 0.0123,-0.05169 0.0311,-0.10376 0.0408,-0.15599 0.001,-0.007 -0.001,-0.01436 0,-0.02141 0.001,-0.0074 0.005,-0.01404 0.007,-0.02141 0.007,-0.04076 0.007,-0.07842 0.007,-0.119286 0,-0.05607 0,-0.112148 0,-0.168222 0,-0.04384 0.004,-0.08784 0,-0.13152 -0.001,-0.0124 -0.005,-0.02437 -0.007,-0.0367 -0.003,-0.02235 -0.002,-0.04519 -0.007,-0.06729 -0.008,-0.0381 -0.0499,-0.107762 -0.068,-0.134578 -0.008,-0.01196 -0.0189,-0.02187 -0.0272,-0.03364 -0.008,-0.01071 -0.0113,-0.0242 -0.0204,-0.03364 -0.0325,-0.03371 -0.10177,-0.08856 -0.14274,-0.11928 -0.0524,-0.03932 -0.10111,-0.08101 -0.16313,-0.103993 -0.10231,-0.03791 -0.0417,-0.01549 -0.10876,-0.03059 -0.0902,-0.0203 -0.17976,-0.037 -0.27188,-0.04588 -0.043,-0.0042 -0.0862,-0.0076 -0.12915,-0.01223 -0.0227,-0.0025 -0.0452,-0.0071 -0.068,-0.0092 -0.0226,-0.002 -0.0453,-0.0015 -0.068,-0.0031 -0.16346,-0.01149 -0.32567,-0.03078 -0.4894,-0.03976 -0.14884,-0.0082 -0.29992,-0.008 -0.44861,-0.0092 -0.24915,-0.002 -0.49855,-0.0022 -0.74769,0 -0.28102,0.0024 -0.56192,0.01408 -0.84284,0.02141 -0.23108,0.006 -0.46227,0.008 -0.69331,0.01529 -0.0748,0.0024 -0.14951,0.0087 -0.22431,0.01223 -0.0747,0.0036 -0.14962,0.0045 -0.2243,0.0092 -0.0853,0.0054 -0.52298,0.03789 -0.67972,0.052 -0.0726,0.0065 -0.14494,0.01502 -0.21751,0.02141 -0.13588,0.01196 -0.27191,0.02209 -0.40783,0.03364 -0.068,0.0058 -0.13583,0.01368 -0.20391,0.01835 -0.0656,0.0045 -0.13145,0.0054 -0.19712,0.0092 -0.98082,0.0558 -0.0183,0.0073 -0.57776,0.03059 -0.17676,0.0074 -0.35347,0.01587 -0.53018,0.02447 -0.0521,0.0025 -0.10417,0.007 -0.15633,0.0092 -0.18111,0.0074 -0.36257,0.0069 -0.54377,0.0092 -0.11332,0.0014 -0.22655,0.0071 -0.33986,0.0092 -0.14478,0.0027 -0.29029,0 -0.43502,0 -0.27873,0 -0.55747,-0.0046 -0.83605,-0.01223 -0.1065,-0.0029 -0.21294,-0.0098 -0.31946,-0.01223 -0.12693,-0.0029 -0.25377,-0.0043 -0.38064,-0.0092 -0.10904,7.73e-4 -0.21748,-0.01084 -0.32627,-0.01529 -0.11549,-0.0047 -0.23112,-0.0053 -0.34665,-0.0092 -0.14216,-0.0048 -0.29293,-0.01168 -0.43502,-0.02141 -0.13177,-0.009 -0.26337,-0.026 -0.39423,-0.04282 -4e-5,-4e-6 -0.1767,-0.02446 -0.17673,-0.02447 -0.13114,-0.01349 -0.26303,-0.02081 -0.39423,-0.03364 -0.0318,-0.0031 -0.0634,-0.0088 -0.0952,-0.01223 -0.0882,-0.0094 -0.17664,-0.01267 -0.26509,-0.01835 -0.018,-0.0012 -0.0465,-0.0096 -0.0612,-0.01223 -0.0367,-0.0066 -0.0718,-0.0036 -0.10875,-0.0061 -0.0115,-7.93e-4 -0.0226,-0.0046 -0.034,-0.0061 -0.0384,-0.0052 -0.077,-0.01034 -0.11555,-0.01529 -0.0547,-0.007 -0.11633,-0.01413 -0.16993,-0.02447 -0.007,-0.0013 -0.0134,-0.0049 -0.0204,-0.0061 -0.0361,-0.0065 -0.0727,-0.0064 -0.10875,-0.01223 -0.055,-0.0088 -0.10824,-0.02235 -0.16313,-0.03059 -0.0972,-0.01458 -0.19652,-0.02127 -0.29228,-0.04282 -0.0577,-0.01298 -0.11825,-0.0065 -0.17673,-0.0092 -0.0479,-0.0022 -0.095,-0.01261 -0.14274,-0.01529 -0.0307,-0.0017 -0.0653,-2.29e-4 -0.0952,-0.0092 -0.007,-0.0021 -0.0132,-0.007 -0.0204,-0.0092 -0.007,-0.002 -0.0159,0.0021 -0.0204,-0.0031 -0.0217,-0.02483 -0.0256,-0.06642 -0.0544,-0.08258 -0.0401,-0.02257 -0.0906,-0.01631 -0.13594,-0.02447"
       id="path19551" />
    <text
       xml:space="preserve"
       style="font-style:normal;font-weight:normal;font-size:10.5833px;line-height:1.25;font-family:sans-serif;fill:#000000;fill-opacity:1;stroke:none;stroke-width:0.264583"
       x="153.03838"
       y="58.488964"
       id="text19657"><tspan
         sodipodi:role="line"
         id="tspan19655"
         style="stroke-width:0.264583"
         x="153.03838"
         y="58.488964" /></text>
    <path
       style="fill:#6ae4a3;stroke:#000000;stroke-width:1;stroke-linecap:round;stroke-linejoin:round"
       d="m 154.47212,54.527727 c 0.22113,0.0073 -0.25011,-0.06983 -0.27189,0.01835 -0.003,0.01188 0,0.02447 0,0.0367 0,0.133028 -0.005,0.128945 0.0136,0.256923 0.008,0.05323 0.0205,0.105685 0.0272,0.159046 0.0159,0.126149 0.0322,0.252409 0.0408,0.379267 0.005,0.07324 -0.002,0.146848 0,0.22022 0.009,0.293895 0.0453,0.587003 0.0544,0.880876 0.002,0.07541 0,0.15089 0,0.226335 0,0.21818 0.007,0.436468 0,0.654541 -0.006,0.20199 -0.0327,0.431239 -0.068,0.623954 -0.0119,0.06468 -0.0381,0.125913 -0.0544,0.189632 -0.0155,0.06072 -0.0231,0.123405 -0.0408,0.183518 -0.054,0.183276 -0.1551,0.401652 -0.17672,0.599484 -0.014,0.12793 -0.0231,0.350548 -0.0136,0.489376 0.01,0.141021 0.0344,0.280881 0.0408,0.422086 0.0132,0.291459 -0.0272,0.581134 -0.068,0.868643 -0.0157,0.110757 -0.0375,0.219891 -0.0544,0.330328 -0.002,0.01209 0.003,0.02483 0,0.0367 -0.002,0.0074 -0.0207,0.01568 -0.0136,0.01835 0.0456,0.01711 0.17793,0.01265 0.21751,0.01223 0.15407,-0.0016 0.30813,-0.0049 0.46221,-0.0061 0.6743,-0.0051 -0.006,0.01304 0.72049,-0.02447 0.14947,-0.0077 0.29929,-0.0084 0.44862,-0.01835 0.30842,-0.02061 0.61605,-0.05185 0.92441,-0.07341 0.31233,-0.02183 0.62517,-0.03614 0.93801,-0.04894 1.4629,-0.05984 0.3844,-0.01484 1.29146,-0.0367 0.11785,-0.0028 0.23557,-0.01065 0.35345,-0.01224 0.18577,-0.0025 0.37158,-0.0016 0.55736,0 0.0499,4.24e-4 0.0997,0.005 0.14954,0.0061 0.0453,9.78e-4 0.0907,-0.0021 0.13595,0 0.0545,0.0026 0.10875,0.0082 0.16313,0.01223 0.0137,10e-4 0.028,0.01106 0.0408,0.0061 0.0215,-0.0083 0.0362,-0.02855 0.0544,-0.04282"
       id="path37349" />
    <path
       style="fill:#6ae4a3;stroke:#000000;stroke-width:1;stroke-linecap:round;stroke-linejoin:round"
       d="m 126.91646,51.995209 c -0.0272,0.06321 -0.0698,0.121838 -0.0816,0.189634 -0.0115,0.06645 0.0136,0.134426 0.0136,0.201868 0,0.316659 -4.7e-4,0.598073 -0.0544,0.905343 -0.0762,0.434529 -0.19891,0.70632 -0.33985,1.168385 -0.0445,0.145743 -0.0813,0.293699 -0.12235,0.440438 -0.0405,0.144848 -0.089,0.287657 -0.12235,0.434322 -0.0921,0.405004 -0.18876,0.865171 -0.2311,1.290728 -0.031,0.311569 -0.0491,0.976083 -0.0544,1.205087 -0.004,0.191805 -1.3e-4,0.591552 0.0136,0.783 0.0179,0.249157 0.0467,0.497411 0.068,0.746299 0.0104,0.122233 0.0159,0.244875 0.0272,0.367031 0.0114,0.122573 0.0302,0.244388 0.0408,0.367033 0.0304,0.35323 0.061,0.739697 0.068,1.101094 0.002,0.116206 -0.003,0.232494 0,0.34868 0.006,0.226439 0.018,0.452676 0.0272,0.679009 0.004,0.110113 0.007,0.220343 0.0136,0.330328 0.007,0.106208 0.0212,0.211847 0.0272,0.318095 0.0792,1.871414 -0.0148,-0.148038 0.0544,0.972633 0.0329,0.533584 0.0346,1.069115 0.068,1.602707 0.0118,0.187718 0.0284,0.375102 0.0408,0.562782 0.006,0.08761 0.007,0.175505 0.0136,0.263039 0.007,0.08788 0.0212,0.175098 0.0272,0.26304 0.0121,0.177216 0.0181,0.354799 0.0272,0.532196 0.009,0.171295 0.0242,0.342349 0.0272,0.513843 0.006,0.360306 -0.0111,0.722446 0,1.082744 0.009,0.295836 0.0341,0.591092 0.0408,0.886993 0.002,0.09989 -0.003,0.199872 0,0.299744 0.0177,0.608154 0.0582,1.214456 0.068,1.822925 0.006,0.372713 0,0.746841 0,1.119444 0,0.350351 0.007,0.701994 0,1.052158 -10e-4,0.0715 -0.0112,0.142632 -0.0136,0.214101 -0.002,0.06114 0.002,0.122372 0,0.18352 -9.3e-4,0.03205 -0.006,0.302261 -0.0272,0.397617 -0.0122,0.05485 -0.0436,0.115841 -0.068,0.165163 -0.004,0.0084 -0.009,0.01659 -0.0136,0.02447 -0.004,0.0064 -0.0195,0.01356 -0.0136,0.01835 0.0639,0.05177 0.32968,0.112151 0.39424,0.122344 0.59312,0.09365 0.46391,0.07199 0.96519,0.09788 0.84891,0.04384 0.22637,0.02416 1.56335,0.04282 0.59089,0.0082 0.7075,0.0061 1.30505,0.0061 0.4487,0 1.39674,0.004 1.94399,-0.0061 0.67201,-0.01247 1.37702,-0.04565 2.03914,-0.08564 0.21789,-0.01316 0.43494,-0.03772 0.65253,-0.05506 0.83335,-0.0664 1.66671,-0.135476 2.50135,-0.183516 0.19028,-0.01095 0.38048,-0.02399 0.57096,-0.03058 0.33976,-0.01176 0.67972,-0.01613 1.01958,-0.02447 0.37465,-0.0092 0.55343,-0.01656 0.92441,-0.01835 0.70232,-0.0034 1.40478,0 2.10712,0 0.23563,0 0.47126,0 0.7069,0 0.0302,0 0.14462,0.01445 0.16313,0.0061 0.0101,-0.0045 -0.006,-0.02603 -0.0136,-0.05506 -0.0146,-0.05273 -0.0306,-0.105267 -0.0408,-0.159043 -0.004,-0.02353 -0.026,-0.261145 -0.0272,-0.275278 -0.009,-0.108046 -0.0214,-0.215917 -0.0272,-0.324211 -0.007,-0.128278 0,-0.256922 0,-0.385384 0,-0.290778 0.006,-0.583813 0,-0.874757 -0.006,-0.274611 -0.0171,-0.551838 -0.0408,-0.825824 -0.0236,-0.27327 -0.0563,-0.542486 -0.0952,-0.813586 -0.0351,-0.244813 -0.0602,-0.510888 -0.12235,-0.752416 -0.0428,-0.166441 -0.10937,-0.396611 -0.16313,-0.575015 -0.0178,-0.05922 -0.0402,-0.117194 -0.0544,-0.177398 -0.0248,-0.105438 -0.0665,-0.372148 -0.10876,-0.507727 -0.19252,-0.617248 0.10669,0.487414 -0.17673,-0.544431 -0.05,-0.182175 -0.0357,-0.182423 -0.068,-0.367031 -0.0211,-0.120592 -0.0414,-0.241411 -0.068,-0.360916 -0.0112,-0.05022 -0.0947,-0.321351 -0.10875,-0.373147 -0.0317,-0.122345 -0.0634,-0.244689 -0.0952,-0.367034 -0.009,-0.06117 -0.0136,-0.123196 -0.0272,-0.183515 -0.0136,-0.06033 -0.0384,-0.117654 -0.0544,-0.177398 -0.0293,-0.109558 -0.0512,-0.22105 -0.0816,-0.330328 -0.015,-0.05398 -0.0407,-0.104713 -0.0544,-0.159049 -0.0136,-0.05411 -0.0101,-0.112042 -0.0272,-0.165163 -0.0376,-0.116961 -0.0937,-0.227198 -0.13594,-0.342563 -0.011,-0.03017 -0.1039,-0.341327 -0.10876,-0.367034 -0.0241,-0.127473 -0.033,-0.257427 -0.0544,-0.385383 -0.0103,-0.0618 -0.0313,-0.121574 -0.0408,-0.183515 -0.009,-0.05661 -0.009,-0.114179 -0.0136,-0.171282 -0.0718,-0.926026 -0.007,0.02696 -0.0272,-0.538312 -0.013,-0.357469 -0.0368,-0.05189 0,-0.587251 0.005,-0.06572 0.0204,-0.130229 0.0272,-0.195751 0.007,-0.06506 0.007,-0.130632 0.0136,-0.195749 0.012,-0.126586 0.0287,-0.252692 0.0408,-0.379266 0.006,-0.06309 0.007,-0.126649 0.0136,-0.189634 0.007,-0.05946 0.0213,-0.117865 0.0272,-0.177399 0.0123,-0.124108 0.0182,-0.248761 0.0272,-0.373147 0.005,-0.06321 0.0113,-0.126302 0.0136,-0.189635 0.009,-0.246217 0,-0.493767 0,-0.74018 0,-0.241777 0.0148,-0.503792 -0.0136,-0.746297 -0.0192,-0.164256 -0.058,-0.325696 -0.0816,-0.489377 -0.007,-0.05065 -0.009,-0.101952 -0.0136,-0.152929 -0.005,-0.05098 -0.0136,-0.101753 -0.0136,-0.152932 0,-0.0732 0.0125,-0.34652 0.0272,-0.458788 0.007,-0.05333 0.0209,-0.105627 0.0272,-0.159049 0.0181,-0.15451 0.034,-0.309488 0.0408,-0.464904 0.009,-0.207592 -0.009,-0.416365 0,-0.623956 0.007,-0.156165 0.0356,-0.302179 0.0544,-0.458788 0.0243,-0.202525 0.0358,-0.408829 0.0544,-0.61172 0.004,-0.04894 0.007,-0.09817 0.0136,-0.146813 0.007,-0.04529 0.0227,-0.08904 0.0272,-0.134579 0.003,-0.02969 0.0128,-0.349046 0.0272,-0.428203 0.0317,-0.174215 0.0677,-0.347706 0.10875,-0.519962 0.0134,-0.05638 0.0383,-0.109467 0.0544,-0.165163 0.0157,-0.05449 0.0236,-0.111115 0.0408,-0.165165 0.0327,-0.103134 0.0729,-0.203756 0.10876,-0.305859 0.001,-0.0031 0.10766,-0.315009 0.10875,-0.318095 0.0403,-0.114362 0.0899,-0.225735 0.12235,-0.342563 0.0176,-0.06347 0.0105,-0.132017 0.0272,-0.195752 0.0198,-0.07573 0.0565,-0.146074 0.0816,-0.220217 0.0474,-0.140003 0.0912,-0.281203 0.13595,-0.422086 0.0187,-0.05895 0.0318,-0.11982 0.0544,-0.177399 0.0183,-0.04679 0.0466,-0.0891 0.068,-0.134579 0.0285,-0.06058 0.0516,-0.123641 0.0816,-0.183515 0.011,-0.02192 0.0304,-0.03897 0.0408,-0.06117 0.008,-0.01712 0.006,-0.03757 0.0136,-0.05505 0.0184,-0.04478 0.0666,-0.123585 0.0816,-0.177399 0.007,-0.02591 0.008,-0.05316 0.0136,-0.07952 0.0128,-0.06338 0.0329,-0.125463 0.0408,-0.189632 0.006,-0.04654 -0.002,-0.09385 0,-0.140696 0.002,-0.04909 0.0136,-0.09767 0.0136,-0.146813 0,-0.20471 -0.0167,-0.391272 -0.068,-0.58725 -0.008,-0.029 -0.043,-0.182177 -0.0816,-0.238571 -0.007,-0.01006 -0.0194,-0.0151 -0.0272,-0.02447 -0.006,-0.0072 -0.005,-0.02064 -0.0136,-0.02447 -0.0394,-0.01774 -0.0878,0.02088 -0.12235,0.03059 -0.0222,0.0062 -0.0453,0.0082 -0.068,0.01223 -0.16497,0.02969 -0.0506,0.01185 -0.36704,0.03059 -0.35701,0.02114 -0.71692,0.03134 -1.07395,0.04282 -0.47601,0.0153 -0.95118,0.0088 -1.4274,0.0061 -0.4757,-0.0026 -0.95204,-0.01088 -1.4274,-0.03059 -0.11349,-0.0047 -0.22653,-0.01703 -0.33986,-0.02447 -0.92591,-0.06076 0.57431,0.04833 -0.89723,-0.06729 -0.0905,-0.0071 -0.18145,-0.0098 -0.27188,-0.01835 -0.0818,-0.0078 -0.16299,-0.02158 -0.2447,-0.03059 -0.20743,-0.03081 -0.41704,-0.0393 -0.62534,-0.06117 -0.29957,-0.03146 -0.5974,-0.0817 -0.89722,-0.110108 -0.17651,-0.01672 -0.35331,-0.03047 -0.53018,-0.04282 -0.0926,-0.0065 -0.46036,-0.01989 -0.54377,-0.02447 -0.0907,-0.005 -0.18113,-0.01458 -0.27189,-0.01835 -0.67949,-0.02822 -1.35931,-0.02866 -2.03915,-0.03671 -0.50749,-0.006 -1.01513,-0.01384 -1.52256,-0.02447 -0.33083,-0.0069 -0.66151,-0.02545 -0.99238,-0.03059 -0.39471,-0.0061 -0.78821,0.01704 -1.1827,-0.0061 -0.15856,-0.0093 -0.31707,-0.02149 -0.4758,-0.02447 -0.15831,-0.003 -0.3174,0 -0.47581,0 -0.0366,0 -0.33176,-0.01423 -0.36704,0.01224 -0.008,0.006 -0.0124,0.245637 -0.0136,0.26304 -0.01,0.147117 -0.0272,0.293625 -0.0408,0.440438 -0.004,0.04692 -0.0121,0.0936 -0.0136,0.140696 -0.003,0.09171 0,0.183515 0,0.275273 0,0.04078 -0.002,0.08163 0,0.122343 0.007,0.128868 0.0148,0.114409 0.0408,0.238571 0.0145,0.06914 0.0284,0.138426 0.0408,0.207984 0.006,0.03243 0.007,0.06569 0.0136,0.09788 0.12162,0.456011 0.0116,-0.0094 0.0408,0.214101 0.0167,0.127591 0.0136,-0.02325 0.0136,0.07341"
       id="path37351" />
    <path
       style="fill:#6ae4a3;stroke:#000000;stroke-width:1;stroke-linecap:round;stroke-linejoin:round"
       d="m 136.63639,60.632689 c -0.12235,-0.01019 -0.24483,-0.01892 -0.36705,-0.03059 -0.0665,-0.0063 -0.14152,-0.0241 -0.20391,-0.04282 -0.0143,-0.0043 -0.0266,-0.01379 -0.0408,-0.01835 -0.0704,-0.02261 -0.14444,-0.03186 -0.21751,-0.04282 -0.13255,-0.01988 -0.49712,-0.02997 -0.53018,-0.03059 -0.19029,-0.0036 -0.38084,-0.0088 -0.57096,0 -0.11855,0.0055 -0.23722,0.01888 -0.35345,0.04282 -0.43221,0.08904 -0.80569,0.183431 -1.2099,0.336445 -0.49185,0.186193 -0.72423,0.32622 -1.22348,0.642305 -0.19777,0.125209 -0.5099,0.380004 -0.66612,0.562782 -0.40024,0.468258 -0.42175,0.438555 -0.54378,0.886996 -0.0269,0.09886 -0.0616,0.197488 -0.068,0.299742 -0.0168,0.26989 -0.0261,0.586554 0.0952,0.844171 0.13738,0.291923 0.4296,0.522903 0.66612,0.709597 0.14297,0.112845 0.54258,0.313179 0.70691,0.36703 0.28576,0.09365 0.57709,0.170623 0.87003,0.238571 0.1473,0.03417 0.2987,0.04757 0.44861,0.06729 0.50801,0.06682 0.56225,0.05878 1.15552,0.07341 0.0938,0.0023 0.39823,4.23e-4 0.50299,-0.0061 0.0863,-0.0054 0.17261,-0.01273 0.25829,-0.02447 0.0189,-0.0026 0.0393,-0.0066 0.0544,-0.01835 0.11631,-0.0904 0.14604,-0.173017 0.19032,-0.305858"
       id="path37353" />
    <path
       style="fill:none;stroke:#000000;stroke-width:1;stroke-linecap:round;stroke-linejoin:round"
       d="m 163.56671,57.714788 c 0.30188,0.0475 -0.31606,0.04206 -0.2447,0.07952 0.25232,0.132464 -0.0557,-0.09955 0.2447,-0.07952 0.20534,0.01369 0.39417,0.125641 0.59815,0.152929 0.12518,0.01675 0.81026,-0.05598 0.89722,-0.06729 0.8784,-0.114256 1.75182,-0.254554 2.6237,-0.409853 0.70237,-0.125103 1.20878,-0.209506 1.86242,-0.354797 0.6586,-0.146394 1.31511,-0.317927 1.93039,-0.599487 0.1289,-0.05898 0.26014,-0.114983 0.38064,-0.189631 0.2292,-0.141979 0.45087,-0.296448 0.66612,-0.458791 0.0953,-0.07187 0.48241,-0.440697 0.57097,-0.532196 0.16234,-0.167753 0.47254,-0.484585 0.63893,-0.715711 0.13305,-0.184812 0.26565,-0.450141 0.35345,-0.642306 0.0333,-0.07294 0.0544,-0.150891 0.0816,-0.226337 0.0272,-0.07545 0.0633,-0.148248 0.0816,-0.226334 0.0673,-0.28787 0.0879,-0.451495 0.0952,-0.721831 0.002,-0.08561 0.0162,-0.172825 0,-0.256922 -0.0341,-0.177095 -0.091,-0.349386 -0.14953,-0.51996 -0.0612,-0.17837 -0.14568,-0.297595 -0.2583,-0.446558 -0.16824,-0.22252 -0.28824,-0.382017 -0.4758,-0.568898 -0.15941,-0.158835 -0.56224,-0.503476 -0.66612,-0.593367 -0.12356,-0.106923 -0.38585,-0.331169 -0.51658,-0.422086 -0.42641,-0.296533 -0.87201,-0.571973 -1.33225,-0.813588 -0.55613,-0.291959 -0.59545,-0.31471 -1.06035,-0.519962 -0.12198,-0.05385 -0.24195,-0.112878 -0.36705,-0.159048 -0.27848,-0.102784 -0.55924,-0.199851 -0.84284,-0.287507 -0.22669,-0.07006 -0.84026,-0.207288 -1.06036,-0.250805 -0.86472,-0.170973 -1.73416,-0.330471 -2.61011,-0.434322 -0.52058,-0.06172 -1.04189,-0.117339 -1.56334,-0.17128 -0.52544,-0.05435 -1.09101,-0.09791 -1.61772,-0.134578 -0.54821,-0.03816 -1.09617,-0.08075 -1.64491,-0.110111 -0.28971,-0.0155 -0.58002,-0.01644 -0.87004,-0.02447 -1.45759,-0.04036 -0.74387,-0.02619 -2.78683,-0.03059 -1.29173,-0.0028 -2.5828,0.0212 -3.87438,0.04282 -1.5545,0.02603 -3.1086,0.0669 -4.66285,0.103993 -1.20842,0.02884 -1.09146,0.01728 -2.6237,0.04282 -0.54836,0.0091 -1.09653,0.02824 -1.64491,0.0367 -0.27682,0.0043 -1.77667,0.02222 -2.31103,0.02447 -1.31752,0.0055 -0.15741,-0.01152 -2.03914,0.0061 -0.94714,0.0089 -1.89462,0.03771 -2.84121,0.06729 -1.26414,0.0395 -2.52876,0.06155 -3.79282,0.103993 -0.1541,0.0052 -0.30806,0.01439 -0.4622,0.01835 -0.32169,0.0083 -0.64348,0.01146 -0.9652,0.01835 -0.51709,0.01108 -1.03304,0.03213 -1.54975,0.05506 -0.0951,0.0042 -0.19043,0.0061 -0.28548,0.01223 -0.0953,0.0061 -0.19026,0.01699 -0.28548,0.02447 -0.19027,0.01495 -0.38092,0.02517 -0.57096,0.04282 -0.0955,0.0089 -0.19011,0.02624 -0.28548,0.0367 -0.0905,0.0099 -0.18161,0.01304 -0.27189,0.02447 -0.39688,0.05023 -0.78829,0.119625 -1.1827,0.183517 -0.24456,0.03962 -0.4898,0.075 -0.73409,0.116227 -0.24169,0.04078 -0.48094,0.09499 -0.7205,0.146812 -0.33643,0.07278 -0.66257,0.177172 -0.99239,0.275274 -0.59103,0.1758 -1.17707,0.37673 -1.74007,0.630071 -0.0741,0.03335 -0.14495,0.0735 -0.21751,0.11011 -0.077,0.03884 -0.15475,0.07615 -0.2311,0.116227 -0.0993,0.05212 -0.60813,0.321436 -0.77487,0.422085 -0.0968,0.05846 -0.19086,0.121523 -0.28548,0.183516 -0.59002,0.386531 -0.50279,0.338763 -0.9652,0.630072 -0.28389,0.178842 -0.41821,0.249236 -0.7069,0.471024 -0.16844,0.129405 -0.50657,0.615726 -0.53018,0.648423 -0.19607,0.271474 -0.30593,0.590091 -0.40783,0.905345 -0.0486,0.150384 -0.068,0.271432 -0.0816,0.428203 -0.006,0.06833 -0.0405,0.492148 -0.0272,0.630072 0.007,0.07032 0.0264,0.138812 0.0408,0.207985 0.031,0.149013 0.0616,0.298116 0.0952,0.446554 0.0162,0.07182 0.0365,0.142674 0.0544,0.214101 0.0568,0.226672 0.0968,0.410624 0.17673,0.642306 0.0249,0.07207 0.067,0.13715 0.0952,0.207985 0.0263,0.06597 0.031,0.141268 0.068,0.201868 0.006,0.0091 0.3196,0.429265 0.40783,0.513845 0.0544,0.05211 0.1189,0.09247 0.17673,0.140694 0.0963,0.08026 0.19162,0.16163 0.28548,0.244689 0.10998,0.09733 0.12916,0.140289 0.25829,0.214102 0.35571,0.203319 0.74038,0.355723 1.11473,0.519962 0.3753,0.164656 0.75329,0.327628 1.14192,0.458788 0.12103,0.04085 0.24334,0.0783 0.36705,0.11011 0.0669,0.0172 0.13594,0.02447 0.20391,0.0367 0.33263,0.05987 0.16678,0.03465 0.63894,0.08564 0.0815,0.0088 0.16288,0.01936 0.24469,0.02447 0.23526,0.0147 0.47129,0.01158 0.70691,0.01835 0.21776,0.0063 0.43457,0.0061 0.65252,0.0061 0.18156,0 0.14512,0.0041 0.32627,-0.01223 0.18035,-0.01623 0.35245,-0.03618 0.53018,-0.06117 0.0542,-0.0076 0.10852,-0.01484 0.16313,-0.01835 0.0136,-8.73e-4 0.0353,0.01242 0.0408,0 0.0174,-0.03917 -0.0364,-0.08856 -0.0544,-0.11011"
       id="path37355" />
    <path
       style="fill:none;stroke:#000000;stroke-width:1;stroke-linecap:round;stroke-linejoin:round"
       d="m 141.97895,58.662952 c -0.0544,0 -0.10877,0.0014 -0.16313,0 -0.0227,-6.08e-4 -0.0452,-0.0061 -0.068,-0.0061 -0.0182,0 -0.0362,0.005 -0.0544,0.0061 -0.0498,0.003 -0.0997,0.0046 -0.14954,0.0061 -0.0317,9.52e-4 -0.0634,0 -0.0952,0 -0.0136,0 -0.0543,-0.0012 -0.0408,0 0.0362,0.0033 0.0726,0.0032 0.10875,0.0061 0.0635,0.0052 0.12661,0.02004 0.19033,0.01835 0.0912,-0.0024 0.18096,-0.0377 0.27188,-0.03059 0.1204,0.0094 0.23334,0.067 0.35345,0.07953 0.25269,0.02634 0.50747,0.02569 0.76128,0.0367 0.50207,0.02177 1.00676,0.02447 1.50897,0.02447 0.54783,0 1.09828,-0.01478 1.64491,-0.04894 0.25375,-0.01586 0.50725,-0.04466 0.76129,-0.05505 0.0453,-0.0019 0.0906,7.41e-4 0.13594,0 0.12275,0.0071 0.24466,-0.0092 0.36704,-0.01223 0.17204,-0.0043 0.34448,0 0.51659,0 0.11904,0 0.25035,-0.0105 0.36704,0 0.0229,0.0021 0.0451,0.0095 0.068,0.01223 0.1439,0.01704 0.29004,0.03059 0.43502,0.03059"
       id="path37837" />
    <path
       style="fill:none;stroke:#000000;stroke-width:1;stroke-linecap:round;stroke-linejoin:round"
       d="m 143.32479,69.967531 c 0.0725,0.002 0.145,0.0041 0.21751,0.0061 0.17672,0.01019 0.35325,0.02474 0.53017,0.03059 0.24238,0.008 1.43973,0.0262 1.74008,0.03059 0.22214,0.0032 1.29359,0.02427 1.75366,0.01835 0.70212,-0.009 1.40542,-0.02615 2.10712,-0.05506 0.44869,-0.01848 0.89713,-0.04282 1.34583,-0.06117 0.24916,-0.01019 0.49857,-0.01346 0.74769,-0.02447 0.25844,-0.01142 0.51659,-0.02855 0.77488,-0.04282 0.51658,-0.02039 1.03316,-0.0409 1.54975,-0.06117 1.58106,-0.06204 3.16351,-0.08436 4.74441,-0.15293 0.49393,-0.02243 0.98785,-0.04486 1.48178,-0.06729 0.25376,-0.01428 0.5074,-0.0308 0.76128,-0.04282 0.26273,-0.01245 0.52573,-0.01849 0.78847,-0.03059 0.5348,-0.02461 1.06933,-0.05477 1.60413,-0.07952 0.25821,-0.01195 0.51673,-0.01711 0.77487,-0.03059 0.24943,-0.01303 0.49824,-0.03646 0.74769,-0.04894 0.93767,-0.04688 1.87568,-0.07685 2.81402,-0.103993 0.62082,-0.01796 1.24154,-0.03936 1.86242,-0.05505 0.81102,-0.0205 1.62221,-0.03129 2.43338,-0.04282 1.09661,-0.01558 2.19321,-0.03453 3.28982,-0.04894 0.41235,-0.0054 0.82473,-0.0082 1.23709,-0.01223 0.41337,-0.0041 0.82405,-0.0038 1.23707,-0.02447 0.36728,-0.01836 0.73441,-0.04026 1.10114,-0.06729 0.27396,-0.02019 0.62228,-0.06671 0.89723,-0.103994 0.26416,-0.03582 0.52664,-0.06909 0.78847,-0.116227"
       id="path37839" />
    <path
       style="fill:none;stroke:#000000;stroke-width:1;stroke-linecap:round;stroke-linejoin:round"
       d="m 126.48144,70.083758 c -0.29569,0 -0.0612,-0.001 -0.48939,0.0061 -0.0136,2.27e-4 -0.0273,-0.002 -0.0408,0 -0.014,0.0021 -0.0266,0.01096 -0.0408,0.01223 -0.0316,0.0028 -0.0634,0 -0.0952,0 -0.0997,0 -0.19938,0 -0.29907,0 -0.39419,0 -0.13794,-0.0016 -0.58456,0.0061 -0.61629,0.01067 -1.23255,0.0245 -1.84882,0.0367 -1.47711,0.02926 -2.95433,0.04927 -4.43175,0.05505 -0.33079,0.0013 -0.66159,-0.0015 -0.99238,0 -0.53021,0.0024 -1.06038,0.0092 -1.59053,0.01223 -0.43538,0.0025 -0.86986,-0.001 -1.30506,0.0061 -0.39877,0.0065 -0.79759,0.0028 -1.1963,0.01224 -0.19094,0.0045 -0.38035,0.01876 -0.57096,0.03059 -0.16753,0.0104 -0.33597,0.01936 -0.50298,0.0367 -0.0366,0.0038 -0.0723,0.01331 -0.10876,0.01835 -0.24253,0.03358 0.15657,-0.03308 -0.16313,0.02447 -0.0135,0.0024 -0.0545,0.0071 -0.0408,0.0061 0.0952,-0.0071 0.18997,-0.02537 0.28548,-0.02447 0.21189,0.002 0.78664,0.08454 0.938,0.103996"
       id="path37841" />
  </g>
</svg>
