<?xml version="1.0" encoding="UTF-8" standalone="no"?>
<!-- Created with Inkscape (http://www.inkscape.org/) -->

<svg
   width="77.910851mm"
   height="13.411866mm"
   viewBox="0 0 77.910851 13.411866"
   version="1.1"
   id="svg5"
   sodipodi:docname="string-crossed.svg"
   inkscape:version="1.2.2 (b0a8486541, 2022-12-01)"
   xmlns:inkscape="http://www.inkscape.org/namespaces/inkscape"
   xmlns:sodipodi="http://sodipodi.sourceforge.net/DTD/sodipodi-0.dtd"
   xmlns="http://www.w3.org/2000/svg"
   xmlns:svg="http://www.w3.org/2000/svg">
  <sodipodi:namedview
     id="namedview7"
     pagecolor="#ffffff"
     bordercolor="#666666"
     borderopacity="1.0"
     inkscape:showpageshadow="2"
     inkscape:pageopacity="0.0"
     inkscape:pagecheckerboard="0"
     inkscape:deskcolor="#d1d1d1"
     inkscape:document-units="mm"
     showgrid="false"
     inkscape:zoom="4.6354114"
     inkscape:cx="102.04057"
     inkscape:cy="44.009039"
     inkscape:window-width="2560"
     inkscape:window-height="1372"
     inkscape:window-x="0"
     inkscape:window-y="32"
     inkscape:window-maximized="1"
     inkscape:current-layer="layer1"
     showguides="true" />
  <defs
     id="defs2" />
  <g
     inkscape:label="Layer 1"
     inkscape:groupmode="layer"
     id="layer1"
     transform="translate(-114.37358,-54.378698)">
    <path
       style="fill:none;stroke:#000000;stroke-width:1;stroke-linecap:round;stroke-linejoin:round"
       d="m 114.87358,61.455951 c 0.13141,-0.002 0.26281,-0.0061 0.39423,-0.0061 1.15985,0 -0.68507,0.03503 1.4546,-0.0061 0.96135,-0.01849 1.92178,-0.08298 2.88199,-0.128463 0.89752,-0.04251 0.037,0.01215 1.10114,-0.05506 0.0895,-0.0057 0.18274,-0.0111 0.27188,-0.02447"
       id="path40216" />
    <path
       style="fill:#6ae4a3;fill-opacity:1;stroke:#000000;stroke-width:1;stroke-linecap:round;stroke-linejoin:round"
       d="m 120.85507,56.843586 c 6.7e-4,0.205401 0.10408,0.388867 0.13595,0.58725 0.0357,0.222585 0.0572,0.447711 0.068,0.672892 0.0119,0.248481 0.0112,0.497783 0,0.746297 -0.0115,0.25563 -0.0452,0.509776 -0.068,0.764649 -0.0135,0.150902 -0.0361,0.301244 -0.0408,0.452674 -0.004,0.142738 0.002,0.285871 0.0136,0.428203 0.0111,0.135342 0.0287,0.270389 0.0544,0.403735 0.0459,0.238618 0.13083,0.470632 0.17672,0.709595 0.0211,0.109588 0.0358,0.220293 0.0544,0.330328 0.0352,0.208481 0.0712,0.413255 0.0952,0.623956 0.0179,0.157445 0.0136,0.168038 0.0136,0.324211 0,0.212062 0,0.424124 0,0.636187 0,0.273234 0,0.546469 0,0.819704 0,0.08972 0.003,0.17949 0,0.269156 -0.003,0.08775 -0.0106,0.175293 -0.0136,0.26304 -0.002,0.04687 0.002,0.09385 0,0.140696 -0.002,0.04909 -0.0104,0.09777 -0.0136,0.146813 -0.006,0.08964 -0.007,0.179539 -0.0136,0.269156 -0.003,0.04093 -0.0113,0.08137 -0.0136,0.122343 -0.002,0.04072 0,0.08156 0,0.122346 0,0.179157 -4.8e-4,0.268299 0.0272,0.434319 0.007,0.04095 0.0334,0.23747 0.068,0.256923 0.0124,0.007 0.0278,0.0064 0.0408,0.01224 0.01,0.0045 0.0169,0.01455 0.0272,0.01835 0.15193,0.0563 0.20662,0.06964 0.35345,0.103993 0.31685,0.07414 0.306,0.06593 0.76128,0.122344 0.26076,0.03231 0.55523,0.05351 0.81566,0.06117 0.69442,0.02044 1.38574,0.01771 2.07993,0.01223 0.96986,-0.0077 1.93937,-0.0043 2.90918,0.0061 0.34459,0.0037 0.68851,0.01524 1.03317,0.0061 0.23078,-0.0061 0.24272,-0.0028 0.48939,-0.03059 0.0185,-0.0021 0.039,-0.0019 0.0544,-0.01223 0.014,-0.0095 0.0167,-0.02958 0.0272,-0.04282 0.0122,-0.01544 0.0308,-0.0258 0.0408,-0.04282 0.0132,-0.02252 0.0125,-0.05183 0.0272,-0.07341 0.0538,-0.07914 0.12285,-0.147222 0.17673,-0.226337 0.0325,-0.04775 0.0547,-0.101783 0.0816,-0.15293 0.032,-0.061 0.07,-0.119365 0.0952,-0.183515 0.13048,-0.332703 0.14065,-0.38978 0.20391,-0.685128 0.0188,-0.08755 0.0411,-0.174499 0.0544,-0.263037 0.0473,-0.314322 0.0675,-0.539176 0.0952,-0.838057 0.009,-0.0999 0.0227,-0.199518 0.0272,-0.299742 0.0192,-0.42838 0.0161,-0.846535 -0.0272,-1.272376 -0.0247,-0.242917 -0.0485,-0.486025 -0.0816,-0.727947 -0.0334,-0.244574 -0.10467,-0.483092 -0.13595,-0.727947 -0.0298,-0.233686 -0.0528,-0.468383 -0.068,-0.703477 -0.007,-0.115985 0,-0.232454 0,-0.348681 0,-0.541815 -0.005,-0.229832 0.0272,-0.97875 0.009,-0.207995 0.0272,-0.415772 0.0272,-0.623954 0,-0.21415 -0.002,-0.42849 -0.0136,-0.642306 -0.001,-0.0249 -0.0758,-0.60744 -0.0816,-0.642306 -0.0282,-0.169869 -0.0686,-0.337593 -0.0952,-0.507726 -0.0222,-0.142142 -0.01,-0.215225 -0.0136,-0.354799 -4.8e-4,-0.01605 -0.0213,-0.374005 -0.0136,-0.458789 0.005,-0.04957 0.0178,-0.09795 0.0272,-0.146813 0.0178,-0.09183 0.0329,-0.184237 0.0544,-0.275274 0.0103,-0.04373 0.0334,-0.08414 0.0408,-0.12846 0.0103,-0.06186 -0.0102,-0.217065 -0.0136,-0.269158 -0.002,-0.03053 0.001,-0.07285 0,-0.07341 -0.0808,-0.03183 -0.29891,-0.04892 -0.38065,-0.05505 -0.40307,-0.03023 -0.80566,-0.04917 -1.20989,-0.04282 -0.26286,0.0041 -0.52574,0.0089 -0.78847,0.01835 -0.1904,0.0068 -0.64225,0.04159 -0.82925,0.05505 -0.63439,0.04567 -1.26929,0.0883 -1.9032,0.140695 -0.28556,0.0236 -0.57128,0.04551 -0.85644,0.07341 -0.50418,0.04932 -1.00687,0.13775 -1.50897,0.201867 -0.24835,0.03171 -0.49866,0.04794 -0.74769,0.07341 -0.14496,0.01482 -0.29025,0.01611 -0.43502,0.03059 -0.077,0.0077 -0.15506,0.03141 -0.2311,0.04282 -0.14387,0.02158 -0.29104,0.03616 -0.43502,0.05506 -0.11408,0.01497 -0.22638,0.0293 -0.33986,0.04894 -0.0218,0.0038 -0.12559,0.009 -0.13594,0.01835 -0.008,0.0068 0.001,0.02049 0,0.03059 -0.003,0.02266 -0.0115,0.0445 -0.0136,0.06729 -0.007,0.07526 -0.008,0.150962 -0.0136,0.226336 -0.003,0.04699 -0.0114,0.09363 -0.0136,0.140696 -0.008,0.16856 0.012,0.335041 0.0408,0.50161 0.0119,0.06867 0.0367,0.134446 0.0544,0.201868 0.0368,0.140565 0.0778,0.280125 0.10875,0.422086 0.0145,0.06634 0.0181,0.134578 0.0272,0.201867 0.0284,0.211081 0.0502,0.423923 0.068,0.636189 10e-4,0.01714 -2e-5,0.122321 0,0.122344 0.0739,0.06655 0.0181,-0.02245 0.0544,0.04282"
       id="path40218" />
    <path
       style="fill:none;stroke:#000000;stroke-width:1;stroke-linecap:round;stroke-linejoin:round"
       d="m 125.49073,63.193235 c -0.0226,-0.8299 0.0767,-1.672187 -0.068,-2.4897 -0.0497,-0.280839 -0.78222,-0.951516 -0.99238,-1.143913 -0.0915,-0.08374 -0.18957,-0.15996 -0.28548,-0.238573 -0.031,-0.0254 -0.12997,-0.05357 -0.0952,-0.07341 0.0875,-0.04987 0.19943,-0.02825 0.29908,-0.04282 0.17239,-0.02521 0.34385,-0.05677 0.51658,-0.07952 0.0949,-0.0125 0.19035,-0.02014 0.28548,-0.03059 0.51308,-0.05631 0.0218,-0.0063 0.66613,-0.06729 0.11809,-0.01119 0.25159,-0.04824 0.36704,0 0.059,0.02466 0.0656,0.09051 0.0816,0.140696"
       id="path40220" />
    <path
       style="fill:none;stroke:#000000;stroke-width:1;stroke-linecap:round;stroke-linejoin:round"
       d="m 125.15087,61.431482 c 0.87255,0.0032 1.48065,0.01291 2.28385,0 0.0453,-7.41e-4 0.0906,-0.0045 0.13594,-0.0061 0.0136,-4.76e-4 0.0342,-0.01188 0.0408,0 0.008,0.0148 -0.009,0.03263 -0.0136,0.04894"
       id="path40222" />
    <path
       style="fill:none;stroke:#000000;stroke-width:1;stroke-linecap:round;stroke-linejoin:round"
       d="m 130.85968,57.860664 c 0.097,0.07395 0.20653,-9e-4 0.30761,0.0173 0.0395,0.0071 0.0765,0.02461 0.11535,0.0346 1.01313,0.248665 -0.0567,-0.0215 0.71133,0.190321 0.10197,0.02812 0.20549,0.05029 0.30761,0.07786 0.69529,0.18772 0.47667,0.130641 0.99971,0.285484 0.86266,0.255387 1.67916,0.530668 2.49928,0.899708 0.34669,0.156004 0.69189,0.381448 0.99971,0.596919 0.0746,0.05223 0.14044,0.11603 0.21148,0.17302 0.0764,0.06125 0.15795,0.116195 0.23071,0.181673 0.51122,0.460084 0.9503,0.993658 1.46111,1.453369 0.38397,0.345558 0.79789,0.651924 1.2112,0.960266 0.23802,0.177571 0.46827,0.365743 0.71133,0.53636 0.22304,0.156568 0.59193,0.372457 0.78824,0.493109 0.0836,0.0514 0.16533,0.105939 0.24993,0.155719 0.32375,0.190511 0.70852,0.400551 1.0766,0.493109 0.15289,0.03845 0.30639,0.07519 0.46141,0.103811 0.0952,0.01758 0.19226,0.02307 0.28838,0.0346 0.43835,0.0526 0.24481,0.03476 0.82669,0.06921 0.064,0.0038 0.1282,0.005 0.19225,0.0086 0.0509,0.0029 0.18444,0.04448 0.21148,-0.0346 0.007,-0.02183 0,-0.04614 0,-0.06921"
       id="path40260" />
    <path
       style="fill:#6ae4a3;fill-opacity:1;stroke:#000000;stroke-width:1;stroke-linecap:round;stroke-linejoin:round"
       d="m 144.02898,60.507877 c 0.10254,0.392179 0.19545,0.787 0.3076,1.176538 0.40944,1.422098 0.34592,0.63174 0.44219,2.422289 0.0122,0.227571 -0.002,0.456187 -0.0192,0.683429 -0.0153,0.201581 -0.15534,0.914717 -0.0769,1.228446 0.0268,0.107336 0.093,0.201729 0.1538,0.294135 0.0424,0.06445 0.10157,0.116219 0.1538,0.17302 0.0247,0.02685 0.0462,0.05813 0.0769,0.07786 0.10736,0.06901 0.009,-0.06139 0.11535,0.0346 0.0178,0.016 0.0226,0.04268 0.0385,0.06056 0.0103,0.01156 0.0269,0.01561 0.0384,0.02596 0.008,0.0072 0.0103,0.01993 0.0192,0.02595 0.085,0.05737 0.21115,0.06706 0.3076,0.08651 0.14106,0.02846 0.28256,0.05492 0.42296,0.08651 0.53406,0.120161 -0.10416,0.0037 0.51908,0.112465 0.40363,0.07043 0.65538,0.120306 1.03816,0.164369 0.38958,0.04484 1.10213,0.09702 1.40345,0.112465 0.18562,0.0095 0.37168,0.0058 0.55753,0.0086 1.01483,0.01574 0.221,0.0077 1.71105,0 0.70496,-0.0036 1.40976,-0.0086 2.11477,-0.0086 0.0705,0 0.14099,0 0.21148,0 0.0897,0 0.17946,-0.0024 0.26915,0 0.0194,5.02e-4 0.0399,0.01663 0.0577,0.0086 0.0196,-0.0088 0.0306,-0.03186 0.0385,-0.05191 0.0118,-0.03013 0.0166,-0.06291 0.0192,-0.09516 0.0237,-0.287826 0.0192,-0.366668 0.0192,-0.631524 0,-0.396647 0.003,-0.616164 -0.0192,-1.072727 -0.01,-0.209631 -0.0623,-0.686152 -0.0961,-0.891054 -0.0459,-0.277776 -0.10687,-0.552899 -0.15381,-0.830498 -0.14038,-0.830235 -0.0773,-0.693628 -0.26915,-1.513927 -0.0315,-0.13448 -0.0765,-0.265413 -0.11535,-0.397949 -0.12137,-0.414147 -0.22902,-0.759375 -0.34606,-1.193842 -0.005,-0.017 -0.12608,-0.549266 -0.13457,-0.605569 -0.0121,-0.08009 -0.0136,-0.161427 -0.0192,-0.242229 -7.9e-4,-0.01151 0.0113,-0.03207 0,-0.03461 -0.11035,-0.02483 -0.30669,-0.01503 -0.42295,-0.0173 -0.54397,-0.01064 0.0211,-0.02741 -0.92281,0.0173 -0.62244,0.02948 -0.50511,0.04087 -1.32654,0.138415 -0.16002,0.019 -0.321,0.02992 -0.48063,0.05191 -0.15452,0.02128 -0.30709,0.05519 -0.46141,0.07786 -0.15976,0.02347 -0.32054,0.03943 -0.48063,0.06056 -0.78402,0.103486 -0.80773,0.11889 -1.4419,0.18167 -0.5694,0.05637 -1.14024,0.08544 -1.71104,0.121115 -0.10908,0.0068 -0.21774,0.01941 -0.32683,0.02595 -0.17932,0.01076 -0.35884,0.01808 -0.53831,0.02596 -0.0833,0.0037 -0.16754,-0.0041 -0.24992,0.0086 -0.14282,0.02204 -0.27861,0.0885 -0.42296,0.09516 -0.11068,0.0051 -0.21614,-0.05573 -0.32683,-0.06056 -0.28809,-0.01255 -0.42554,0.111371 -0.69211,0.242225"
       id="path40262" />
    <path
       style="fill:none;stroke:#000000;stroke-width:1;stroke-linecap:round;stroke-linejoin:round"
       d="m 149.89268,61.978549 c -0.31401,0.0087 -0.63674,-0.04802 -0.94204,0.02596 -0.82224,0.199228 -1.38415,0.879975 -1.65337,1.643696 -0.14378,0.407882 -0.19129,0.734625 0.0769,1.107328 0.11753,0.163337 0.29552,0.275372 0.4614,0.389298 0.2616,0.179675 0.96266,0.223837 1.11506,0.224926 0.3077,0.0022 0.40536,-0.103517 0.53831,-0.33739 0.0237,-0.04163 0.0435,-0.0908 0.0385,-0.138415 -0.0199,-0.188143 -0.11227,-0.286058 -0.24993,-0.389298 -0.0439,-0.03296 -0.0914,-0.06117 -0.13457,-0.09516 -0.008,-0.0067 -0.0282,-0.01993 -0.0192,-0.02596 0.0159,-0.01076 0.0385,7.94e-4 0.0577,0 0.0513,-0.0021 0.10254,-0.0058 0.15381,-0.0086 0.0705,0 0.141,0.0017 0.21147,0 0.39088,-0.0093 0.44848,-0.01056 0.76901,-0.0346 0.23264,-0.01745 0.23234,-0.01334 0.48063,-0.06921 0.0392,-0.0088 0.0795,-0.01665 0.11536,-0.0346 0.0231,-0.01156 0.0384,-0.0346 0.0577,-0.05191"
       id="path40264" />
    <path
       style="fill:none;stroke:#000000;stroke-width:1;stroke-linecap:round;stroke-linejoin:round"
       d="m 153.1033,65.101571 c 2.21897,-0.02813 2.1018,0.201156 3.55667,-0.259533 0.72904,-0.230855 1.41606,-0.563601 2.01865,-1.038123 0.28855,-0.227222 0.47866,-0.427595 0.73056,-0.692079 0.1168,-0.122635 0.22588,-0.252659 0.34605,-0.371994 0.20789,-0.206441 0.2108,-0.148856 0.40374,-0.363344 0.0504,-0.05603 0.0842,-0.125641 0.13457,-0.18167 0.059,-0.06555 0.12969,-0.119544 0.19226,-0.181674 0.12331,-0.122455 0.23795,-0.253714 0.36527,-0.371994 0.0717,-0.06662 0.15581,-0.118657 0.23071,-0.18167 0.29032,-0.244244 0.55132,-0.521664 0.84591,-0.761289 0.24225,-0.197053 0.67511,-0.504592 0.88436,-0.640178 0.11048,-0.07159 0.23249,-0.123732 0.34606,-0.19032 0.098,-0.05746 0.18873,-0.12709 0.28837,-0.181674 0.13791,-0.07555 0.63375,-0.33135 0.86514,-0.423899 0.22607,-0.09043 0.46095,-0.157094 0.69211,-0.233579 0.35521,-0.117525 0.68779,-0.207363 1.05739,-0.294134 0.11283,-0.02649 0.46132,-0.09699 0.57675,-0.112461 0.73201,-0.09812 1.43455,-0.105304 2.17246,-0.121115 0.42933,-0.0092 0.85868,-0.01194 1.28809,-0.0173 0.0897,-0.0011 0.17943,0 0.26915,0 0.0192,0 0.0757,-0.0068 0.0577,0 -0.0557,0.02087 -0.11535,0.02884 -0.17303,0.04325"
       id="path40266" />
    <path
       style="fill:none;stroke:#000000;stroke-width:1;stroke-linecap:round;stroke-linejoin:round"
       d="m 130.60976,64.928548 c 1.088,0.05193 1.28706,0.140829 2.30703,-0.08651 0.95642,-0.213175 1.93597,-0.653523 2.76843,-1.167888 0.59413,-0.367106 1.1419,-0.808805 1.69182,-1.237096 0.54976,-0.428158 1.12084,-0.830128 1.65337,-1.280349 0.0673,-0.05692 0.12912,-0.120123 0.19225,-0.181674 0.12914,-0.1259 0.25851,-0.251608 0.38451,-0.380644 0.0599,-0.06134 0.11152,-0.130592 0.17303,-0.19032 0.0605,-0.05873 0.13112,-0.106301 0.19225,-0.16437 0.36103,-0.342967 -0.11462,0.0217 0.49985,-0.432553 0.14866,-0.109896 0.25808,-0.170859 0.42296,-0.25953 0.18506,-0.09952 0.37016,-0.199054 0.55753,-0.294134 0.3374,-0.171201 0.36476,-0.164719 0.71134,-0.328739 0.25103,-0.118805 0.49724,-0.247779 0.74978,-0.363344 0.12574,-0.05754 0.25578,-0.105216 0.38451,-0.155716 0.41566,-0.163061 0.83823,-0.313785 1.26886,-0.432553 0.34336,-0.0947 0.74536,-0.173431 1.07662,-0.242229 0.33938,-0.07048 0.67934,-0.138165 1.01894,-0.207625 0.38435,-0.07861 0.76899,-0.15581 1.15351,-0.233575 0.13331,-0.02696 0.95296,-0.193813 1.09584,-0.216279 0.72892,-0.114601 0.93617,-0.136456 1.55724,-0.19897 0.62733,-0.06314 1.25566,-0.128653 1.88408,-0.181674 0.56959,-0.04806 1.14072,-0.07491 1.71105,-0.112461 0.51874,-0.03416 1.03753,-0.05722 1.55725,-0.06921 0.38944,-0.009 0.65793,-0.01893 1.07661,-0.0086 0.11564,0.0028 0.23071,0.0173 0.34606,0.02595 0.11535,0.0087 0.23115,0.01258 0.34605,0.02595 0.25693,0.0299 0.51267,0.06921 0.76901,0.103811 0.28814,0.0389 0.50162,0.06308 0.78823,0.121114 0.25077,0.05078 0.50081,0.105404 0.74979,0.16437 0.23282,0.05514 0.46159,0.126201 0.69211,0.190324 0.4791,0.13327 0.96974,0.255904 1.44189,0.415249 0.10772,0.03635 0.73005,0.257383 0.94204,0.337389 0.35889,0.135449 0.70553,0.297856 1.05739,0.449854 0.0764,0.03299 0.1538,0.06344 0.2307,0.09516 0.14739,0.06344 0.29513,0.126098 0.44218,0.190324 0.13524,0.05906 0.26838,0.122865 0.40373,0.18167 0.24391,0.10597 0.49418,0.197963 0.73056,0.320089 0.23774,0.122826 0.47535,0.245897 0.71134,0.371994 0.14083,0.07526 0.28486,0.144746 0.42295,0.224925 0.0609,0.03535 0.115,0.08126 0.17303,0.121115 0.0637,0.04377 0.13023,0.08361 0.19225,0.129765 0.51752,0.385136 0.13806,0.09782 0.44218,0.380644 0.0491,0.04568 0.10491,0.08385 0.1538,0.129765 0.0986,0.0926 0.18877,0.193974 0.28838,0.285484 0.0544,0.04997 0.11433,0.09359 0.17303,0.138419 0.1528,0.116675 0.30518,0.234 0.46141,0.346039 0.049,0.03514 0.1027,0.06317 0.1538,0.09516 0.18476,0.115671 0.26877,0.176382 0.44218,0.268183 0.057,0.03017 0.11666,0.05518 0.17302,0.08651 0.0527,0.02929 0.0998,0.06828 0.15381,0.09516 0.1258,0.06267 0.25785,0.112096 0.3845,0.173019 0.0593,0.02853 0.11495,0.06419 0.17303,0.09516 0.11496,0.06131 0.2311,0.120364 0.34606,0.18167 0.15792,0.08422 0.1985,0.115274 0.36527,0.190321 0.20297,0.09133 0.40498,0.186436 0.61521,0.259533 0.20196,0.07022 0.41126,0.117429 0.61521,0.18167 0.18209,0.05736 0.17225,0.07193 0.36528,0.112464 0.0551,0.01158 0.40801,0.07422 0.53831,0.09516 0.14624,0.0235 0.31792,0.06457 0.4614,0 0.0236,-0.01062 0.0384,-0.0346 0.0577,-0.05191"
       id="path40268" />
    <path
       style="fill:none;stroke:#000000;stroke-width:1;stroke-linecap:round;stroke-linejoin:round"
       d="m 169.69469,58.293217 c 3.67014,0.213094 1.26944,0.08221 3.11449,0.17302 0.24435,0.01203 0.47117,0.02596 0.71133,0.02596"
       id="path40270" />
    <path
       style="fill:#6ae4a3;fill-opacity:1;stroke:#000000;stroke-width:1;stroke-linecap:round;stroke-linejoin:round"
       d="m 174.36642,56.251576 c -0.0385,0.767057 -0.10636,1.533203 -0.11535,2.30117 -0.004,0.329715 0.0551,0.657204 0.0769,0.986218 0.0166,0.250656 0.0256,0.501759 0.0384,0.752638 0.0128,0.25088 0.0317,0.501523 0.0385,0.752639 0.0114,0.423747 0,0.847801 0,1.271701 0,0.319829 0.007,0.715547 -0.0192,1.038123 -0.003,0.04069 -0.10775,0.832513 -0.11535,0.882403 -0.0102,0.06678 -0.0283,0.132185 -0.0384,0.198975 -0.0243,0.160078 -0.0385,0.322772 -0.0385,0.484454 0,0.07498 0,0.149953 0,0.224929 0,0.02307 -0.007,0.04722 0,0.06921 0.007,0.02052 0.0265,0.03399 0.0385,0.05191 0.007,0.01098 0.009,0.02577 0.0192,0.0346 0.0867,0.07805 0.22091,0.06664 0.32684,0.07786 0.0643,0.0068 0.12768,0.02232 0.19224,0.02596 0.4937,0.02777 0.98645,0.02213 1.48035,0.0173 0.57919,-0.0057 1.36553,-0.0061 1.9802,-0.0173 0.23714,-0.0043 0.47418,-0.01349 0.71134,-0.0173 0.94879,-0.01525 1.89682,-0.01347 2.84533,-0.0346 0.41653,-0.0093 0.83318,-0.01399 1.24964,-0.02595 0.4703,-0.01351 0.58521,-0.03309 1.03817,-0.05191 0.25626,-0.01064 0.51267,-0.01725 0.76901,-0.02596 0.15514,-0.0053 0.32783,0.0047 0.48063,-0.0346 0.0195,-0.005 0.051,0.0016 0.0577,-0.0173 0.0391,-0.109815 0.0192,-0.431763 0.0192,-0.553664 0,-0.421965 -0.006,-0.842096 -0.0385,-1.263051 -0.0222,-0.28577 -0.0473,-0.571347 -0.0769,-0.856449 -0.0618,-0.59589 -0.16606,-1.189633 -0.24993,-1.782111 -0.0216,-0.152519 -0.0347,-0.306192 -0.0577,-0.458504 -0.0843,-0.558442 -0.23832,-1.103457 -0.32682,-1.660996 -0.0232,-0.146485 -0.0386,-0.29412 -0.0577,-0.441204 -0.0386,-0.297002 -0.0801,-0.593639 -0.11534,-0.891053 -0.016,-0.135192 -0.0248,-0.271151 -0.0385,-0.406599 -0.012,-0.118322 -0.0359,-0.235797 -0.0385,-0.354694 -0.001,-0.04459 0.009,-0.562031 0.0385,-0.735334 0.0175,-0.102451 0.059,-0.206789 0.0961,-0.302788 0.006,-0.01472 0.0122,-0.02911 0.0192,-0.04325 0.006,-0.01183 0.0232,-0.02202 0.0192,-0.0346 -0.009,-0.02957 -0.0799,-0.03279 -0.0961,-0.0346 -0.0832,-0.0094 -0.16645,-0.01912 -0.24992,-0.02596 -0.54224,-0.04436 -1.09732,0.02305 -1.63416,0.09516 -0.29488,0.03961 -0.58924,0.08317 -0.88435,0.121114 -0.26867,0.03454 -0.63262,0.0693 -0.90359,0.09516 -0.27553,0.0263 -0.55076,0.05618 -0.82669,0.07786 -0.1279,0.01005 -0.25641,0.0101 -0.38451,0.0173 -0.49987,0.02812 -0.99964,0.05908 -1.49957,0.08651 -0.64685,0.0355 -1.29424,0.07185 -1.94175,0.09516 -0.36472,0.01313 -0.73117,0.01471 -1.09583,0.0346 -0.25508,0.01391 -0.5141,0.02985 -0.76901,0.05191 -0.64527,0.05584 -0.1192,0.01227 -0.44218,0.05191 -0.099,0.01215 -0.25263,0.01884 -0.32683,0.09516 -0.0696,0.07155 -0.0621,0.123067 -0.0769,0.216275"
       id="path40272" />
    <path
       style="fill:none;stroke:#000000;stroke-width:1;stroke-linecap:round;stroke-linejoin:round"
       d="m 177.01951,58.794976 c -0.10208,1.224416 -0.005,2.428398 0.11535,3.642078 0.0144,0.145603 0.0577,0.360337 0.0577,0.519063"
       id="path40274" />
    <path
       style="fill:none;stroke:#000000;stroke-width:1;stroke-linecap:round;stroke-linejoin:round"
       d="m 176.92339,61.615209 c 4.06771,-0.350166 0.91667,-0.100946 2.97991,-0.233579 0.13223,-0.0085 0.52195,-0.02809 0.6921,-0.07786 0.0484,-0.01416 0.0897,-0.04614 0.13458,-0.06921"
       id="path40276" />
    <path
       style="fill:none;stroke:#000000;stroke-width:1;stroke-linecap:round;stroke-linejoin:round"
       d="m 179.9033,58.99395 c 0.44764,1.050534 1.06414,2.103535 1.21118,3.261433 0.0164,0.128888 0.0143,0.259467 0.0192,0.389295 0.003,0.08158 2.5e-4,0.205433 -0.0192,0.207625 -0.0515,0.0058 -0.0897,-0.0519 -0.13457,-0.07786"
       id="path40278" />
    <path
       style="fill:#6ae4a3;fill-opacity:1;stroke:#000000;stroke-width:1;stroke-linecap:round;stroke-linejoin:round"
       d="m 185.67087,60.421367 c 0.30761,0.04326 0.61413,0.09504 0.92281,0.129765 0.44536,0.0501 1.50464,0.0555 1.76873,0.06056 0.84617,0.0162 1.69164,0.0092 2.53773,-0.0087 0.0806,-0.0017 0.48271,-0.01118 0.59598,-0.0173 0.077,-0.0042 0.15456,-0.0051 0.23071,-0.0173 0.0153,-0.0025 0.0231,-0.02825 0.0384,-0.02596 0.0131,0.002 0.0128,0.02307 0.0192,0.0346"
       id="path40280" />
  </g>
</svg>
