<?xml version="1.0" encoding="UTF-8" standalone="no"?>
<!-- Created with Inkscape (http://www.inkscape.org/) -->

<svg
   width="33.038181mm"
   height="16.096241mm"
   viewBox="0 0 33.038181 16.096241"
   version="1.1"
   id="svg5"
   sodipodi:docname="trace.svg"
   inkscape:version="1.2.2 (b0a8486541, 2022-12-01)"
   xmlns:inkscape="http://www.inkscape.org/namespaces/inkscape"
   xmlns:sodipodi="http://sodipodi.sourceforge.net/DTD/sodipodi-0.dtd"
   xmlns="http://www.w3.org/2000/svg"
   xmlns:svg="http://www.w3.org/2000/svg">
  <sodipodi:namedview
     id="namedview7"
     pagecolor="#ffffff"
     bordercolor="#666666"
     borderopacity="1.0"
     inkscape:showpageshadow="2"
     inkscape:pageopacity="0.0"
     inkscape:pagecheckerboard="0"
     inkscape:deskcolor="#d1d1d1"
     inkscape:document-units="mm"
     showgrid="false"
     inkscape:zoom="6.5554616"
     inkscape:cx="63.153448"
     inkscape:cy="41.339576"
     inkscape:window-width="2560"
     inkscape:window-height="1372"
     inkscape:window-x="0"
     inkscape:window-y="32"
     inkscape:window-maximized="1"
     inkscape:current-layer="layer1"
     showguides="true" />
  <defs
     id="defs2" />
  <g
     inkscape:label="Layer 1"
     inkscape:groupmode="layer"
     id="layer1"
     transform="translate(-139.62947,-48.419395)">
    <path
       style="fill:#6ae4a3;fill-opacity:1;stroke:#000000;stroke-width:1;stroke-dasharray:none;stroke-opacity:1"
       d="m 148.55403,51.789135 c -0.0634,-0.0041 -0.12687,-0.0031 -0.19032,-0.0031 -0.007,0 -0.0204,-0.0068 -0.0204,0 0,0.0069 0.0153,-0.0015 0.0204,0.0031 0.003,0.0025 -0.006,0.0054 -0.007,0.0092 -0.002,0.01313 -0.002,0.0267 0,0.03976 0.002,0.01381 0.01,0.02633 0.0136,0.03976 0.005,0.01718 0.009,0.03473 0.0136,0.052 0.045,0.161954 0.10443,0.319492 0.14274,0.483259 0.007,0.02954 0.016,0.05868 0.0204,0.0887 0.008,0.0524 0.0248,0.216777 0.0272,0.290567 0.001,0.03566 -7.7e-4,0.07137 0,0.107051 0.002,0.06935 0.005,0.138636 0.007,0.207985 0.003,0.126863 -0.003,0.252252 0.007,0.379266 0.002,0.03084 0.0102,0.06103 0.0136,0.09176 0.0106,0.09549 0.0137,0.191666 0.0204,0.287507 0.009,0.126221 0.0204,0.252611 0.0204,0.379267 0,0.0327 -0.004,0.06525 -0.007,0.09787 -0.0153,0.216627 0.004,-0.0531 -0.0272,0.293625 -0.003,0.03358 -0.003,0.06738 -0.007,0.100934 -0.0109,0.10912 -0.0291,0.184237 -0.0476,0.299742 -0.005,0.03352 -0.009,0.06729 -0.0136,0.100934 -0.007,0.03466 -0.0144,0.06917 -0.0204,0.103993 -0.0122,0.07123 -0.0218,0.142874 -0.034,0.214102 -0.006,0.03482 -0.0145,0.06916 -0.0204,0.103992 -0.005,0.03248 -0.008,0.0654 -0.0136,0.09787 -0.0104,0.06134 -0.0235,0.122194 -0.034,0.183517 -0.0209,0.122332 -0.0383,0.249878 -0.0476,0.373149 -0.004,0.05591 0,0.112148 0,0.168223 0,0.08258 -0.004,0.165243 0,0.247747 0.007,0.164207 0.0136,-0.02323 0.0136,0.226335 0,0.02559 -0.006,0.0509 -0.007,0.07646 -0.003,0.07639 0,0.15293 0,0.229395 0,0.10167 -0.003,0.204354 0,0.305861 0.002,0.05804 0.0103,0.09255 0.0204,0.149871 0.009,0.05199 0.0182,0.103981 0.0272,0.155987 0.005,0.0265 0.0113,0.05273 0.0136,0.07952 0.002,0.02743 0,0.05505 0,0.08258 0,0.05811 -0.001,0.116246 0,0.17434 7.7e-4,0.02964 0.006,0.05907 0.007,0.0887 0.007,0.174741 -0.0139,0.0024 0.007,0.256922 0.002,0.02781 0.009,0.05505 0.0136,0.08258 0.0176,0.107017 0.04,0.213676 0.0544,0.321153 0.0366,0.274498 -0.0436,-0.242192 0.0204,0.211044 0.007,0.05301 0.0366,0.141699 0.0544,0.189632 0.004,0.0096 0.01,0.018 0.0136,0.02753 0.008,0.02075 0.016,0.05142 0.0204,0.07341 8.2e-4,0.004 0,0.0082 0,0.01223 0.002,0.01122 0.004,0.02257 0.007,0.03364 0.008,0.03027 0.0214,0.05725 0.0272,0.0887 0.003,0.01704 0.001,0.0347 0,0.05199 -0.002,0.0345 -0.007,0.09368 -0.0136,0.13152 -0.004,0.02054 -0.009,0.04078 -0.0136,0.06117 -0.009,0.0418 -0.0196,0.0833 -0.0272,0.125403 -0.004,0.02119 -0.004,0.04295 -0.007,0.06423 -0.004,0.02261 -0.0122,0.04445 -0.0136,0.06729 -0.008,0.130669 0.004,0.133565 0,0.241628 -0.001,0.0276 -0.006,0.05497 -0.007,0.08258 -0.002,0.08357 0,0.167203 0,0.250805 0,0.09597 -0.001,0.167541 0.007,0.269156 0.002,0.02781 0.009,0.05505 0.0136,0.08258 0.01,0.0597 0.0365,0.220638 0.0408,0.253863 0.0155,0.120053 -0.004,0.06294 0.0204,0.180457 0.012,0.05745 0.0283,0.113924 0.0408,0.171282 0.006,0.02628 0.008,0.05327 0.0136,0.07952 0.005,0.02479 0.017,0.04824 0.0204,0.07341 0.008,0.0618 0.006,0.124715 0.0136,0.186575 0.004,0.0331 0.0172,0.119879 0.0204,0.140696 0,3e-6 0.0136,0.08564 0.0136,0.08564 0,0.03067 -0.003,0.06129 -0.007,0.09176 -0.002,0.02021 -0.0225,0.07315 -0.0272,0.08258 -0.005,0.01024 -0.0146,0.01767 -0.0204,0.02753 -0.006,0.0096 -0.009,0.02045 -0.0136,0.03059 -0.0136,0.02957 -0.027,0.05922 -0.0408,0.0887 -0.0196,0.04184 -0.0404,0.08434 -0.0544,0.128461 -0.0111,0.03509 -0.0163,0.07189 -0.0272,0.107051 -0.006,0.01869 -0.0139,0.03659 -0.0204,0.05505 -0.007,0.02028 -0.0126,0.04113 -0.0204,0.06117 -0.004,0.0098 -0.0618,0.14471 -0.0748,0.186575 -0.0129,0.04183 -0.0281,0.129682 -0.034,0.162106 -0.005,0.02646 -0.0116,0.0527 -0.0136,0.07952 -0.002,0.02949 -0.003,0.05927 0,0.0887 10e-4,0.01239 0.005,0.02447 0.007,0.0367 0.002,0.02039 0.005,0.04073 0.007,0.06117 0.005,0.06069 -0.006,0.120246 0.007,0.180457 0.007,0.0336 0.0172,0.06676 0.0204,0.100934 0.001,0.01218 -0.001,0.02452 0,0.0367 0.001,0.01239 0.005,0.02433 0.007,0.0367 0.003,0.02948 0.004,0.05922 0.007,0.0887 0.009,0.08325 0.007,-0.0097 0.007,0.07341 0,0.0038 -0.002,0.08254 0,0.08564 0.003,0.0046 0.008,0.0073 0.0136,0.0092 0.0149,0.0054 0.0812,-4.5e-4 0.0952,0 0.0748,0.0024 0.14952,0.0064 0.2243,0.0092 0.0898,0.0034 0.19327,0.0074 0.27869,0.0092 0.1721,0.0035 0.34461,-0.0012 0.51658,-0.0061 0.10649,-0.0031 0.21295,-0.0071 0.31946,-0.0092 0.005,-1.03e-4 0.20129,9.6e-5 0.21072,0 0.0657,-6.62e-4 0.1314,-0.0024 0.19711,-0.0031 0.2334,-0.0023 0.46674,0.002 0.70011,-0.0061 0.0987,-0.0034 0.36901,-0.01837 0.42143,-0.02141 0.0453,-0.0026 0.0906,-0.0072 0.13594,-0.0092 0.19011,-0.0083 0.38072,-0.0049 0.57096,-0.0061 0.10117,-6.61e-4 0.35728,-0.0025 0.48939,-0.0061 0.22667,-0.0062 0.4532,-0.01789 0.67972,-0.02753 0.25596,-0.0109 0.51204,-0.01624 0.76808,-0.02447 0.179,-0.0058 0.35789,-0.01485 0.53697,-0.01835 0.10639,-0.0021 0.21308,0 0.31947,0 0.1314,0 0.26285,-0.0012 0.39423,0 0.16375,0.0015 0.16981,0.0043 0.30587,0.0031 0.16067,-0.0014 0.32197,-0.003 0.4826,-0.0092 0.15179,-0.0059 0.30345,-0.01698 0.45541,-0.01835 0.11781,-0.0011 0.23564,0.0014 0.35345,0 0.23795,-0.0028 0.47579,-0.01389 0.7137,-0.01835 0.23562,-0.0044 0.47126,-0.0031 0.70691,-0.0031 0.11342,0 0.22664,0.0022 0.33986,0.0092 0.0462,-0.0056 0.0905,0.0093 0.13594,0.01224 0.0656,0.0042 0.13161,0.003 0.19712,0.0092 0.0522,0.0049 0.12175,0.01512 0.17672,0.01835 0.0883,0.0052 0.17669,0.0092 0.26509,0.01223 0.0859,0.003 0.17232,0.002 0.25829,0.0031 0.0907,0.0011 0.18124,0.0052 0.27189,0.0061 0.3081,0.0031 0.61632,-0.0036 0.92441,0 0.29689,0.0035 0.59375,0.01991 0.89043,0.03059 0.11322,0.0041 0.22658,0.0074 0.33986,0.0092 0.0317,5.02e-4 0.0634,-10e-4 0.0952,0 0.0181,10e-4 0.0362,0.002 0.0544,0.0031 0.009,0.001 0.0181,0.0025 0.0272,0.0031 0.0181,10e-4 0.0363,-10e-4 0.0544,0 0.009,5.03e-4 0.0181,0.002 0.0272,0.0031 0.0136,0.001 0.0272,0.0025 0.0408,0.0031 0.18106,0.0074 0.36263,0.01406 0.54377,0.01835 0.0249,5.82e-4 0.0498,0 0.0748,0 0.043,10e-4 0.0861,0.0016 0.12915,0.0031 0.14955,0.005 0.29967,0.0076 0.44861,-0.0092 0.0892,-0.01004 0.19388,-0.01624 0.25829,-0.0887 0.0101,-0.01138 0.0179,-0.02463 0.0272,-0.0367 0.0111,-0.01444 0.0268,-0.02606 0.034,-0.04282 0.043,-0.100708 0.0506,-0.218075 0.068,-0.324211 0.004,-0.02258 0.0102,-0.04467 0.0136,-0.06729 0.0181,-0.119385 0.0165,-0.240697 0.0204,-0.360914 0.008,-0.242605 0.007,-0.0469 0.007,-0.201868 0,-0.119577 6.6e-4,-0.132062 -0.007,-0.299742 -0.001,-0.02455 -0.002,-0.04927 -0.007,-0.07341 -0.0261,-0.136828 -0.0727,-0.273899 -0.12234,-0.403736 -0.0163,-0.04256 -0.0396,-0.08229 -0.0544,-0.125402 -0.0155,-0.04528 -0.0304,-0.09093 -0.0408,-0.137637 -0.006,-0.02498 -0.004,-0.05108 -0.007,-0.07646 -0.011,-0.08601 -0.0297,-0.170924 -0.0408,-0.256922 -0.004,-0.02941 -0.003,-0.05924 -0.007,-0.0887 -0.002,-0.01458 -0.0247,-0.158385 -0.0272,-0.17434 -0.009,-0.05709 -0.0164,-0.114487 -0.0272,-0.171282 -0.005,-0.02689 -0.0152,-0.05266 -0.0204,-0.07952 -0.0106,-0.05477 -0.0181,-0.11011 -0.0272,-0.165164 -0.003,-0.01852 -0.025,-0.150957 -0.0272,-0.168224 -0.007,-0.0587 -0.0245,-0.202595 -0.0272,-0.278332 -0.001,-0.03158 8e-4,-0.06322 0,-0.09482 -0.001,-0.05814 -0.005,-0.116203 -0.007,-0.174341 -7.4e-4,-0.02752 0.001,-0.05508 0,-0.08258 -0.004,-0.08763 -0.0195,-0.156778 -0.034,-0.247747 -0.0548,-0.344959 0.025,0.166113 -0.0204,-0.177398 -0.007,-0.05631 -0.0196,-0.111936 -0.0272,-0.168223 -0.004,-0.02737 -0.003,-0.05516 -0.007,-0.08258 -0.0316,-0.260614 0.007,0.179937 -0.0272,-0.25998 -2.9e-4,-0.0037 -0.0129,-0.174917 -0.0136,-0.180458 -0.0138,-0.105178 -0.0312,-0.216702 -0.0544,-0.321153 -0.0105,-0.0471 -0.0248,-0.09332 -0.034,-0.140695 -0.004,-0.02313 -0.003,-0.04703 -0.007,-0.07035 -0.003,-0.02363 -0.01,-0.04674 -0.0136,-0.07035 -0.008,-0.04983 -0.0129,-0.100013 -0.0204,-0.149871 -0.0162,-0.10786 -0.0409,-0.214075 -0.0612,-0.321153 -0.0218,-0.115143 -0.0362,-0.233076 -0.0544,-0.348679 -0.0183,-0.116455 -0.0357,-0.231074 -0.0476,-0.348681 -0.0119,-0.117786 -0.016,-0.234175 -0.034,-0.351739 -0.0423,-0.276145 -6.7e-4,0.0954 -0.034,-0.186575 -0.008,-0.06414 -0.0143,-0.128395 -0.0204,-0.192691 -5.6e-4,-0.0057 -0.0126,-0.172994 -0.0136,-0.180457 -0.007,-0.05732 -0.0195,-0.113984 -0.0272,-0.171282 -0.004,-0.02738 -0.003,-0.05517 -0.007,-0.08258 -0.003,-0.02769 -0.01,-0.05496 -0.0136,-0.08258 -0.007,-0.05192 -0.0126,-0.104132 -0.0204,-0.155989 -0.006,-0.03714 -0.0207,-0.10028 -0.0272,-0.137636 -0.007,-0.04282 -0.0136,-0.08564 -0.0204,-0.128462 -0.005,-0.01937 -0.0101,-0.03853 -0.0136,-0.05811 -0.003,-0.0182 -0.004,-0.03685 -0.007,-0.05506 -0.0153,-0.08626 -0.0368,-0.172844 -0.0476,-0.25998 -10e-4,-0.01113 0,-0.02243 0,-0.03365 0,-0.04334 0.004,-0.08828 0,-0.131518 -10e-4,-0.01742 -0.005,-0.03457 -0.007,-0.052 -0.002,-0.02236 0,-0.04486 0,-0.06729 0,-0.0367 -0.003,-0.07355 0,-0.110109 10e-4,-0.01239 0.005,-0.02434 0.007,-0.0367 0.002,-0.02651 0.005,-0.05302 0.007,-0.07952 0,-0.01427 -0.001,-0.0286 0,-0.04282 0.001,-0.0134 0.005,-0.0264 0.007,-0.03976 0.0151,-0.04018 0.003,-0.08165 0.007,-0.122344 0.001,-0.0134 0.005,-0.02647 0.007,-0.03976 0.01,-0.06411 0.0221,-0.130793 0.0272,-0.19575 0.003,-0.0397 0.004,-0.07957 0.007,-0.119285 0.005,-0.07083 0.0201,-0.140489 0.0272,-0.211043 0.003,-0.02637 -0.002,-0.05307 0,-0.07952 0.001,-0.02351 0.005,-0.04684 0.007,-0.07035 6.8e-4,-0.01017 -0.001,-0.02046 0,-0.03059 0.001,-0.0094 0.005,-0.01818 0.007,-0.02753 0.003,-0.02028 0.004,-0.04086 0.007,-0.06117 0.003,-0.02166 0.0108,-0.04253 0.0136,-0.06423 0.006,-0.04859 0.009,-0.09328 0.0204,-0.140695 0.0123,-0.05169 0.0311,-0.10376 0.0408,-0.15599 0.001,-0.007 -0.001,-0.01436 0,-0.02141 0.001,-0.0074 0.005,-0.01404 0.007,-0.02141 0.007,-0.04076 0.007,-0.07842 0.007,-0.119286 0,-0.05607 0,-0.112148 0,-0.168222 0,-0.04384 0.004,-0.08784 0,-0.13152 -0.001,-0.0124 -0.005,-0.02437 -0.007,-0.0367 -0.003,-0.02235 -0.002,-0.04519 -0.007,-0.06729 -0.008,-0.0381 -0.0499,-0.107762 -0.068,-0.134578 -0.008,-0.01196 -0.0189,-0.02187 -0.0272,-0.03364 -0.008,-0.01071 -0.0113,-0.0242 -0.0204,-0.03364 -0.0325,-0.03371 -0.10177,-0.08856 -0.14274,-0.11928 -0.0524,-0.03932 -0.10111,-0.08101 -0.16313,-0.103993 -0.10231,-0.03791 -0.0417,-0.01549 -0.10876,-0.03059 -0.0902,-0.0203 -0.17976,-0.037 -0.27188,-0.04588 -0.043,-0.0042 -0.0862,-0.0076 -0.12915,-0.01223 -0.0227,-0.0025 -0.0452,-0.0071 -0.068,-0.0092 -0.0226,-0.002 -0.0453,-0.0015 -0.068,-0.0031 -0.16346,-0.01149 -0.32567,-0.03078 -0.4894,-0.03976 -0.14884,-0.0082 -0.29992,-0.008 -0.44861,-0.0092 -0.24915,-0.002 -0.49855,-0.0022 -0.74769,0 -0.28102,0.0024 -0.56192,0.01408 -0.84284,0.02141 -0.23108,0.006 -0.46227,0.008 -0.69331,0.01529 -0.0748,0.0024 -0.14951,0.0087 -0.22431,0.01223 -0.0747,0.0036 -0.14962,0.0045 -0.2243,0.0092 -0.0853,0.0054 -0.52298,0.03789 -0.67972,0.052 -0.0726,0.0065 -0.14494,0.01502 -0.21751,0.02141 -0.13588,0.01196 -0.27191,0.02209 -0.40783,0.03364 -0.068,0.0058 -0.13583,0.01368 -0.20391,0.01835 -0.0656,0.0045 -0.13145,0.0054 -0.19712,0.0092 -0.98082,0.0558 -0.0183,0.0073 -0.57776,0.03059 -0.17676,0.0074 -0.35347,0.01587 -0.53018,0.02447 -0.0521,0.0025 -0.10417,0.007 -0.15633,0.0092 -0.18111,0.0074 -0.36257,0.0069 -0.54377,0.0092 -0.11332,0.0014 -0.22655,0.0071 -0.33986,0.0092 -0.14478,0.0027 -0.29029,0 -0.43502,0 -0.27873,0 -0.55747,-0.0046 -0.83605,-0.01223 -0.1065,-0.0029 -0.21294,-0.0098 -0.31946,-0.01223 -0.12693,-0.0029 -0.25377,-0.0043 -0.38064,-0.0092 -0.10904,7.73e-4 -0.21748,-0.01084 -0.32627,-0.01529 -0.11549,-0.0047 -0.23112,-0.0053 -0.34665,-0.0092 -0.14216,-0.0048 -0.29293,-0.01168 -0.43502,-0.02141 -0.13177,-0.009 -0.26337,-0.026 -0.39423,-0.04282 -4e-5,-4e-6 -0.1767,-0.02446 -0.17673,-0.02447 -0.13114,-0.01349 -0.26303,-0.02081 -0.39423,-0.03364 -0.0318,-0.0031 -0.0634,-0.0088 -0.0952,-0.01223 -0.0882,-0.0094 -0.17664,-0.01267 -0.26509,-0.01835 -0.018,-0.0012 -0.0465,-0.0096 -0.0612,-0.01223 -0.0367,-0.0066 -0.0718,-0.0036 -0.10875,-0.0061 -0.0115,-7.93e-4 -0.0226,-0.0046 -0.034,-0.0061 -0.0384,-0.0052 -0.077,-0.01034 -0.11555,-0.01529 -0.0547,-0.007 -0.11633,-0.01413 -0.16993,-0.02447 -0.007,-0.0013 -0.0134,-0.0049 -0.0204,-0.0061 -0.0361,-0.0065 -0.0727,-0.0064 -0.10875,-0.01223 -0.055,-0.0088 -0.10824,-0.02235 -0.16313,-0.03059 -0.0972,-0.01458 -0.19652,-0.02127 -0.29228,-0.04282 -0.0577,-0.01298 -0.11825,-0.0065 -0.17673,-0.0092 -0.0479,-0.0022 -0.095,-0.01261 -0.14274,-0.01529 -0.0307,-0.0017 -0.0653,-2.29e-4 -0.0952,-0.0092 -0.007,-0.0021 -0.0132,-0.007 -0.0204,-0.0092 -0.007,-0.002 -0.0159,0.0021 -0.0204,-0.0031 -0.0217,-0.02483 -0.0256,-0.06642 -0.0544,-0.08258 -0.0401,-0.02257 -0.0906,-0.01631 -0.13594,-0.02447"
       id="path19551" />
    <text
       xml:space="preserve"
       style="font-style:normal;font-weight:normal;font-size:10.5833px;line-height:1.25;font-family:sans-serif;fill:#000000;fill-opacity:1;stroke:none;stroke-width:0.264583"
       x="153.03838"
       y="58.488964"
       id="text19657"><tspan
         sodipodi:role="line"
         id="tspan19655"
         style="stroke-width:0.264583"
         x="153.03838"
         y="58.488964" /></text>
    <path
       style="fill:#6ae4a3;fill-opacity:1;stroke:#000000;stroke-width:1;stroke-linecap:round;stroke-linejoin:round;stroke-dasharray:none;stroke-opacity:1"
       d="m 148.46415,61.45371 c -0.0449,0.0043 -0.0896,0.01034 -0.13458,0.01298 -0.0704,0.0041 -0.14098,0 -0.21147,0 -0.0833,0 -0.16662,0 -0.24993,0 -0.24032,0 -0.48063,0 -0.72095,0 -0.18915,0 -0.37808,0.0052 -0.56714,0.0086 -0.1986,0.0036 -0.39737,-0.0019 -0.59599,0 -0.50874,0.005 -0.12374,0.0043 -0.43257,0.0043 -0.14752,0 -0.2948,-0.0059 -0.44218,-0.0087 -0.10559,-0.002 -0.21157,0 -0.31721,0 -0.1343,0 -0.26934,-0.0021 -0.40373,0 -0.11904,0.0019 -0.23687,0.0093 -0.35567,0.01298 -0.2179,0.0068 -0.43581,0.0124 -0.65366,0.0173 -0.14739,0.0033 -0.29468,0.0043 -0.44218,0.0043 -0.13137,0 -0.26281,-0.0041 -0.39412,0 -0.0481,0.0015 -0.0961,0.0063 -0.14419,0.0086 -0.0416,0.002 -0.0834,0.0015 -0.12496,0.0043 -0.11219,0.0076 -0.22436,0.02083 -0.33644,0.03028 -0.0515,0.0043 -0.10261,0.01072 -0.1538,0.0173 -0.01,0.0012 -0.0378,6.09e-4 -0.0288,0.0043 0.0464,0.01913 0.0961,0.02884 0.14419,0.04326"
       id="path21961" />
    <path
       style="fill:#6ae4a3;fill-opacity:1;stroke:#000000;stroke-width:1;stroke-linecap:round;stroke-linejoin:round;stroke-dasharray:none;stroke-opacity:1"
       d="m 163.75784,61.501292 c 0.15082,0.01159 0.30181,-0.0021 0.45179,-0.0173 0.42262,-0.04294 0.84585,-0.07801 1.26887,-0.11679 0.0545,-0.005 0.10882,-0.01284 0.16341,-0.0173 0.0512,-0.0042 0.10263,-0.0045 0.1538,-0.0086 0.13475,-0.01103 0.26887,-0.02935 0.40374,-0.03893 0.0768,-0.0055 0.15384,-0.0079 0.2307,-0.01298 0.16909,-0.01119 0.0231,-0.0075 0.19225,-0.01298 0.29795,-0.0096 0.59586,-0.0087 0.89397,-0.0087 0.23698,0 0.4744,-0.0036 0.71134,0 0.10275,-0.0046 0.20505,0.0066 0.3076,0.0087 0.33616,0.0066 0.67306,0 1.00933,0"
       id="path21963" />
    <path
       style="fill:#6ae4a3;fill-opacity:1;stroke:#000000;stroke-width:1;stroke-linecap:round;stroke-linejoin:round"
       d="m 153.47087,55.44165 c -0.0272,0.07137 -0.0708,0.138488 -0.0816,0.214102 -0.0169,0.119112 0,0.240609 0,0.360913 0,0.271194 0.004,0.542723 -0.0136,0.813588 -0.002,0.02303 -0.0513,0.371481 -0.0544,0.397619 -0.0131,0.110849 -0.0489,0.417626 -0.0544,0.568898 -0.0109,0.297837 0.0161,0.596557 0.0408,0.89311 0.009,0.106051 0.0241,0.211722 0.0272,0.318095 0.001,0.04913 -0.0113,0.09772 -0.0136,0.146812 -0.002,0.04889 0.003,0.09797 0,0.146813 -6.3e-4,0.01029 -0.0331,0.350339 -0.0408,0.428205 -0.004,0.04487 -0.012,0.08952 -0.0136,0.134577 -0.009,0.237341 0,0.478188 0,0.715713 0,0.09378 -0.007,0.188969 0.0136,0.28139 0.002,0.0091 0.009,0.01631 0.0136,0.02447 0.005,0.0082 0.004,0.02447 0.0136,0.02447 0.008,0 5.6e-4,-0.01633 0,-0.02447 -0.004,-0.05714 -0.009,-0.114189 -0.0136,-0.171282"
       id="path31571" />
    <path
       style="fill:#6ae4a3;fill-opacity:1;stroke:#000000;stroke-width:1;stroke-linecap:round;stroke-linejoin:round"
       d="m 153.02226,58.041457 c 0.89723,-0.0025 1.79455,0.0081 2.69167,-0.01223 0.72511,-0.01643 0.91321,-0.03701 1.63132,-0.07952 0.2492,-0.01476 0.49853,-0.0273 0.74769,-0.04282 0.14406,-0.009 0.13594,0.03255 0.13594,-0.0367"
       id="path31573" />
    <path
       style="fill:#6ae4a3;fill-opacity:1;stroke:#000000;stroke-width:1;stroke-linecap:round;stroke-linejoin:round"
       d="m 158.29685,55.906558 c -0.005,0.05913 -0.0169,0.118186 -0.0136,0.177398 0.0103,0.182089 0.0446,0.362311 0.0544,0.54443 0.008,0.156783 0,0.314015 0,0.471023 0,0.642306 0,1.284612 0,1.926918 0,0.159047 0,0.318094 0,0.477141 0,0.0469 -0.002,0.09386 0,0.140696 0.003,0.05877 0.0372,0.311829 0.0408,0.336445 0.004,0.02463 0.0109,0.04867 0.0136,0.07341 0.004,0.03648 0,0.07341 0,0.11011 0,0.06117 0,0.122344 0,0.183516"
       id="path31575" />
    <path
       style="fill:none;fill-opacity:1;stroke:#000000;stroke-width:1;stroke-linecap:round;stroke-linejoin:round"
       d="m 163.46268,55.680221 c 0.0725,0.01835 0.14373,0.04286 0.21751,0.05505 0.14865,0.02457 0.29898,0.03755 0.44861,0.05506 0.19437,0.02274 0.57584,0.05782 0.7205,0.06729 0.0859,0.0056 0.17223,0.0031 0.2583,0.0061 0.33982,0.01207 0.67935,0.02861 1.01957,0.02447 0.321,-0.0039 0.39261,-0.01264 0.77487,-0.04282 0.0212,-0.0017 0.47432,-0.0448 0.503,-0.04894 0.15915,-0.02297 0.31713,-0.05344 0.4758,-0.07952 0.077,-0.01266 0.15457,-0.02164 0.2311,-0.0367 0.14153,-0.02787 0.5173,-0.133415 0.59814,-0.159046 0.14652,-0.04645 0.27006,-0.110442 0.40783,-0.177399 1.0082,-0.489965 0.0845,-0.03314 0.7205,-0.367033 0.9376,-0.492218 -0.81981,0.454915 0.67972,-0.354797 0.0447,-0.02413 0.31341,-0.172191 0.35345,-0.201868 0.0459,-0.03404 0.33983,-0.276315 0.42143,-0.36703 0.0356,-0.03962 0.0619,-0.08682 0.0952,-0.128463 0.071,-0.0889 0.14358,-0.176554 0.2175,-0.26304 0.0406,-0.04753 0.19373,-0.207278 0.2311,-0.263039 0.11115,-0.165828 0.13342,-0.222445 0.20392,-0.373147 0.0181,-0.03874 0.0408,-0.07568 0.0544,-0.116227 0.0228,-0.06794 0.0416,-0.137477 0.0544,-0.207985 0.005,-0.03009 -0.002,-0.06126 0,-0.09176 0.002,-0.02882 0.0122,-0.05677 0.0136,-0.08564 0.009,-0.177362 0.001,-0.420573 -0.0408,-0.59337 -0.008,-0.03254 -0.0272,-0.06117 -0.0408,-0.09176 -0.0671,-0.150902 -0.0233,-0.07588 -0.17672,-0.250804 -0.022,-0.02507 -0.0419,-0.05264 -0.068,-0.07341 -0.0334,-0.02655 -0.0743,-0.04213 -0.10875,-0.06729 -0.0745,-0.05447 -0.14566,-0.11336 -0.21751,-0.171282 -0.0369,-0.02977 -0.0708,-0.0633 -0.10875,-0.09176 -0.0437,-0.0328 -0.091,-0.06068 -0.13594,-0.09176 -0.0819,-0.0566 -0.16011,-0.118777 -0.2447,-0.171282 -0.0472,-0.02928 -0.10022,-0.04789 -0.14954,-0.07341 -0.0413,-0.02139 -0.0797,-0.04872 -0.12235,-0.06729 -0.0935,-0.04068 -0.19058,-0.07274 -0.28548,-0.110108 -0.0501,-0.01973 -0.0987,-0.04328 -0.14953,-0.06117 -0.16995,-0.05985 -0.34514,-0.103658 -0.51659,-0.159046 -0.12335,-0.03985 -0.24341,-0.08952 -0.36704,-0.12846 -0.11714,-0.0369 -0.23594,-0.0683 -0.35346,-0.103994 -0.0638,-0.01937 -0.12631,-0.04265 -0.19032,-0.06117 -0.35727,-0.103348 -0.72385,-0.179559 -1.08754,-0.256923 -0.16746,-0.03562 -0.33553,-0.06837 -0.50299,-0.103991 -0.0818,-0.0174 -0.16272,-0.03866 -0.2447,-0.05506 -0.168,-0.0336 -0.73336,-0.120461 -0.78847,-0.12846 -0.0994,-0.01443 -0.1997,-0.02215 -0.29907,-0.0367 -0.0955,-0.014 -0.18988,-0.03549 -0.28549,-0.04894 -0.19446,-0.02735 -0.38967,-0.04912 -0.58455,-0.07341 -0.39844,-0.04965 -0.79697,-0.09858 -1.1963,-0.140695 -9e-5,-9e-6 -0.54369,-0.04893 -0.54377,-0.04894 -0.34486,-0.03419 -0.68801,-0.06911 -1.03317,-0.09787 -0.57987,-0.04832 -1.15919,-0.09314 -1.74007,-0.128462 -0.60633,-0.03687 -1.21455,-0.05891 -1.82163,-0.07952 -0.58898,-0.02 -1.17815,-0.02019 -1.76726,-0.03059 -0.40329,-0.0071 -0.80652,-0.0061 -1.2099,-0.0061 -0.19032,0 -0.38066,-0.0029 -0.57096,0 -0.20398,0.0031 -0.40778,0.01418 -0.61174,0.01835 -0.31254,0.0064 -0.62544,-0.0048 -0.93801,0 -0.27184,0.0042 -0.54383,0.0079 -0.81566,0.01223 -0.2312,0.0037 -0.46217,0.01974 -0.69331,0.02447 -0.14044,0.0029 -0.28096,-0.002 -0.42142,0 -1.6e-4,3e-6 -0.3261,0.01223 -0.32626,0.01223 -0.15366,0.0038 -0.33113,0.0037 -0.4894,0.01223 -0.42655,0.02303 -0.85132,0.06835 -1.27786,0.09176 -0.24458,0.01342 -0.48959,0.0202 -0.73409,0.0367 -0.0591,0.004 -0.11771,0.01343 -0.17673,0.01835 -0.1947,0.01622 -0.38953,0.03112 -0.58456,0.04282 -0.0724,0.0043 -0.14504,0.0031 -0.2175,0.0061 -0.26278,0.01109 -0.52582,0.02357 -0.78848,0.0367 -0.059,0.0029 -0.11773,0.0097 -0.17672,0.01224 -0.13136,0.0056 -0.26287,0.0069 -0.39424,0.01223 -0.25376,0.01038 -0.50758,0.02436 -0.76128,0.0367 -0.16769,0.0082 -0.33517,0.0059 -0.50299,0.01223 -0.20892,0.0078 -0.41764,0.02557 -0.62534,0.04894 -0.10428,0.01173 -0.20905,0.02005 -0.31266,0.0367 -0.1089,0.0175 -0.21812,0.03343 -0.32627,0.05506 -0.046,0.0092 -0.09,0.0273 -0.13594,0.0367 -0.0539,0.01102 -0.10956,0.01207 -0.16313,0.02447 -0.0996,0.02304 -0.32344,0.08622 -0.44861,0.12846 -0.0456,0.0154 -0.0901,0.0342 -0.13595,0.04894 -0.17622,0.05664 -0.35339,0.110302 -0.53017,0.165165 -0.43796,0.135911 -0.87075,0.287017 -1.26428,0.526079 -0.20726,0.12591 -0.38486,0.239918 -0.53017,0.440438 -0.024,0.03315 -0.0345,0.07433 -0.0544,0.110108 -0.0255,0.04585 -0.0576,0.0879 -0.0816,0.134579 -0.0441,0.08604 -0.0826,0.174903 -0.12234,0.26304 -0.0191,0.04238 -0.0322,0.08758 -0.0544,0.12846 -0.0234,0.04309 -0.0548,0.08127 -0.0816,0.122343 -0.0503,0.0772 -0.0989,0.155505 -0.14954,0.232454 -0.0218,0.03317 -0.0506,0.06215 -0.068,0.09788 -0.0148,0.03045 -0.0192,0.06496 -0.0272,0.09787 -0.0147,0.06091 -0.0284,0.122092 -0.0408,0.183515 -0.0108,0.05329 -0.0217,0.122937 -0.0136,0.177399 0.0139,0.09416 0.057,0.294414 0.10875,0.385383 0.1924,0.338434 0.50666,0.567542 0.82926,0.770769 0.0486,0.03062 0.10028,0.05609 0.14953,0.08564 0.0459,0.02755 0.0889,0.0601 0.13594,0.08564 0.21584,0.117118 0.44082,0.225645 0.66613,0.324211 0.5255,0.229897 0.14382,0.06665 0.48939,0.201868 0.0502,0.01962 0.0982,0.04487 0.14954,0.06117 0.10299,0.03271 0.20855,0.0567 0.31267,0.08564 0.39214,0.108988 -0.0784,-0.01638 0.28548,0.07341 0.15868,0.03916 0.27082,0.0735 0.42142,0.103991 0.0451,0.0091 0.0909,0.01501 0.13594,0.02447 0.0909,0.01909 0.18098,0.04208 0.27189,0.06117 0.0451,0.0095 0.0911,0.01386 0.13594,0.02447 0.0414,0.0098 0.0806,0.02855 0.12235,0.0367 0.0945,0.01842 0.19052,0.02728 0.28548,0.04282 0.0546,0.0089 0.10837,0.0227 0.16313,0.03059 0.0586,0.0084 0.11794,0.0112 0.17673,0.01835 0.10888,0.01324 0.21726,0.03056 0.32626,0.04282 0.22556,0.02537 0.45354,0.03198 0.67972,0.04894 0.29848,0.02239 0.59793,0.03384 0.89722,0.04282 0.15846,0.0048 0.31733,-0.0045 0.4758,0 0.12714,0.0036 0.25349,0.01426 0.38064,0.01835 0.16307,0.0052 0.32604,0.0061 0.4894,0.0061 0.0136,0 0.0272,0 0.0408,0 0.051,0 0.0408,0.0136 0.0408,-0.03058"
       id="path32335" />
  </g>
</svg>
